G04 #@! TF.GenerationSoftware,KiCad,Pcbnew,(5.1.2-1)-1*
G04 #@! TF.CreationDate,2020-12-13T23:00:28+01:00*
G04 #@! TF.ProjectId,s1clone,7331636c-6f6e-4652-9e6b-696361645f70,rev?*
G04 #@! TF.SameCoordinates,Original*
G04 #@! TF.FileFunction,Legend,Top*
G04 #@! TF.FilePolarity,Positive*
%FSLAX46Y46*%
G04 Gerber Fmt 4.6, Leading zero omitted, Abs format (unit mm)*
G04 Created by KiCad (PCBNEW (5.1.2-1)-1) date 2020-12-13 23:00:28*
%MOMM*%
%LPD*%
G04 APERTURE LIST*
%ADD10C,0.150000*%
%ADD11C,0.120000*%
%ADD12C,0.304800*%
%ADD13C,0.300000*%
G04 APERTURE END LIST*
D10*
X124969047Y-93902380D02*
X124969047Y-92902380D01*
X125302380Y-93616666D01*
X125635714Y-92902380D01*
X125635714Y-93902380D01*
X126111904Y-93902380D02*
X126111904Y-92902380D01*
X126207142Y-93521428D02*
X126492857Y-93902380D01*
X126492857Y-93235714D02*
X126111904Y-93616666D01*
X127445238Y-93902380D02*
X126873809Y-93902380D01*
X127159523Y-93902380D02*
X127159523Y-92902380D01*
X127064285Y-93045238D01*
X126969047Y-93140476D01*
X126873809Y-93188095D01*
X127873809Y-93807142D02*
X127921428Y-93854761D01*
X127873809Y-93902380D01*
X127826190Y-93854761D01*
X127873809Y-93807142D01*
X127873809Y-93902380D01*
X129064285Y-92997619D02*
X129111904Y-92950000D01*
X129207142Y-92902380D01*
X129445238Y-92902380D01*
X129540476Y-92950000D01*
X129588095Y-92997619D01*
X129635714Y-93092857D01*
X129635714Y-93188095D01*
X129588095Y-93330952D01*
X129016666Y-93902380D01*
X129635714Y-93902380D01*
X130254761Y-92902380D02*
X130350000Y-92902380D01*
X130445238Y-92950000D01*
X130492857Y-92997619D01*
X130540476Y-93092857D01*
X130588095Y-93283333D01*
X130588095Y-93521428D01*
X130540476Y-93711904D01*
X130492857Y-93807142D01*
X130445238Y-93854761D01*
X130350000Y-93902380D01*
X130254761Y-93902380D01*
X130159523Y-93854761D01*
X130111904Y-93807142D01*
X130064285Y-93711904D01*
X130016666Y-93521428D01*
X130016666Y-93283333D01*
X130064285Y-93092857D01*
X130111904Y-92997619D01*
X130159523Y-92950000D01*
X130254761Y-92902380D01*
X130969047Y-92997619D02*
X131016666Y-92950000D01*
X131111904Y-92902380D01*
X131350000Y-92902380D01*
X131445238Y-92950000D01*
X131492857Y-92997619D01*
X131540476Y-93092857D01*
X131540476Y-93188095D01*
X131492857Y-93330952D01*
X130921428Y-93902380D01*
X131540476Y-93902380D01*
X132159523Y-92902380D02*
X132254761Y-92902380D01*
X132350000Y-92950000D01*
X132397619Y-92997619D01*
X132445238Y-93092857D01*
X132492857Y-93283333D01*
X132492857Y-93521428D01*
X132445238Y-93711904D01*
X132397619Y-93807142D01*
X132350000Y-93854761D01*
X132254761Y-93902380D01*
X132159523Y-93902380D01*
X132064285Y-93854761D01*
X132016666Y-93807142D01*
X131969047Y-93711904D01*
X131921428Y-93521428D01*
X131921428Y-93283333D01*
X131969047Y-93092857D01*
X132016666Y-92997619D01*
X132064285Y-92950000D01*
X132159523Y-92902380D01*
X132921428Y-93521428D02*
X133683333Y-93521428D01*
X134683333Y-93902380D02*
X134111904Y-93902380D01*
X134397619Y-93902380D02*
X134397619Y-92902380D01*
X134302380Y-93045238D01*
X134207142Y-93140476D01*
X134111904Y-93188095D01*
X135064285Y-92997619D02*
X135111904Y-92950000D01*
X135207142Y-92902380D01*
X135445238Y-92902380D01*
X135540476Y-92950000D01*
X135588095Y-92997619D01*
X135635714Y-93092857D01*
X135635714Y-93188095D01*
X135588095Y-93330952D01*
X135016666Y-93902380D01*
X135635714Y-93902380D01*
X136064285Y-93521428D02*
X136826190Y-93521428D01*
X137826190Y-93902380D02*
X137254761Y-93902380D01*
X137540476Y-93902380D02*
X137540476Y-92902380D01*
X137445238Y-93045238D01*
X137350000Y-93140476D01*
X137254761Y-93188095D01*
X138159523Y-92902380D02*
X138778571Y-92902380D01*
X138445238Y-93283333D01*
X138588095Y-93283333D01*
X138683333Y-93330952D01*
X138730952Y-93378571D01*
X138778571Y-93473809D01*
X138778571Y-93711904D01*
X138730952Y-93807142D01*
X138683333Y-93854761D01*
X138588095Y-93902380D01*
X138302380Y-93902380D01*
X138207142Y-93854761D01*
X138159523Y-93807142D01*
X174402380Y-70707142D02*
X173402380Y-70707142D01*
X174116666Y-70373809D01*
X173402380Y-70040476D01*
X174402380Y-70040476D01*
X174402380Y-69421428D02*
X174354761Y-69516666D01*
X174307142Y-69564285D01*
X174211904Y-69611904D01*
X173926190Y-69611904D01*
X173830952Y-69564285D01*
X173783333Y-69516666D01*
X173735714Y-69421428D01*
X173735714Y-69278571D01*
X173783333Y-69183333D01*
X173830952Y-69135714D01*
X173926190Y-69088095D01*
X174211904Y-69088095D01*
X174307142Y-69135714D01*
X174354761Y-69183333D01*
X174402380Y-69278571D01*
X174402380Y-69421428D01*
X173735714Y-68230952D02*
X174402380Y-68230952D01*
X173735714Y-68659523D02*
X174259523Y-68659523D01*
X174354761Y-68611904D01*
X174402380Y-68516666D01*
X174402380Y-68373809D01*
X174354761Y-68278571D01*
X174307142Y-68230952D01*
X173735714Y-67754761D02*
X174402380Y-67754761D01*
X173830952Y-67754761D02*
X173783333Y-67707142D01*
X173735714Y-67611904D01*
X173735714Y-67469047D01*
X173783333Y-67373809D01*
X173878571Y-67326190D01*
X174402380Y-67326190D01*
X173735714Y-66992857D02*
X173735714Y-66611904D01*
X173402380Y-66850000D02*
X174259523Y-66850000D01*
X174354761Y-66802380D01*
X174402380Y-66707142D01*
X174402380Y-66611904D01*
X174402380Y-65373809D02*
X174354761Y-65469047D01*
X174307142Y-65516666D01*
X174211904Y-65564285D01*
X173926190Y-65564285D01*
X173830952Y-65516666D01*
X173783333Y-65469047D01*
X173735714Y-65373809D01*
X173735714Y-65230952D01*
X173783333Y-65135714D01*
X173830952Y-65088095D01*
X173926190Y-65040476D01*
X174211904Y-65040476D01*
X174307142Y-65088095D01*
X174354761Y-65135714D01*
X174402380Y-65230952D01*
X174402380Y-65373809D01*
X173735714Y-64611904D02*
X174402380Y-64611904D01*
X173830952Y-64611904D02*
X173783333Y-64564285D01*
X173735714Y-64469047D01*
X173735714Y-64326190D01*
X173783333Y-64230952D01*
X173878571Y-64183333D01*
X174402380Y-64183333D01*
X174354761Y-62992857D02*
X174402380Y-62897619D01*
X174402380Y-62707142D01*
X174354761Y-62611904D01*
X174259523Y-62564285D01*
X174211904Y-62564285D01*
X174116666Y-62611904D01*
X174069047Y-62707142D01*
X174069047Y-62850000D01*
X174021428Y-62945238D01*
X173926190Y-62992857D01*
X173878571Y-62992857D01*
X173783333Y-62945238D01*
X173735714Y-62850000D01*
X173735714Y-62707142D01*
X173783333Y-62611904D01*
X174402380Y-61992857D02*
X174354761Y-62088095D01*
X174307142Y-62135714D01*
X174211904Y-62183333D01*
X173926190Y-62183333D01*
X173830952Y-62135714D01*
X173783333Y-62088095D01*
X173735714Y-61992857D01*
X173735714Y-61850000D01*
X173783333Y-61754761D01*
X173830952Y-61707142D01*
X173926190Y-61659523D01*
X174211904Y-61659523D01*
X174307142Y-61707142D01*
X174354761Y-61754761D01*
X174402380Y-61850000D01*
X174402380Y-61992857D01*
X174402380Y-61088095D02*
X174354761Y-61183333D01*
X174259523Y-61230952D01*
X173402380Y-61230952D01*
X174402380Y-60278571D02*
X173402380Y-60278571D01*
X174354761Y-60278571D02*
X174402380Y-60373809D01*
X174402380Y-60564285D01*
X174354761Y-60659523D01*
X174307142Y-60707142D01*
X174211904Y-60754761D01*
X173926190Y-60754761D01*
X173830952Y-60707142D01*
X173783333Y-60659523D01*
X173735714Y-60564285D01*
X173735714Y-60373809D01*
X173783333Y-60278571D01*
X174354761Y-59421428D02*
X174402380Y-59516666D01*
X174402380Y-59707142D01*
X174354761Y-59802380D01*
X174259523Y-59850000D01*
X173878571Y-59850000D01*
X173783333Y-59802380D01*
X173735714Y-59707142D01*
X173735714Y-59516666D01*
X173783333Y-59421428D01*
X173878571Y-59373809D01*
X173973809Y-59373809D01*
X174069047Y-59850000D01*
X174402380Y-58945238D02*
X173735714Y-58945238D01*
X173926190Y-58945238D02*
X173830952Y-58897619D01*
X173783333Y-58850000D01*
X173735714Y-58754761D01*
X173735714Y-58659523D01*
X174354761Y-57611904D02*
X174402380Y-57516666D01*
X174402380Y-57326190D01*
X174354761Y-57230952D01*
X174259523Y-57183333D01*
X174211904Y-57183333D01*
X174116666Y-57230952D01*
X174069047Y-57326190D01*
X174069047Y-57469047D01*
X174021428Y-57564285D01*
X173926190Y-57611904D01*
X173878571Y-57611904D01*
X173783333Y-57564285D01*
X173735714Y-57469047D01*
X173735714Y-57326190D01*
X173783333Y-57230952D01*
X174402380Y-56754761D02*
X173735714Y-56754761D01*
X173402380Y-56754761D02*
X173450000Y-56802380D01*
X173497619Y-56754761D01*
X173450000Y-56707142D01*
X173402380Y-56754761D01*
X173497619Y-56754761D01*
X174402380Y-55850000D02*
X173402380Y-55850000D01*
X174354761Y-55850000D02*
X174402380Y-55945238D01*
X174402380Y-56135714D01*
X174354761Y-56230952D01*
X174307142Y-56278571D01*
X174211904Y-56326190D01*
X173926190Y-56326190D01*
X173830952Y-56278571D01*
X173783333Y-56230952D01*
X173735714Y-56135714D01*
X173735714Y-55945238D01*
X173783333Y-55850000D01*
X174354761Y-54992857D02*
X174402380Y-55088095D01*
X174402380Y-55278571D01*
X174354761Y-55373809D01*
X174259523Y-55421428D01*
X173878571Y-55421428D01*
X173783333Y-55373809D01*
X173735714Y-55278571D01*
X173735714Y-55088095D01*
X173783333Y-54992857D01*
X173878571Y-54945238D01*
X173973809Y-54945238D01*
X174069047Y-55421428D01*
X125490476Y-91857142D02*
X125442857Y-91904761D01*
X125299999Y-91952380D01*
X125204761Y-91952380D01*
X125061904Y-91904761D01*
X124966666Y-91809523D01*
X124919047Y-91714285D01*
X124871428Y-91523809D01*
X124871428Y-91380952D01*
X124919047Y-91190476D01*
X124966666Y-91095238D01*
X125061904Y-91000000D01*
X125204761Y-90952380D01*
X125299999Y-90952380D01*
X125442857Y-91000000D01*
X125490476Y-91047619D01*
X126061904Y-91952380D02*
X125966666Y-91904761D01*
X125919047Y-91857142D01*
X125871428Y-91761904D01*
X125871428Y-91476190D01*
X125919047Y-91380952D01*
X125966666Y-91333333D01*
X126061904Y-91285714D01*
X126204761Y-91285714D01*
X126299999Y-91333333D01*
X126347619Y-91380952D01*
X126395238Y-91476190D01*
X126395238Y-91761904D01*
X126347619Y-91857142D01*
X126299999Y-91904761D01*
X126204761Y-91952380D01*
X126061904Y-91952380D01*
X126823809Y-91285714D02*
X126823809Y-92285714D01*
X126823809Y-91333333D02*
X126919047Y-91285714D01*
X127109523Y-91285714D01*
X127204761Y-91333333D01*
X127252380Y-91380952D01*
X127299999Y-91476190D01*
X127299999Y-91761904D01*
X127252380Y-91857142D01*
X127204761Y-91904761D01*
X127109523Y-91952380D01*
X126919047Y-91952380D01*
X126823809Y-91904761D01*
X127633333Y-91285714D02*
X127871428Y-91952380D01*
X128109523Y-91285714D02*
X127871428Y-91952380D01*
X127776190Y-92190476D01*
X127728571Y-92238095D01*
X127633333Y-92285714D01*
X128490476Y-91952380D02*
X128490476Y-91285714D01*
X128490476Y-91476190D02*
X128538095Y-91380952D01*
X128585714Y-91333333D01*
X128680952Y-91285714D01*
X128776190Y-91285714D01*
X129109523Y-91952380D02*
X129109523Y-91285714D01*
X129109523Y-90952380D02*
X129061904Y-91000000D01*
X129109523Y-91047619D01*
X129157142Y-91000000D01*
X129109523Y-90952380D01*
X129109523Y-91047619D01*
X130014285Y-91285714D02*
X130014285Y-92095238D01*
X129966666Y-92190476D01*
X129919047Y-92238095D01*
X129823809Y-92285714D01*
X129680952Y-92285714D01*
X129585714Y-92238095D01*
X130014285Y-91904761D02*
X129919047Y-91952380D01*
X129728571Y-91952380D01*
X129633333Y-91904761D01*
X129585714Y-91857142D01*
X129538095Y-91761904D01*
X129538095Y-91476190D01*
X129585714Y-91380952D01*
X129633333Y-91333333D01*
X129728571Y-91285714D01*
X129919047Y-91285714D01*
X130014285Y-91333333D01*
X130490476Y-91952380D02*
X130490476Y-90952380D01*
X130919047Y-91952380D02*
X130919047Y-91428571D01*
X130871428Y-91333333D01*
X130776190Y-91285714D01*
X130633333Y-91285714D01*
X130538095Y-91333333D01*
X130490476Y-91380952D01*
X131252380Y-91285714D02*
X131633333Y-91285714D01*
X131395238Y-90952380D02*
X131395238Y-91809523D01*
X131442857Y-91904761D01*
X131538095Y-91952380D01*
X131633333Y-91952380D01*
X133014285Y-92333333D02*
X132966666Y-92285714D01*
X132871428Y-92142857D01*
X132823809Y-92047619D01*
X132776190Y-91904761D01*
X132728571Y-91666666D01*
X132728571Y-91476190D01*
X132776190Y-91238095D01*
X132823809Y-91095238D01*
X132871428Y-91000000D01*
X132966666Y-90857142D01*
X133014285Y-90809523D01*
X133823809Y-91904761D02*
X133728571Y-91952380D01*
X133538095Y-91952380D01*
X133442857Y-91904761D01*
X133395238Y-91857142D01*
X133347619Y-91761904D01*
X133347619Y-91476190D01*
X133395238Y-91380952D01*
X133442857Y-91333333D01*
X133538095Y-91285714D01*
X133728571Y-91285714D01*
X133823809Y-91333333D01*
X134157142Y-92333333D02*
X134204761Y-92285714D01*
X134300000Y-92142857D01*
X134347619Y-92047619D01*
X134395238Y-91904761D01*
X134442857Y-91666666D01*
X134442857Y-91476190D01*
X134395238Y-91238095D01*
X134347619Y-91095238D01*
X134300000Y-91000000D01*
X134204761Y-90857142D01*
X134157142Y-90809523D01*
X135633333Y-91047619D02*
X135680952Y-91000000D01*
X135776190Y-90952380D01*
X136014285Y-90952380D01*
X136109523Y-91000000D01*
X136157142Y-91047619D01*
X136204761Y-91142857D01*
X136204761Y-91238095D01*
X136157142Y-91380952D01*
X135585714Y-91952380D01*
X136204761Y-91952380D01*
X136823809Y-90952380D02*
X136919047Y-90952380D01*
X137014285Y-91000000D01*
X137061904Y-91047619D01*
X137109523Y-91142857D01*
X137157142Y-91333333D01*
X137157142Y-91571428D01*
X137109523Y-91761904D01*
X137061904Y-91857142D01*
X137014285Y-91904761D01*
X136919047Y-91952380D01*
X136823809Y-91952380D01*
X136728571Y-91904761D01*
X136680952Y-91857142D01*
X136633333Y-91761904D01*
X136585714Y-91571428D01*
X136585714Y-91333333D01*
X136633333Y-91142857D01*
X136680952Y-91047619D01*
X136728571Y-91000000D01*
X136823809Y-90952380D01*
X137538095Y-91047619D02*
X137585714Y-91000000D01*
X137680952Y-90952380D01*
X137919047Y-90952380D01*
X138014285Y-91000000D01*
X138061904Y-91047619D01*
X138109523Y-91142857D01*
X138109523Y-91238095D01*
X138061904Y-91380952D01*
X137490476Y-91952380D01*
X138109523Y-91952380D01*
X138728571Y-90952380D02*
X138823809Y-90952380D01*
X138919047Y-91000000D01*
X138966666Y-91047619D01*
X139014285Y-91142857D01*
X139061904Y-91333333D01*
X139061904Y-91571428D01*
X139014285Y-91761904D01*
X138966666Y-91857142D01*
X138919047Y-91904761D01*
X138823809Y-91952380D01*
X138728571Y-91952380D01*
X138633333Y-91904761D01*
X138585714Y-91857142D01*
X138538095Y-91761904D01*
X138490476Y-91571428D01*
X138490476Y-91333333D01*
X138538095Y-91142857D01*
X138585714Y-91047619D01*
X138633333Y-91000000D01*
X138728571Y-90952380D01*
X140823809Y-91952380D02*
X140490476Y-91476190D01*
X140252380Y-91952380D02*
X140252380Y-90952380D01*
X140633333Y-90952380D01*
X140728571Y-91000000D01*
X140776190Y-91047619D01*
X140823809Y-91142857D01*
X140823809Y-91285714D01*
X140776190Y-91380952D01*
X140728571Y-91428571D01*
X140633333Y-91476190D01*
X140252380Y-91476190D01*
X141395238Y-91952380D02*
X141300000Y-91904761D01*
X141252380Y-91857142D01*
X141204761Y-91761904D01*
X141204761Y-91476190D01*
X141252380Y-91380952D01*
X141300000Y-91333333D01*
X141395238Y-91285714D01*
X141538095Y-91285714D01*
X141633333Y-91333333D01*
X141680952Y-91380952D01*
X141728571Y-91476190D01*
X141728571Y-91761904D01*
X141680952Y-91857142D01*
X141633333Y-91904761D01*
X141538095Y-91952380D01*
X141395238Y-91952380D01*
X142300000Y-91952380D02*
X142204761Y-91904761D01*
X142157142Y-91809523D01*
X142157142Y-90952380D01*
X143109523Y-91952380D02*
X143109523Y-91428571D01*
X143061904Y-91333333D01*
X142966666Y-91285714D01*
X142776190Y-91285714D01*
X142680952Y-91333333D01*
X143109523Y-91904761D02*
X143014285Y-91952380D01*
X142776190Y-91952380D01*
X142680952Y-91904761D01*
X142633333Y-91809523D01*
X142633333Y-91714285D01*
X142680952Y-91619047D01*
X142776190Y-91571428D01*
X143014285Y-91571428D01*
X143109523Y-91523809D01*
X143585714Y-91285714D02*
X143585714Y-91952380D01*
X143585714Y-91380952D02*
X143633333Y-91333333D01*
X143728571Y-91285714D01*
X143871428Y-91285714D01*
X143966666Y-91333333D01*
X144014285Y-91428571D01*
X144014285Y-91952380D01*
X144919047Y-91952380D02*
X144919047Y-90952380D01*
X144919047Y-91904761D02*
X144823809Y-91952380D01*
X144633333Y-91952380D01*
X144538095Y-91904761D01*
X144490476Y-91857142D01*
X144442857Y-91761904D01*
X144442857Y-91476190D01*
X144490476Y-91380952D01*
X144538095Y-91333333D01*
X144633333Y-91285714D01*
X144823809Y-91285714D01*
X144919047Y-91333333D01*
X146633333Y-91952380D02*
X146157142Y-91952380D01*
X146157142Y-90952380D01*
X147347619Y-91904761D02*
X147252380Y-91952380D01*
X147061904Y-91952380D01*
X146966666Y-91904761D01*
X146919047Y-91809523D01*
X146919047Y-91428571D01*
X146966666Y-91333333D01*
X147061904Y-91285714D01*
X147252380Y-91285714D01*
X147347619Y-91333333D01*
X147395238Y-91428571D01*
X147395238Y-91523809D01*
X146919047Y-91619047D01*
X148252380Y-91285714D02*
X148252380Y-91952380D01*
X147823809Y-91285714D02*
X147823809Y-91809523D01*
X147871428Y-91904761D01*
X147966666Y-91952380D01*
X148109523Y-91952380D01*
X148204761Y-91904761D01*
X148252380Y-91857142D01*
X148728571Y-91952380D02*
X148728571Y-91285714D01*
X148728571Y-91476190D02*
X148776190Y-91380952D01*
X148823809Y-91333333D01*
X148919047Y-91285714D01*
X149014285Y-91285714D01*
X149299999Y-91904761D02*
X149395238Y-91952380D01*
X149585714Y-91952380D01*
X149680952Y-91904761D01*
X149728571Y-91809523D01*
X149728571Y-91761904D01*
X149680952Y-91666666D01*
X149585714Y-91619047D01*
X149442857Y-91619047D01*
X149347619Y-91571428D01*
X149299999Y-91476190D01*
X149299999Y-91428571D01*
X149347619Y-91333333D01*
X149442857Y-91285714D01*
X149585714Y-91285714D01*
X149680952Y-91333333D01*
X88171428Y-148752380D02*
X88171428Y-149704761D01*
X87504761Y-147704761D02*
X88171428Y-148752380D01*
X88838095Y-147704761D01*
X89409523Y-149133333D02*
X90361904Y-149133333D01*
X89219047Y-149704761D02*
X89885714Y-147704761D01*
X90552380Y-149704761D01*
X92361904Y-149704761D02*
X91695238Y-148752380D01*
X91219047Y-149704761D02*
X91219047Y-147704761D01*
X91980952Y-147704761D01*
X92171428Y-147800000D01*
X92266666Y-147895238D01*
X92361904Y-148085714D01*
X92361904Y-148371428D01*
X92266666Y-148561904D01*
X92171428Y-148657142D01*
X91980952Y-148752380D01*
X91219047Y-148752380D01*
X94361904Y-149704761D02*
X93695238Y-148752380D01*
X93219047Y-149704761D02*
X93219047Y-147704761D01*
X93980952Y-147704761D01*
X94171428Y-147800000D01*
X94266666Y-147895238D01*
X94361904Y-148085714D01*
X94361904Y-148371428D01*
X94266666Y-148561904D01*
X94171428Y-148657142D01*
X93980952Y-148752380D01*
X93219047Y-148752380D01*
X95885714Y-148657142D02*
X96171428Y-148752380D01*
X96266666Y-148847619D01*
X96361904Y-149038095D01*
X96361904Y-149323809D01*
X96266666Y-149514285D01*
X96171428Y-149609523D01*
X95980952Y-149704761D01*
X95219047Y-149704761D01*
X95219047Y-147704761D01*
X95885714Y-147704761D01*
X96076190Y-147800000D01*
X96171428Y-147895238D01*
X96266666Y-148085714D01*
X96266666Y-148276190D01*
X96171428Y-148466666D01*
X96076190Y-148561904D01*
X95885714Y-148657142D01*
X95219047Y-148657142D01*
X98742857Y-149704761D02*
X98742857Y-147704761D01*
X99885714Y-149704761D02*
X99028571Y-148561904D01*
X99885714Y-147704761D02*
X98742857Y-148847619D01*
X100742857Y-148657142D02*
X101409523Y-148657142D01*
X101695238Y-149704761D02*
X100742857Y-149704761D01*
X100742857Y-147704761D01*
X101695238Y-147704761D01*
X102933333Y-148752380D02*
X102933333Y-149704761D01*
X102266666Y-147704761D02*
X102933333Y-148752380D01*
X103600000Y-147704761D01*
X104933333Y-148657142D02*
X105219047Y-148752380D01*
X105314285Y-148847619D01*
X105409523Y-149038095D01*
X105409523Y-149323809D01*
X105314285Y-149514285D01*
X105219047Y-149609523D01*
X105028571Y-149704761D01*
X104266666Y-149704761D01*
X104266666Y-147704761D01*
X104933333Y-147704761D01*
X105123809Y-147800000D01*
X105219047Y-147895238D01*
X105314285Y-148085714D01*
X105314285Y-148276190D01*
X105219047Y-148466666D01*
X105123809Y-148561904D01*
X104933333Y-148657142D01*
X104266666Y-148657142D01*
X106647619Y-147704761D02*
X107028571Y-147704761D01*
X107219047Y-147800000D01*
X107409523Y-147990476D01*
X107504761Y-148371428D01*
X107504761Y-149038095D01*
X107409523Y-149419047D01*
X107219047Y-149609523D01*
X107028571Y-149704761D01*
X106647619Y-149704761D01*
X106457142Y-149609523D01*
X106266666Y-149419047D01*
X106171428Y-149038095D01*
X106171428Y-148371428D01*
X106266666Y-147990476D01*
X106457142Y-147800000D01*
X106647619Y-147704761D01*
X108266666Y-149133333D02*
X109219047Y-149133333D01*
X108076190Y-149704761D02*
X108742857Y-147704761D01*
X109409523Y-149704761D01*
X111219047Y-149704761D02*
X110552380Y-148752380D01*
X110076190Y-149704761D02*
X110076190Y-147704761D01*
X110838095Y-147704761D01*
X111028571Y-147800000D01*
X111123809Y-147895238D01*
X111219047Y-148085714D01*
X111219047Y-148371428D01*
X111123809Y-148561904D01*
X111028571Y-148657142D01*
X110838095Y-148752380D01*
X110076190Y-148752380D01*
X112076190Y-149704761D02*
X112076190Y-147704761D01*
X112552380Y-147704761D01*
X112838095Y-147800000D01*
X113028571Y-147990476D01*
X113123809Y-148180952D01*
X113219047Y-148561904D01*
X113219047Y-148847619D01*
X113123809Y-149228571D01*
X113028571Y-149419047D01*
X112838095Y-149609523D01*
X112552380Y-149704761D01*
X112076190Y-149704761D01*
X115600000Y-149704761D02*
X115600000Y-147704761D01*
X116076190Y-147704761D01*
X116361904Y-147800000D01*
X116552380Y-147990476D01*
X116647619Y-148180952D01*
X116742857Y-148561904D01*
X116742857Y-148847619D01*
X116647619Y-149228571D01*
X116552380Y-149419047D01*
X116361904Y-149609523D01*
X116076190Y-149704761D01*
X115600000Y-149704761D01*
X117600000Y-149704761D02*
X117600000Y-147704761D01*
X118457142Y-149609523D02*
X118742857Y-149704761D01*
X119219047Y-149704761D01*
X119409523Y-149609523D01*
X119504761Y-149514285D01*
X119600000Y-149323809D01*
X119600000Y-149133333D01*
X119504761Y-148942857D01*
X119409523Y-148847619D01*
X119219047Y-148752380D01*
X118838095Y-148657142D01*
X118647619Y-148561904D01*
X118552380Y-148466666D01*
X118457142Y-148276190D01*
X118457142Y-148085714D01*
X118552380Y-147895238D01*
X118647619Y-147800000D01*
X118838095Y-147704761D01*
X119314285Y-147704761D01*
X119600000Y-147800000D01*
X120457142Y-149704761D02*
X120457142Y-147704761D01*
X121219047Y-147704761D01*
X121409523Y-147800000D01*
X121504761Y-147895238D01*
X121600000Y-148085714D01*
X121600000Y-148371428D01*
X121504761Y-148561904D01*
X121409523Y-148657142D01*
X121219047Y-148752380D01*
X120457142Y-148752380D01*
X123409523Y-149704761D02*
X122457142Y-149704761D01*
X122457142Y-147704761D01*
X123980952Y-149133333D02*
X124933333Y-149133333D01*
X123790476Y-149704761D02*
X124457142Y-147704761D01*
X125123809Y-149704761D01*
X126171428Y-148752380D02*
X126171428Y-149704761D01*
X125504761Y-147704761D02*
X126171428Y-148752380D01*
X126838095Y-147704761D01*
X130647619Y-149704761D02*
X130552380Y-149704761D01*
X130361904Y-149609523D01*
X130076190Y-149323809D01*
X129600000Y-148752380D01*
X129409523Y-148466666D01*
X129314285Y-148180952D01*
X129314285Y-147990476D01*
X129409523Y-147800000D01*
X129600000Y-147704761D01*
X129695238Y-147704761D01*
X129885714Y-147800000D01*
X129980952Y-147990476D01*
X129980952Y-148085714D01*
X129885714Y-148276190D01*
X129790476Y-148371428D01*
X129219047Y-148752380D01*
X129123809Y-148847619D01*
X129028571Y-149038095D01*
X129028571Y-149323809D01*
X129123809Y-149514285D01*
X129219047Y-149609523D01*
X129409523Y-149704761D01*
X129695238Y-149704761D01*
X129885714Y-149609523D01*
X129980952Y-149514285D01*
X130266666Y-149133333D01*
X130361904Y-148847619D01*
X130361904Y-148657142D01*
X134171428Y-149514285D02*
X134076190Y-149609523D01*
X133790476Y-149704761D01*
X133600000Y-149704761D01*
X133314285Y-149609523D01*
X133123809Y-149419047D01*
X133028571Y-149228571D01*
X132933333Y-148847619D01*
X132933333Y-148561904D01*
X133028571Y-148180952D01*
X133123809Y-147990476D01*
X133314285Y-147800000D01*
X133600000Y-147704761D01*
X133790476Y-147704761D01*
X134076190Y-147800000D01*
X134171428Y-147895238D01*
X134933333Y-149133333D02*
X135885714Y-149133333D01*
X134742857Y-149704761D02*
X135409523Y-147704761D01*
X136076190Y-149704761D01*
X136647619Y-149609523D02*
X136933333Y-149704761D01*
X137409523Y-149704761D01*
X137600000Y-149609523D01*
X137695238Y-149514285D01*
X137790476Y-149323809D01*
X137790476Y-149133333D01*
X137695238Y-148942857D01*
X137600000Y-148847619D01*
X137409523Y-148752380D01*
X137028571Y-148657142D01*
X136838095Y-148561904D01*
X136742857Y-148466666D01*
X136647619Y-148276190D01*
X136647619Y-148085714D01*
X136742857Y-147895238D01*
X136838095Y-147800000D01*
X137028571Y-147704761D01*
X137504761Y-147704761D01*
X137790476Y-147800000D01*
X138552380Y-149609523D02*
X138838095Y-149704761D01*
X139314285Y-149704761D01*
X139504761Y-149609523D01*
X139600000Y-149514285D01*
X139695238Y-149323809D01*
X139695238Y-149133333D01*
X139600000Y-148942857D01*
X139504761Y-148847619D01*
X139314285Y-148752380D01*
X138933333Y-148657142D01*
X138742857Y-148561904D01*
X138647619Y-148466666D01*
X138552380Y-148276190D01*
X138552380Y-148085714D01*
X138647619Y-147895238D01*
X138742857Y-147800000D01*
X138933333Y-147704761D01*
X139409523Y-147704761D01*
X139695238Y-147800000D01*
X140552380Y-148657142D02*
X141219047Y-148657142D01*
X141504761Y-149704761D02*
X140552380Y-149704761D01*
X140552380Y-147704761D01*
X141504761Y-147704761D01*
X142076190Y-147704761D02*
X143219047Y-147704761D01*
X142647619Y-149704761D02*
X142647619Y-147704761D01*
X143600000Y-147704761D02*
X144742857Y-147704761D01*
X144171428Y-149704761D02*
X144171428Y-147704761D01*
X145409523Y-148657142D02*
X146076190Y-148657142D01*
X146361904Y-149704761D02*
X145409523Y-149704761D01*
X145409523Y-147704761D01*
X146361904Y-147704761D01*
X148742857Y-149704761D02*
X148742857Y-147704761D01*
X149695238Y-149704761D02*
X149695238Y-147704761D01*
X150838095Y-149704761D01*
X150838095Y-147704761D01*
X151504761Y-147704761D02*
X152647619Y-147704761D01*
X152076190Y-149704761D02*
X152076190Y-147704761D01*
X153314285Y-148657142D02*
X153980952Y-148657142D01*
X154266666Y-149704761D02*
X153314285Y-149704761D01*
X153314285Y-147704761D01*
X154266666Y-147704761D01*
X156266666Y-149704761D02*
X155600000Y-148752380D01*
X155123809Y-149704761D02*
X155123809Y-147704761D01*
X155885714Y-147704761D01*
X156076190Y-147800000D01*
X156171428Y-147895238D01*
X156266666Y-148085714D01*
X156266666Y-148371428D01*
X156171428Y-148561904D01*
X156076190Y-148657142D01*
X155885714Y-148752380D01*
X155123809Y-148752380D01*
X157790476Y-148657142D02*
X157123809Y-148657142D01*
X157123809Y-149704761D02*
X157123809Y-147704761D01*
X158076190Y-147704761D01*
X158742857Y-149133333D02*
X159695238Y-149133333D01*
X158552380Y-149704761D02*
X159219047Y-147704761D01*
X159885714Y-149704761D01*
X161695238Y-149514285D02*
X161600000Y-149609523D01*
X161314285Y-149704761D01*
X161123809Y-149704761D01*
X160838095Y-149609523D01*
X160647619Y-149419047D01*
X160552380Y-149228571D01*
X160457142Y-148847619D01*
X160457142Y-148561904D01*
X160552380Y-148180952D01*
X160647619Y-147990476D01*
X160838095Y-147800000D01*
X161123809Y-147704761D01*
X161314285Y-147704761D01*
X161600000Y-147800000D01*
X161695238Y-147895238D01*
X162552380Y-148657142D02*
X163219047Y-148657142D01*
X163504761Y-149704761D02*
X162552380Y-149704761D01*
X162552380Y-147704761D01*
X163504761Y-147704761D01*
X153700000Y-82185714D02*
X155604761Y-84090476D01*
X153700000Y-85995238D01*
X151795238Y-84090476D01*
X153700000Y-82185714D01*
X153700000Y-85995238D01*
X153700000Y-85235714D02*
X153700000Y-88807142D01*
X150128571Y-87378571D02*
X153700000Y-88807142D01*
X157271428Y-87378571D01*
X151557142Y-91664285D02*
X153700000Y-88807142D01*
X155842857Y-91664285D01*
D11*
X159000000Y-75400000D02*
X157890000Y-75400000D01*
X146640000Y-75400000D02*
X147750000Y-75400000D01*
X157890000Y-73480000D02*
X147750000Y-73480000D01*
X157890000Y-77320000D02*
X157890000Y-73480000D01*
X147750000Y-77320000D02*
X157890000Y-77320000D01*
X147750000Y-73480000D02*
X147750000Y-77320000D01*
X90300000Y-120800000D02*
X90300000Y-123520000D01*
X90300000Y-130380000D02*
X90300000Y-133100000D01*
X78000000Y-128520000D02*
X78000000Y-125380000D01*
X78000000Y-133100000D02*
X78000000Y-130380000D01*
X88829050Y-126990000D02*
G75*
G03X88829050Y-126990000I-4579050J0D01*
G01*
X78000000Y-123520000D02*
X78000000Y-120800000D01*
X90300000Y-133100000D02*
X78000000Y-133100000D01*
X90300000Y-125380000D02*
X90300000Y-128520000D01*
X78000000Y-120800000D02*
X90300000Y-120800000D01*
X102110000Y-78950000D02*
X102110000Y-89230000D01*
X112510000Y-78950000D02*
X102110000Y-78950000D01*
X112510000Y-89230000D02*
X112510000Y-78950000D01*
X102110000Y-89230000D02*
X112510000Y-89230000D01*
X102170000Y-81440000D02*
X102170000Y-83090000D01*
X112450000Y-81440000D02*
X102170000Y-81440000D01*
X112450000Y-86740000D02*
X112450000Y-81440000D01*
X102170000Y-86740000D02*
X112450000Y-86740000D01*
X102170000Y-85090000D02*
X102170000Y-86740000D01*
X102170000Y-83090000D02*
G75*
G02X102170000Y-85090000I0J-1000000D01*
G01*
X126510000Y-78950000D02*
X126510000Y-89230000D01*
X147070000Y-78950000D02*
X126510000Y-78950000D01*
X147070000Y-89230000D02*
X147070000Y-78950000D01*
X126510000Y-89230000D02*
X147070000Y-89230000D01*
X126570000Y-81440000D02*
X126570000Y-83090000D01*
X147010000Y-81440000D02*
X126570000Y-81440000D01*
X147010000Y-86740000D02*
X147010000Y-81440000D01*
X126570000Y-86740000D02*
X147010000Y-86740000D01*
X126570000Y-85090000D02*
X126570000Y-86740000D01*
X126570000Y-83090000D02*
G75*
G02X126570000Y-85090000I0J-1000000D01*
G01*
X143400000Y-72630000D02*
X145400000Y-72630000D01*
X176020000Y-53010000D02*
X125480000Y-53010000D01*
X176020000Y-72250000D02*
X176020000Y-53010000D01*
X125480000Y-72250000D02*
X176020000Y-72250000D01*
X125480000Y-72250000D02*
X125480000Y-53010000D01*
X92400000Y-72630000D02*
X94400000Y-72630000D01*
X125020000Y-53010000D02*
X74480000Y-53010000D01*
X125020000Y-72250000D02*
X125020000Y-53010000D01*
X74480000Y-72250000D02*
X125020000Y-72250000D01*
X74480000Y-72250000D02*
X74480000Y-53010000D01*
X172850000Y-82300000D02*
X172850000Y-85020000D01*
X172850000Y-91880000D02*
X172850000Y-94600000D01*
X160550000Y-90020000D02*
X160550000Y-86880000D01*
X160550000Y-94600000D02*
X160550000Y-91880000D01*
X171379050Y-88490000D02*
G75*
G03X171379050Y-88490000I-4579050J0D01*
G01*
X160550000Y-85020000D02*
X160550000Y-82300000D01*
X172850000Y-94600000D02*
X160550000Y-94600000D01*
X172850000Y-86880000D02*
X172850000Y-90020000D01*
X160550000Y-82300000D02*
X172850000Y-82300000D01*
X90300000Y-107900000D02*
X90300000Y-110620000D01*
X90300000Y-117480000D02*
X90300000Y-120200000D01*
X78000000Y-115620000D02*
X78000000Y-112480000D01*
X78000000Y-120200000D02*
X78000000Y-117480000D01*
X88829050Y-114090000D02*
G75*
G03X88829050Y-114090000I-4579050J0D01*
G01*
X78000000Y-110620000D02*
X78000000Y-107900000D01*
X90300000Y-120200000D02*
X78000000Y-120200000D01*
X90300000Y-112480000D02*
X90300000Y-115620000D01*
X78000000Y-107900000D02*
X90300000Y-107900000D01*
X156700000Y-95050000D02*
X156700000Y-97770000D01*
X156700000Y-104630000D02*
X156700000Y-107350000D01*
X144400000Y-102770000D02*
X144400000Y-99630000D01*
X144400000Y-107350000D02*
X144400000Y-104630000D01*
X155229050Y-101240000D02*
G75*
G03X155229050Y-101240000I-4579050J0D01*
G01*
X144400000Y-97770000D02*
X144400000Y-95050000D01*
X156700000Y-107350000D02*
X144400000Y-107350000D01*
X156700000Y-99630000D02*
X156700000Y-102770000D01*
X144400000Y-95050000D02*
X156700000Y-95050000D01*
X90300000Y-133700000D02*
X90300000Y-136420000D01*
X90300000Y-143280000D02*
X90300000Y-146000000D01*
X78000000Y-141420000D02*
X78000000Y-138280000D01*
X78000000Y-146000000D02*
X78000000Y-143280000D01*
X88829050Y-139890000D02*
G75*
G03X88829050Y-139890000I-4579050J0D01*
G01*
X78000000Y-136420000D02*
X78000000Y-133700000D01*
X90300000Y-146000000D02*
X78000000Y-146000000D01*
X90300000Y-138280000D02*
X90300000Y-141420000D01*
X78000000Y-133700000D02*
X90300000Y-133700000D01*
X106550000Y-107900000D02*
X106550000Y-110620000D01*
X106550000Y-117480000D02*
X106550000Y-120200000D01*
X94250000Y-115620000D02*
X94250000Y-112480000D01*
X94250000Y-120200000D02*
X94250000Y-117480000D01*
X105079050Y-114090000D02*
G75*
G03X105079050Y-114090000I-4579050J0D01*
G01*
X94250000Y-110620000D02*
X94250000Y-107900000D01*
X106550000Y-120200000D02*
X94250000Y-120200000D01*
X106550000Y-112480000D02*
X106550000Y-115620000D01*
X94250000Y-107900000D02*
X106550000Y-107900000D01*
X156700000Y-107900000D02*
X156700000Y-110620000D01*
X156700000Y-117480000D02*
X156700000Y-120200000D01*
X144400000Y-115620000D02*
X144400000Y-112480000D01*
X144400000Y-120200000D02*
X144400000Y-117480000D01*
X155229050Y-114090000D02*
G75*
G03X155229050Y-114090000I-4579050J0D01*
G01*
X144400000Y-110620000D02*
X144400000Y-107900000D01*
X156700000Y-120200000D02*
X144400000Y-120200000D01*
X156700000Y-112480000D02*
X156700000Y-115620000D01*
X144400000Y-107900000D02*
X156700000Y-107900000D01*
X106550000Y-133700000D02*
X106550000Y-136420000D01*
X106550000Y-143280000D02*
X106550000Y-146000000D01*
X94250000Y-141420000D02*
X94250000Y-138280000D01*
X94250000Y-146000000D02*
X94250000Y-143280000D01*
X105079050Y-139890000D02*
G75*
G03X105079050Y-139890000I-4579050J0D01*
G01*
X94250000Y-136420000D02*
X94250000Y-133700000D01*
X106550000Y-146000000D02*
X94250000Y-146000000D01*
X106550000Y-138280000D02*
X106550000Y-141420000D01*
X94250000Y-133700000D02*
X106550000Y-133700000D01*
X122900000Y-107900000D02*
X122900000Y-110620000D01*
X122900000Y-117480000D02*
X122900000Y-120200000D01*
X110600000Y-115620000D02*
X110600000Y-112480000D01*
X110600000Y-120200000D02*
X110600000Y-117480000D01*
X121429050Y-114090000D02*
G75*
G03X121429050Y-114090000I-4579050J0D01*
G01*
X110600000Y-110620000D02*
X110600000Y-107900000D01*
X122900000Y-120200000D02*
X110600000Y-120200000D01*
X122900000Y-112480000D02*
X122900000Y-115620000D01*
X110600000Y-107900000D02*
X122900000Y-107900000D01*
X156700000Y-120800000D02*
X156700000Y-123520000D01*
X156700000Y-130380000D02*
X156700000Y-133100000D01*
X144400000Y-128520000D02*
X144400000Y-125380000D01*
X144400000Y-133100000D02*
X144400000Y-130380000D01*
X155229050Y-126990000D02*
G75*
G03X155229050Y-126990000I-4579050J0D01*
G01*
X144400000Y-123520000D02*
X144400000Y-120800000D01*
X156700000Y-133100000D02*
X144400000Y-133100000D01*
X156700000Y-125380000D02*
X156700000Y-128520000D01*
X144400000Y-120800000D02*
X156700000Y-120800000D01*
X122900000Y-133700000D02*
X122900000Y-136420000D01*
X122900000Y-143280000D02*
X122900000Y-146000000D01*
X110600000Y-141420000D02*
X110600000Y-138280000D01*
X110600000Y-146000000D02*
X110600000Y-143280000D01*
X121429050Y-139890000D02*
G75*
G03X121429050Y-139890000I-4579050J0D01*
G01*
X110600000Y-136420000D02*
X110600000Y-133700000D01*
X122900000Y-146000000D02*
X110600000Y-146000000D01*
X122900000Y-138280000D02*
X122900000Y-141420000D01*
X110600000Y-133700000D02*
X122900000Y-133700000D01*
X139200000Y-107900000D02*
X139200000Y-110620000D01*
X139200000Y-117480000D02*
X139200000Y-120200000D01*
X126900000Y-115620000D02*
X126900000Y-112480000D01*
X126900000Y-120200000D02*
X126900000Y-117480000D01*
X137729050Y-114090000D02*
G75*
G03X137729050Y-114090000I-4579050J0D01*
G01*
X126900000Y-110620000D02*
X126900000Y-107900000D01*
X139200000Y-120200000D02*
X126900000Y-120200000D01*
X139200000Y-112480000D02*
X139200000Y-115620000D01*
X126900000Y-107900000D02*
X139200000Y-107900000D01*
X156700000Y-133700000D02*
X156700000Y-136420000D01*
X156700000Y-143280000D02*
X156700000Y-146000000D01*
X144400000Y-141420000D02*
X144400000Y-138280000D01*
X144400000Y-146000000D02*
X144400000Y-143280000D01*
X155229050Y-139890000D02*
G75*
G03X155229050Y-139890000I-4579050J0D01*
G01*
X144400000Y-136420000D02*
X144400000Y-133700000D01*
X156700000Y-146000000D02*
X144400000Y-146000000D01*
X156700000Y-138280000D02*
X156700000Y-141420000D01*
X144400000Y-133700000D02*
X156700000Y-133700000D01*
X139200000Y-133700000D02*
X139200000Y-136420000D01*
X139200000Y-143280000D02*
X139200000Y-146000000D01*
X126900000Y-141420000D02*
X126900000Y-138280000D01*
X126900000Y-146000000D02*
X126900000Y-143280000D01*
X137729050Y-139890000D02*
G75*
G03X137729050Y-139890000I-4579050J0D01*
G01*
X126900000Y-136420000D02*
X126900000Y-133700000D01*
X139200000Y-146000000D02*
X126900000Y-146000000D01*
X139200000Y-138280000D02*
X139200000Y-141420000D01*
X126900000Y-133700000D02*
X139200000Y-133700000D01*
X90300000Y-95050000D02*
X90300000Y-97770000D01*
X90300000Y-104630000D02*
X90300000Y-107350000D01*
X78000000Y-102770000D02*
X78000000Y-99630000D01*
X78000000Y-107350000D02*
X78000000Y-104630000D01*
X88829050Y-101240000D02*
G75*
G03X88829050Y-101240000I-4579050J0D01*
G01*
X78000000Y-97770000D02*
X78000000Y-95050000D01*
X90300000Y-107350000D02*
X78000000Y-107350000D01*
X90300000Y-99630000D02*
X90300000Y-102770000D01*
X78000000Y-95050000D02*
X90300000Y-95050000D01*
X172900000Y-95050000D02*
X172900000Y-97770000D01*
X172900000Y-104630000D02*
X172900000Y-107350000D01*
X160600000Y-102770000D02*
X160600000Y-99630000D01*
X160600000Y-107350000D02*
X160600000Y-104630000D01*
X171429050Y-101240000D02*
G75*
G03X171429050Y-101240000I-4579050J0D01*
G01*
X160600000Y-97770000D02*
X160600000Y-95050000D01*
X172900000Y-107350000D02*
X160600000Y-107350000D01*
X172900000Y-99630000D02*
X172900000Y-102770000D01*
X160600000Y-95050000D02*
X172900000Y-95050000D01*
X106600000Y-95050000D02*
X106600000Y-97770000D01*
X106600000Y-104630000D02*
X106600000Y-107350000D01*
X94300000Y-102770000D02*
X94300000Y-99630000D01*
X94300000Y-107350000D02*
X94300000Y-104630000D01*
X105129050Y-101240000D02*
G75*
G03X105129050Y-101240000I-4579050J0D01*
G01*
X94300000Y-97770000D02*
X94300000Y-95050000D01*
X106600000Y-107350000D02*
X94300000Y-107350000D01*
X106600000Y-99630000D02*
X106600000Y-102770000D01*
X94300000Y-95050000D02*
X106600000Y-95050000D01*
X172900000Y-107900000D02*
X172900000Y-110620000D01*
X172900000Y-117480000D02*
X172900000Y-120200000D01*
X160600000Y-115620000D02*
X160600000Y-112480000D01*
X160600000Y-120200000D02*
X160600000Y-117480000D01*
X171429050Y-114090000D02*
G75*
G03X171429050Y-114090000I-4579050J0D01*
G01*
X160600000Y-110620000D02*
X160600000Y-107900000D01*
X172900000Y-120200000D02*
X160600000Y-120200000D01*
X172900000Y-112480000D02*
X172900000Y-115620000D01*
X160600000Y-107900000D02*
X172900000Y-107900000D01*
X106550000Y-120800000D02*
X106550000Y-123520000D01*
X106550000Y-130380000D02*
X106550000Y-133100000D01*
X94250000Y-128520000D02*
X94250000Y-125380000D01*
X94250000Y-133100000D02*
X94250000Y-130380000D01*
X105079050Y-126990000D02*
G75*
G03X105079050Y-126990000I-4579050J0D01*
G01*
X94250000Y-123520000D02*
X94250000Y-120800000D01*
X106550000Y-133100000D02*
X94250000Y-133100000D01*
X106550000Y-125380000D02*
X106550000Y-128520000D01*
X94250000Y-120800000D02*
X106550000Y-120800000D01*
X122950000Y-95050000D02*
X122950000Y-97770000D01*
X122950000Y-104630000D02*
X122950000Y-107350000D01*
X110650000Y-102770000D02*
X110650000Y-99630000D01*
X110650000Y-107350000D02*
X110650000Y-104630000D01*
X121479050Y-101240000D02*
G75*
G03X121479050Y-101240000I-4579050J0D01*
G01*
X110650000Y-97770000D02*
X110650000Y-95050000D01*
X122950000Y-107350000D02*
X110650000Y-107350000D01*
X122950000Y-99630000D02*
X122950000Y-102770000D01*
X110650000Y-95050000D02*
X122950000Y-95050000D01*
X172900000Y-120800000D02*
X172900000Y-123520000D01*
X172900000Y-130380000D02*
X172900000Y-133100000D01*
X160600000Y-128520000D02*
X160600000Y-125380000D01*
X160600000Y-133100000D02*
X160600000Y-130380000D01*
X171429050Y-126990000D02*
G75*
G03X171429050Y-126990000I-4579050J0D01*
G01*
X160600000Y-123520000D02*
X160600000Y-120800000D01*
X172900000Y-133100000D02*
X160600000Y-133100000D01*
X172900000Y-125380000D02*
X172900000Y-128520000D01*
X160600000Y-120800000D02*
X172900000Y-120800000D01*
X122900000Y-120800000D02*
X122900000Y-123520000D01*
X122900000Y-130380000D02*
X122900000Y-133100000D01*
X110600000Y-128520000D02*
X110600000Y-125380000D01*
X110600000Y-133100000D02*
X110600000Y-130380000D01*
X121429050Y-126990000D02*
G75*
G03X121429050Y-126990000I-4579050J0D01*
G01*
X110600000Y-123520000D02*
X110600000Y-120800000D01*
X122900000Y-133100000D02*
X110600000Y-133100000D01*
X122900000Y-125380000D02*
X122900000Y-128520000D01*
X110600000Y-120800000D02*
X122900000Y-120800000D01*
X139200000Y-95050000D02*
X139200000Y-97770000D01*
X139200000Y-104630000D02*
X139200000Y-107350000D01*
X126900000Y-102770000D02*
X126900000Y-99630000D01*
X126900000Y-107350000D02*
X126900000Y-104630000D01*
X137729050Y-101240000D02*
G75*
G03X137729050Y-101240000I-4579050J0D01*
G01*
X126900000Y-97770000D02*
X126900000Y-95050000D01*
X139200000Y-107350000D02*
X126900000Y-107350000D01*
X139200000Y-99630000D02*
X139200000Y-102770000D01*
X126900000Y-95050000D02*
X139200000Y-95050000D01*
X172900000Y-133700000D02*
X172900000Y-136420000D01*
X172900000Y-143280000D02*
X172900000Y-146000000D01*
X160600000Y-141420000D02*
X160600000Y-138280000D01*
X160600000Y-146000000D02*
X160600000Y-143280000D01*
X171429050Y-139890000D02*
G75*
G03X171429050Y-139890000I-4579050J0D01*
G01*
X160600000Y-136420000D02*
X160600000Y-133700000D01*
X172900000Y-146000000D02*
X160600000Y-146000000D01*
X172900000Y-138280000D02*
X172900000Y-141420000D01*
X160600000Y-133700000D02*
X172900000Y-133700000D01*
X139200000Y-120800000D02*
X139200000Y-123520000D01*
X139200000Y-130380000D02*
X139200000Y-133100000D01*
X126900000Y-128520000D02*
X126900000Y-125380000D01*
X126900000Y-133100000D02*
X126900000Y-130380000D01*
X137729050Y-126990000D02*
G75*
G03X137729050Y-126990000I-4579050J0D01*
G01*
X126900000Y-123520000D02*
X126900000Y-120800000D01*
X139200000Y-133100000D02*
X126900000Y-133100000D01*
X139200000Y-125380000D02*
X139200000Y-128520000D01*
X126900000Y-120800000D02*
X139200000Y-120800000D01*
X112750000Y-62500000D02*
X111640000Y-62500000D01*
X100390000Y-62500000D02*
X101500000Y-62500000D01*
X111640000Y-60580000D02*
X101500000Y-60580000D01*
X111640000Y-64420000D02*
X111640000Y-60580000D01*
X101500000Y-64420000D02*
X111640000Y-64420000D01*
X101500000Y-60580000D02*
X101500000Y-64420000D01*
X94450000Y-66750000D02*
X93340000Y-66750000D01*
X82090000Y-66750000D02*
X83200000Y-66750000D01*
X93340000Y-64830000D02*
X83200000Y-64830000D01*
X93340000Y-68670000D02*
X93340000Y-64830000D01*
X83200000Y-68670000D02*
X93340000Y-68670000D01*
X83200000Y-64830000D02*
X83200000Y-68670000D01*
X94450000Y-62500000D02*
X93340000Y-62500000D01*
X82090000Y-62500000D02*
X83200000Y-62500000D01*
X93340000Y-60580000D02*
X83200000Y-60580000D01*
X93340000Y-64420000D02*
X93340000Y-60580000D01*
X83200000Y-64420000D02*
X93340000Y-64420000D01*
X83200000Y-60580000D02*
X83200000Y-64420000D01*
X112750000Y-58250000D02*
X111640000Y-58250000D01*
X100390000Y-58250000D02*
X101500000Y-58250000D01*
X111640000Y-56330000D02*
X101500000Y-56330000D01*
X111640000Y-60170000D02*
X111640000Y-56330000D01*
X101500000Y-60170000D02*
X111640000Y-60170000D01*
X101500000Y-56330000D02*
X101500000Y-60170000D01*
X118800000Y-62500000D02*
X119910000Y-62500000D01*
X131160000Y-62500000D02*
X130050000Y-62500000D01*
X119910000Y-64420000D02*
X130050000Y-64420000D01*
X119910000Y-60580000D02*
X119910000Y-64420000D01*
X130050000Y-60580000D02*
X119910000Y-60580000D01*
X130050000Y-64420000D02*
X130050000Y-60580000D01*
X131150000Y-66750000D02*
X130040000Y-66750000D01*
X118790000Y-66750000D02*
X119900000Y-66750000D01*
X130040000Y-64830000D02*
X119900000Y-64830000D01*
X130040000Y-68670000D02*
X130040000Y-64830000D01*
X119900000Y-68670000D02*
X130040000Y-68670000D01*
X119900000Y-64830000D02*
X119900000Y-68670000D01*
X149600000Y-58350000D02*
X150710000Y-58350000D01*
X161960000Y-58350000D02*
X160850000Y-58350000D01*
X150710000Y-60270000D02*
X160850000Y-60270000D01*
X150710000Y-56430000D02*
X150710000Y-60270000D01*
X160850000Y-56430000D02*
X150710000Y-56430000D01*
X160850000Y-60270000D02*
X160850000Y-56430000D01*
X131150000Y-58250000D02*
X130040000Y-58250000D01*
X118790000Y-58250000D02*
X119900000Y-58250000D01*
X130040000Y-56330000D02*
X119900000Y-56330000D01*
X130040000Y-60170000D02*
X130040000Y-56330000D01*
X119900000Y-60170000D02*
X130040000Y-60170000D01*
X119900000Y-56330000D02*
X119900000Y-60170000D01*
X100400000Y-66750000D02*
X101510000Y-66750000D01*
X112760000Y-66750000D02*
X111650000Y-66750000D01*
X101510000Y-68670000D02*
X111650000Y-68670000D01*
X101510000Y-64830000D02*
X101510000Y-68670000D01*
X111650000Y-64830000D02*
X101510000Y-64830000D01*
X111650000Y-68670000D02*
X111650000Y-64830000D01*
X149600000Y-62650000D02*
X150710000Y-62650000D01*
X161960000Y-62650000D02*
X160850000Y-62650000D01*
X150710000Y-64570000D02*
X160850000Y-64570000D01*
X150710000Y-60730000D02*
X150710000Y-64570000D01*
X160850000Y-60730000D02*
X150710000Y-60730000D01*
X160850000Y-64570000D02*
X160850000Y-60730000D01*
X94450000Y-58250000D02*
X93340000Y-58250000D01*
X82090000Y-58250000D02*
X83200000Y-58250000D01*
X93340000Y-56330000D02*
X83200000Y-56330000D01*
X93340000Y-60170000D02*
X93340000Y-56330000D01*
X83200000Y-60170000D02*
X93340000Y-60170000D01*
X83200000Y-56330000D02*
X83200000Y-60170000D01*
X149600000Y-66900000D02*
X150710000Y-66900000D01*
X161960000Y-66900000D02*
X160850000Y-66900000D01*
X150710000Y-68820000D02*
X160850000Y-68820000D01*
X150710000Y-64980000D02*
X150710000Y-68820000D01*
X160850000Y-64980000D02*
X150710000Y-64980000D01*
X160850000Y-68820000D02*
X160850000Y-64980000D01*
D12*
X76351160Y-94400360D02*
X75850780Y-94400360D01*
X75350400Y-73399640D02*
X75850780Y-73399640D01*
X76849000Y-75401160D02*
X76351160Y-75401160D01*
X76351160Y-92398840D02*
X76849000Y-92398840D01*
X76849000Y-74900780D02*
X76849000Y-75401160D01*
X76849000Y-92899220D02*
X76849000Y-92398840D01*
X76351160Y-74900780D02*
X76351160Y-94400360D01*
X75850780Y-74900780D02*
X76351160Y-74900780D01*
X75850780Y-73399640D02*
X75850780Y-74900780D01*
X75350400Y-92899220D02*
X75350400Y-73399640D01*
X75850780Y-92899220D02*
X75350400Y-92899220D01*
X75850780Y-94400360D02*
X75850780Y-92899220D01*
X93849220Y-85898980D02*
X91850240Y-85898980D01*
X94349600Y-85401140D02*
X93849220Y-85898980D01*
X94349600Y-82398860D02*
X94349600Y-85401140D01*
X93849220Y-81901020D02*
X91850240Y-81901020D01*
X94349600Y-82398860D02*
X93849220Y-81901020D01*
X91850240Y-89399100D02*
X91850240Y-85898980D01*
X93849220Y-89399100D02*
X91850240Y-89399100D01*
X94349600Y-89899480D02*
X93849220Y-89399100D01*
X94349600Y-90399860D02*
X94349600Y-89899480D01*
X94349600Y-92398840D02*
X94349600Y-90399860D01*
X93849220Y-92899220D02*
X94349600Y-92398840D01*
X93849220Y-92899220D02*
X76849000Y-92899220D01*
X91850240Y-78400900D02*
X91850240Y-81901020D01*
X93849220Y-78400900D02*
X91850240Y-78400900D01*
X94349600Y-77900520D02*
X93849220Y-78400900D01*
X94349600Y-75401160D02*
X94349600Y-77900520D01*
X93849220Y-74900780D02*
X94349600Y-75401160D01*
X93849220Y-74900780D02*
X76849000Y-74900780D01*
X75599320Y-73399640D02*
X75599320Y-92899220D01*
X75850780Y-92899220D02*
X75850780Y-74900780D01*
X76099700Y-74900780D02*
X76099700Y-94400360D01*
D11*
X161620000Y-52570000D02*
X162950000Y-52570000D01*
X161620000Y-53900000D02*
X161620000Y-52570000D01*
X161620000Y-55170000D02*
X164280000Y-55170000D01*
X164280000Y-55170000D02*
X164280000Y-55230000D01*
X161620000Y-55170000D02*
X161620000Y-55230000D01*
X161620000Y-55230000D02*
X164280000Y-55230000D01*
X121680000Y-79180000D02*
X125420000Y-79180000D01*
X121680000Y-86420000D02*
X125420000Y-86420000D01*
X125420000Y-86420000D02*
X125420000Y-79180000D01*
X121680000Y-86420000D02*
X121680000Y-79180000D01*
X97880000Y-79180000D02*
X101620000Y-79180000D01*
X97880000Y-86420000D02*
X101620000Y-86420000D01*
X101620000Y-86420000D02*
X101620000Y-79180000D01*
X97880000Y-86420000D02*
X97880000Y-79180000D01*
X117720000Y-93020000D02*
X113980000Y-93020000D01*
X117720000Y-85780000D02*
X113980000Y-85780000D01*
X113980000Y-85780000D02*
X113980000Y-93020000D01*
X117720000Y-85780000D02*
X117720000Y-93020000D01*
X109720000Y-74080000D02*
X109720000Y-77820000D01*
X102480000Y-74080000D02*
X102480000Y-77820000D01*
X102480000Y-77820000D02*
X109720000Y-77820000D01*
X102480000Y-74080000D02*
X109720000Y-74080000D01*
X101585241Y-92854000D02*
X101585241Y-92224000D01*
X101900241Y-92539000D02*
X101270241Y-92539000D01*
X95159000Y-91102000D02*
X95159000Y-90298000D01*
X95199000Y-91333000D02*
X95199000Y-90067000D01*
X95239000Y-91502000D02*
X95239000Y-89898000D01*
X95279000Y-91640000D02*
X95279000Y-89760000D01*
X95319000Y-91759000D02*
X95319000Y-89641000D01*
X95359000Y-91865000D02*
X95359000Y-89535000D01*
X95399000Y-91962000D02*
X95399000Y-89438000D01*
X95439000Y-92050000D02*
X95439000Y-89350000D01*
X95479000Y-92132000D02*
X95479000Y-89268000D01*
X95519000Y-92209000D02*
X95519000Y-89191000D01*
X95559000Y-92281000D02*
X95559000Y-89119000D01*
X95599000Y-92350000D02*
X95599000Y-89050000D01*
X95639000Y-92414000D02*
X95639000Y-88986000D01*
X95679000Y-92476000D02*
X95679000Y-88924000D01*
X95719000Y-92534000D02*
X95719000Y-88866000D01*
X95759000Y-92590000D02*
X95759000Y-88810000D01*
X95799000Y-92644000D02*
X95799000Y-88756000D01*
X95839000Y-92695000D02*
X95839000Y-88705000D01*
X95879000Y-92744000D02*
X95879000Y-88656000D01*
X95919000Y-92792000D02*
X95919000Y-88608000D01*
X95959000Y-92837000D02*
X95959000Y-88563000D01*
X95999000Y-92882000D02*
X95999000Y-88518000D01*
X96039000Y-92924000D02*
X96039000Y-88476000D01*
X96079000Y-92965000D02*
X96079000Y-88435000D01*
X96119000Y-89660000D02*
X96119000Y-88395000D01*
X96119000Y-93005000D02*
X96119000Y-91740000D01*
X96159000Y-89660000D02*
X96159000Y-88357000D01*
X96159000Y-93043000D02*
X96159000Y-91740000D01*
X96199000Y-89660000D02*
X96199000Y-88320000D01*
X96199000Y-93080000D02*
X96199000Y-91740000D01*
X96239000Y-89660000D02*
X96239000Y-88284000D01*
X96239000Y-93116000D02*
X96239000Y-91740000D01*
X96279000Y-89660000D02*
X96279000Y-88250000D01*
X96279000Y-93150000D02*
X96279000Y-91740000D01*
X96319000Y-89660000D02*
X96319000Y-88216000D01*
X96319000Y-93184000D02*
X96319000Y-91740000D01*
X96359000Y-89660000D02*
X96359000Y-88184000D01*
X96359000Y-93216000D02*
X96359000Y-91740000D01*
X96399000Y-89660000D02*
X96399000Y-88152000D01*
X96399000Y-93248000D02*
X96399000Y-91740000D01*
X96439000Y-89660000D02*
X96439000Y-88122000D01*
X96439000Y-93278000D02*
X96439000Y-91740000D01*
X96479000Y-89660000D02*
X96479000Y-88093000D01*
X96479000Y-93307000D02*
X96479000Y-91740000D01*
X96519000Y-89660000D02*
X96519000Y-88064000D01*
X96519000Y-93336000D02*
X96519000Y-91740000D01*
X96559000Y-89660000D02*
X96559000Y-88036000D01*
X96559000Y-93364000D02*
X96559000Y-91740000D01*
X96599000Y-89660000D02*
X96599000Y-88010000D01*
X96599000Y-93390000D02*
X96599000Y-91740000D01*
X96639000Y-89660000D02*
X96639000Y-87984000D01*
X96639000Y-93416000D02*
X96639000Y-91740000D01*
X96679000Y-89660000D02*
X96679000Y-87958000D01*
X96679000Y-93442000D02*
X96679000Y-91740000D01*
X96719000Y-89660000D02*
X96719000Y-87934000D01*
X96719000Y-93466000D02*
X96719000Y-91740000D01*
X96759000Y-89660000D02*
X96759000Y-87910000D01*
X96759000Y-93490000D02*
X96759000Y-91740000D01*
X96799000Y-89660000D02*
X96799000Y-87888000D01*
X96799000Y-93512000D02*
X96799000Y-91740000D01*
X96839000Y-89660000D02*
X96839000Y-87866000D01*
X96839000Y-93534000D02*
X96839000Y-91740000D01*
X96879000Y-89660000D02*
X96879000Y-87844000D01*
X96879000Y-93556000D02*
X96879000Y-91740000D01*
X96919000Y-89660000D02*
X96919000Y-87824000D01*
X96919000Y-93576000D02*
X96919000Y-91740000D01*
X96959000Y-89660000D02*
X96959000Y-87804000D01*
X96959000Y-93596000D02*
X96959000Y-91740000D01*
X96999000Y-89660000D02*
X96999000Y-87784000D01*
X96999000Y-93616000D02*
X96999000Y-91740000D01*
X97039000Y-89660000D02*
X97039000Y-87766000D01*
X97039000Y-93634000D02*
X97039000Y-91740000D01*
X97079000Y-89660000D02*
X97079000Y-87748000D01*
X97079000Y-93652000D02*
X97079000Y-91740000D01*
X97119000Y-89660000D02*
X97119000Y-87730000D01*
X97119000Y-93670000D02*
X97119000Y-91740000D01*
X97159000Y-89660000D02*
X97159000Y-87714000D01*
X97159000Y-93686000D02*
X97159000Y-91740000D01*
X97199000Y-89660000D02*
X97199000Y-87698000D01*
X97199000Y-93702000D02*
X97199000Y-91740000D01*
X97239000Y-89660000D02*
X97239000Y-87682000D01*
X97239000Y-93718000D02*
X97239000Y-91740000D01*
X97279000Y-89660000D02*
X97279000Y-87667000D01*
X97279000Y-93733000D02*
X97279000Y-91740000D01*
X97319000Y-89660000D02*
X97319000Y-87653000D01*
X97319000Y-93747000D02*
X97319000Y-91740000D01*
X97359000Y-89660000D02*
X97359000Y-87639000D01*
X97359000Y-93761000D02*
X97359000Y-91740000D01*
X97399000Y-89660000D02*
X97399000Y-87626000D01*
X97399000Y-93774000D02*
X97399000Y-91740000D01*
X97439000Y-89660000D02*
X97439000Y-87614000D01*
X97439000Y-93786000D02*
X97439000Y-91740000D01*
X97479000Y-89660000D02*
X97479000Y-87602000D01*
X97479000Y-93798000D02*
X97479000Y-91740000D01*
X97519000Y-89660000D02*
X97519000Y-87590000D01*
X97519000Y-93810000D02*
X97519000Y-91740000D01*
X97559000Y-89660000D02*
X97559000Y-87579000D01*
X97559000Y-93821000D02*
X97559000Y-91740000D01*
X97599000Y-89660000D02*
X97599000Y-87569000D01*
X97599000Y-93831000D02*
X97599000Y-91740000D01*
X97639000Y-89660000D02*
X97639000Y-87559000D01*
X97639000Y-93841000D02*
X97639000Y-91740000D01*
X97679000Y-89660000D02*
X97679000Y-87550000D01*
X97679000Y-93850000D02*
X97679000Y-91740000D01*
X97720000Y-89660000D02*
X97720000Y-87541000D01*
X97720000Y-93859000D02*
X97720000Y-91740000D01*
X97760000Y-89660000D02*
X97760000Y-87533000D01*
X97760000Y-93867000D02*
X97760000Y-91740000D01*
X97800000Y-89660000D02*
X97800000Y-87525000D01*
X97800000Y-93875000D02*
X97800000Y-91740000D01*
X97840000Y-89660000D02*
X97840000Y-87518000D01*
X97840000Y-93882000D02*
X97840000Y-91740000D01*
X97880000Y-89660000D02*
X97880000Y-87511000D01*
X97880000Y-93889000D02*
X97880000Y-91740000D01*
X97920000Y-89660000D02*
X97920000Y-87505000D01*
X97920000Y-93895000D02*
X97920000Y-91740000D01*
X97960000Y-89660000D02*
X97960000Y-87499000D01*
X97960000Y-93901000D02*
X97960000Y-91740000D01*
X98000000Y-89660000D02*
X98000000Y-87494000D01*
X98000000Y-93906000D02*
X98000000Y-91740000D01*
X98040000Y-89660000D02*
X98040000Y-87489000D01*
X98040000Y-93911000D02*
X98040000Y-91740000D01*
X98080000Y-89660000D02*
X98080000Y-87485000D01*
X98080000Y-93915000D02*
X98080000Y-91740000D01*
X98120000Y-89660000D02*
X98120000Y-87482000D01*
X98120000Y-93918000D02*
X98120000Y-91740000D01*
X98160000Y-89660000D02*
X98160000Y-87478000D01*
X98160000Y-93922000D02*
X98160000Y-91740000D01*
X98200000Y-93924000D02*
X98200000Y-87476000D01*
X98240000Y-93927000D02*
X98240000Y-87473000D01*
X98280000Y-93928000D02*
X98280000Y-87472000D01*
X98320000Y-93930000D02*
X98320000Y-87470000D01*
X98360000Y-93930000D02*
X98360000Y-87470000D01*
X98400000Y-93930000D02*
X98400000Y-87470000D01*
X101670000Y-90700000D02*
G75*
G03X101670000Y-90700000I-3270000J0D01*
G01*
X112170000Y-90030000D02*
X112170000Y-93770000D01*
X104930000Y-90030000D02*
X104930000Y-93770000D01*
X104930000Y-93770000D02*
X112170000Y-93770000D01*
X104930000Y-90030000D02*
X112170000Y-90030000D01*
D10*
X155907142Y-78652380D02*
X155573809Y-78176190D01*
X155335714Y-78652380D02*
X155335714Y-77652380D01*
X155716666Y-77652380D01*
X155811904Y-77700000D01*
X155859523Y-77747619D01*
X155907142Y-77842857D01*
X155907142Y-77985714D01*
X155859523Y-78080952D01*
X155811904Y-78128571D01*
X155716666Y-78176190D01*
X155335714Y-78176190D01*
X156859523Y-78652380D02*
X156288095Y-78652380D01*
X156573809Y-78652380D02*
X156573809Y-77652380D01*
X156478571Y-77795238D01*
X156383333Y-77890476D01*
X156288095Y-77938095D01*
X157192857Y-77652380D02*
X157811904Y-77652380D01*
X157478571Y-78033333D01*
X157621428Y-78033333D01*
X157716666Y-78080952D01*
X157764285Y-78128571D01*
X157811904Y-78223809D01*
X157811904Y-78461904D01*
X157764285Y-78557142D01*
X157716666Y-78604761D01*
X157621428Y-78652380D01*
X157335714Y-78652380D01*
X157240476Y-78604761D01*
X157192857Y-78557142D01*
X82440476Y-127504761D02*
X82583333Y-127552380D01*
X82821428Y-127552380D01*
X82916666Y-127504761D01*
X82964285Y-127457142D01*
X83011904Y-127361904D01*
X83011904Y-127266666D01*
X82964285Y-127171428D01*
X82916666Y-127123809D01*
X82821428Y-127076190D01*
X82630952Y-127028571D01*
X82535714Y-126980952D01*
X82488095Y-126933333D01*
X82440476Y-126838095D01*
X82440476Y-126742857D01*
X82488095Y-126647619D01*
X82535714Y-126600000D01*
X82630952Y-126552380D01*
X82869047Y-126552380D01*
X83011904Y-126600000D01*
X83345238Y-126552380D02*
X83583333Y-127552380D01*
X83773809Y-126838095D01*
X83964285Y-127552380D01*
X84202380Y-126552380D01*
X85107142Y-127552380D02*
X84535714Y-127552380D01*
X84821428Y-127552380D02*
X84821428Y-126552380D01*
X84726190Y-126695238D01*
X84630952Y-126790476D01*
X84535714Y-126838095D01*
X85726190Y-126552380D02*
X85821428Y-126552380D01*
X85916666Y-126600000D01*
X85964285Y-126647619D01*
X86011904Y-126742857D01*
X86059523Y-126933333D01*
X86059523Y-127171428D01*
X86011904Y-127361904D01*
X85964285Y-127457142D01*
X85916666Y-127504761D01*
X85821428Y-127552380D01*
X85726190Y-127552380D01*
X85630952Y-127504761D01*
X85583333Y-127457142D01*
X85535714Y-127361904D01*
X85488095Y-127171428D01*
X85488095Y-126933333D01*
X85535714Y-126742857D01*
X85583333Y-126647619D01*
X85630952Y-126600000D01*
X85726190Y-126552380D01*
X113038095Y-79502380D02*
X113038095Y-80311904D01*
X113085714Y-80407142D01*
X113133333Y-80454761D01*
X113228571Y-80502380D01*
X113419047Y-80502380D01*
X113514285Y-80454761D01*
X113561904Y-80407142D01*
X113609523Y-80311904D01*
X113609523Y-79502380D01*
X114514285Y-79835714D02*
X114514285Y-80502380D01*
X114276190Y-79454761D02*
X114038095Y-80169047D01*
X114657142Y-80169047D01*
X147538095Y-79552380D02*
X147538095Y-80361904D01*
X147585714Y-80457142D01*
X147633333Y-80504761D01*
X147728571Y-80552380D01*
X147919047Y-80552380D01*
X148014285Y-80504761D01*
X148061904Y-80457142D01*
X148109523Y-80361904D01*
X148109523Y-79552380D01*
X148490476Y-79552380D02*
X149109523Y-79552380D01*
X148776190Y-79933333D01*
X148919047Y-79933333D01*
X149014285Y-79980952D01*
X149061904Y-80028571D01*
X149109523Y-80123809D01*
X149109523Y-80361904D01*
X149061904Y-80457142D01*
X149014285Y-80504761D01*
X148919047Y-80552380D01*
X148633333Y-80552380D01*
X148538095Y-80504761D01*
X148490476Y-80457142D01*
X141388095Y-69752380D02*
X141388095Y-70561904D01*
X141435714Y-70657142D01*
X141483333Y-70704761D01*
X141578571Y-70752380D01*
X141769047Y-70752380D01*
X141864285Y-70704761D01*
X141911904Y-70657142D01*
X141959523Y-70561904D01*
X141959523Y-69752380D01*
X142388095Y-69847619D02*
X142435714Y-69800000D01*
X142530952Y-69752380D01*
X142769047Y-69752380D01*
X142864285Y-69800000D01*
X142911904Y-69847619D01*
X142959523Y-69942857D01*
X142959523Y-70038095D01*
X142911904Y-70180952D01*
X142340476Y-70752380D01*
X142959523Y-70752380D01*
X90588095Y-69652380D02*
X90588095Y-70461904D01*
X90635714Y-70557142D01*
X90683333Y-70604761D01*
X90778571Y-70652380D01*
X90969047Y-70652380D01*
X91064285Y-70604761D01*
X91111904Y-70557142D01*
X91159523Y-70461904D01*
X91159523Y-69652380D01*
X92159523Y-70652380D02*
X91588095Y-70652380D01*
X91873809Y-70652380D02*
X91873809Y-69652380D01*
X91778571Y-69795238D01*
X91683333Y-69890476D01*
X91588095Y-69938095D01*
X165040476Y-88954761D02*
X165183333Y-89002380D01*
X165421428Y-89002380D01*
X165516666Y-88954761D01*
X165564285Y-88907142D01*
X165611904Y-88811904D01*
X165611904Y-88716666D01*
X165564285Y-88621428D01*
X165516666Y-88573809D01*
X165421428Y-88526190D01*
X165230952Y-88478571D01*
X165135714Y-88430952D01*
X165088095Y-88383333D01*
X165040476Y-88288095D01*
X165040476Y-88192857D01*
X165088095Y-88097619D01*
X165135714Y-88050000D01*
X165230952Y-88002380D01*
X165469047Y-88002380D01*
X165611904Y-88050000D01*
X165945238Y-88002380D02*
X166183333Y-89002380D01*
X166373809Y-88288095D01*
X166564285Y-89002380D01*
X166802380Y-88002380D01*
X167135714Y-88097619D02*
X167183333Y-88050000D01*
X167278571Y-88002380D01*
X167516666Y-88002380D01*
X167611904Y-88050000D01*
X167659523Y-88097619D01*
X167707142Y-88192857D01*
X167707142Y-88288095D01*
X167659523Y-88430952D01*
X167088095Y-89002380D01*
X167707142Y-89002380D01*
X168611904Y-88002380D02*
X168135714Y-88002380D01*
X168088095Y-88478571D01*
X168135714Y-88430952D01*
X168230952Y-88383333D01*
X168469047Y-88383333D01*
X168564285Y-88430952D01*
X168611904Y-88478571D01*
X168659523Y-88573809D01*
X168659523Y-88811904D01*
X168611904Y-88907142D01*
X168564285Y-88954761D01*
X168469047Y-89002380D01*
X168230952Y-89002380D01*
X168135714Y-88954761D01*
X168088095Y-88907142D01*
X82390476Y-114454761D02*
X82533333Y-114502380D01*
X82771428Y-114502380D01*
X82866666Y-114454761D01*
X82914285Y-114407142D01*
X82961904Y-114311904D01*
X82961904Y-114216666D01*
X82914285Y-114121428D01*
X82866666Y-114073809D01*
X82771428Y-114026190D01*
X82580952Y-113978571D01*
X82485714Y-113930952D01*
X82438095Y-113883333D01*
X82390476Y-113788095D01*
X82390476Y-113692857D01*
X82438095Y-113597619D01*
X82485714Y-113550000D01*
X82580952Y-113502380D01*
X82819047Y-113502380D01*
X82961904Y-113550000D01*
X83295238Y-113502380D02*
X83533333Y-114502380D01*
X83723809Y-113788095D01*
X83914285Y-114502380D01*
X84152380Y-113502380D01*
X84485714Y-113597619D02*
X84533333Y-113550000D01*
X84628571Y-113502380D01*
X84866666Y-113502380D01*
X84961904Y-113550000D01*
X85009523Y-113597619D01*
X85057142Y-113692857D01*
X85057142Y-113788095D01*
X85009523Y-113930952D01*
X84438095Y-114502380D01*
X85057142Y-114502380D01*
X85914285Y-113835714D02*
X85914285Y-114502380D01*
X85676190Y-113454761D02*
X85438095Y-114169047D01*
X86057142Y-114169047D01*
X148890476Y-101654761D02*
X149033333Y-101702380D01*
X149271428Y-101702380D01*
X149366666Y-101654761D01*
X149414285Y-101607142D01*
X149461904Y-101511904D01*
X149461904Y-101416666D01*
X149414285Y-101321428D01*
X149366666Y-101273809D01*
X149271428Y-101226190D01*
X149080952Y-101178571D01*
X148985714Y-101130952D01*
X148938095Y-101083333D01*
X148890476Y-100988095D01*
X148890476Y-100892857D01*
X148938095Y-100797619D01*
X148985714Y-100750000D01*
X149080952Y-100702380D01*
X149319047Y-100702380D01*
X149461904Y-100750000D01*
X149795238Y-100702380D02*
X150033333Y-101702380D01*
X150223809Y-100988095D01*
X150414285Y-101702380D01*
X150652380Y-100702380D01*
X150985714Y-100797619D02*
X151033333Y-100750000D01*
X151128571Y-100702380D01*
X151366666Y-100702380D01*
X151461904Y-100750000D01*
X151509523Y-100797619D01*
X151557142Y-100892857D01*
X151557142Y-100988095D01*
X151509523Y-101130952D01*
X150938095Y-101702380D01*
X151557142Y-101702380D01*
X151890476Y-100702380D02*
X152509523Y-100702380D01*
X152176190Y-101083333D01*
X152319047Y-101083333D01*
X152414285Y-101130952D01*
X152461904Y-101178571D01*
X152509523Y-101273809D01*
X152509523Y-101511904D01*
X152461904Y-101607142D01*
X152414285Y-101654761D01*
X152319047Y-101702380D01*
X152033333Y-101702380D01*
X151938095Y-101654761D01*
X151890476Y-101607142D01*
X82540476Y-140254761D02*
X82683333Y-140302380D01*
X82921428Y-140302380D01*
X83016666Y-140254761D01*
X83064285Y-140207142D01*
X83111904Y-140111904D01*
X83111904Y-140016666D01*
X83064285Y-139921428D01*
X83016666Y-139873809D01*
X82921428Y-139826190D01*
X82730952Y-139778571D01*
X82635714Y-139730952D01*
X82588095Y-139683333D01*
X82540476Y-139588095D01*
X82540476Y-139492857D01*
X82588095Y-139397619D01*
X82635714Y-139350000D01*
X82730952Y-139302380D01*
X82969047Y-139302380D01*
X83111904Y-139350000D01*
X83445238Y-139302380D02*
X83683333Y-140302380D01*
X83873809Y-139588095D01*
X84064285Y-140302380D01*
X84302380Y-139302380D01*
X84635714Y-139397619D02*
X84683333Y-139350000D01*
X84778571Y-139302380D01*
X85016666Y-139302380D01*
X85111904Y-139350000D01*
X85159523Y-139397619D01*
X85207142Y-139492857D01*
X85207142Y-139588095D01*
X85159523Y-139730952D01*
X84588095Y-140302380D01*
X85207142Y-140302380D01*
X85588095Y-139397619D02*
X85635714Y-139350000D01*
X85730952Y-139302380D01*
X85969047Y-139302380D01*
X86064285Y-139350000D01*
X86111904Y-139397619D01*
X86159523Y-139492857D01*
X86159523Y-139588095D01*
X86111904Y-139730952D01*
X85540476Y-140302380D01*
X86159523Y-140302380D01*
X98590476Y-114454761D02*
X98733333Y-114502380D01*
X98971428Y-114502380D01*
X99066666Y-114454761D01*
X99114285Y-114407142D01*
X99161904Y-114311904D01*
X99161904Y-114216666D01*
X99114285Y-114121428D01*
X99066666Y-114073809D01*
X98971428Y-114026190D01*
X98780952Y-113978571D01*
X98685714Y-113930952D01*
X98638095Y-113883333D01*
X98590476Y-113788095D01*
X98590476Y-113692857D01*
X98638095Y-113597619D01*
X98685714Y-113550000D01*
X98780952Y-113502380D01*
X99019047Y-113502380D01*
X99161904Y-113550000D01*
X99495238Y-113502380D02*
X99733333Y-114502380D01*
X99923809Y-113788095D01*
X100114285Y-114502380D01*
X100352380Y-113502380D01*
X100685714Y-113597619D02*
X100733333Y-113550000D01*
X100828571Y-113502380D01*
X101066666Y-113502380D01*
X101161904Y-113550000D01*
X101209523Y-113597619D01*
X101257142Y-113692857D01*
X101257142Y-113788095D01*
X101209523Y-113930952D01*
X100638095Y-114502380D01*
X101257142Y-114502380D01*
X102209523Y-114502380D02*
X101638095Y-114502380D01*
X101923809Y-114502380D02*
X101923809Y-113502380D01*
X101828571Y-113645238D01*
X101733333Y-113740476D01*
X101638095Y-113788095D01*
X148840476Y-114554761D02*
X148983333Y-114602380D01*
X149221428Y-114602380D01*
X149316666Y-114554761D01*
X149364285Y-114507142D01*
X149411904Y-114411904D01*
X149411904Y-114316666D01*
X149364285Y-114221428D01*
X149316666Y-114173809D01*
X149221428Y-114126190D01*
X149030952Y-114078571D01*
X148935714Y-114030952D01*
X148888095Y-113983333D01*
X148840476Y-113888095D01*
X148840476Y-113792857D01*
X148888095Y-113697619D01*
X148935714Y-113650000D01*
X149030952Y-113602380D01*
X149269047Y-113602380D01*
X149411904Y-113650000D01*
X149745238Y-113602380D02*
X149983333Y-114602380D01*
X150173809Y-113888095D01*
X150364285Y-114602380D01*
X150602380Y-113602380D01*
X150935714Y-113697619D02*
X150983333Y-113650000D01*
X151078571Y-113602380D01*
X151316666Y-113602380D01*
X151411904Y-113650000D01*
X151459523Y-113697619D01*
X151507142Y-113792857D01*
X151507142Y-113888095D01*
X151459523Y-114030952D01*
X150888095Y-114602380D01*
X151507142Y-114602380D01*
X152126190Y-113602380D02*
X152221428Y-113602380D01*
X152316666Y-113650000D01*
X152364285Y-113697619D01*
X152411904Y-113792857D01*
X152459523Y-113983333D01*
X152459523Y-114221428D01*
X152411904Y-114411904D01*
X152364285Y-114507142D01*
X152316666Y-114554761D01*
X152221428Y-114602380D01*
X152126190Y-114602380D01*
X152030952Y-114554761D01*
X151983333Y-114507142D01*
X151935714Y-114411904D01*
X151888095Y-114221428D01*
X151888095Y-113983333D01*
X151935714Y-113792857D01*
X151983333Y-113697619D01*
X152030952Y-113650000D01*
X152126190Y-113602380D01*
X98640476Y-140204761D02*
X98783333Y-140252380D01*
X99021428Y-140252380D01*
X99116666Y-140204761D01*
X99164285Y-140157142D01*
X99211904Y-140061904D01*
X99211904Y-139966666D01*
X99164285Y-139871428D01*
X99116666Y-139823809D01*
X99021428Y-139776190D01*
X98830952Y-139728571D01*
X98735714Y-139680952D01*
X98688095Y-139633333D01*
X98640476Y-139538095D01*
X98640476Y-139442857D01*
X98688095Y-139347619D01*
X98735714Y-139300000D01*
X98830952Y-139252380D01*
X99069047Y-139252380D01*
X99211904Y-139300000D01*
X99545238Y-139252380D02*
X99783333Y-140252380D01*
X99973809Y-139538095D01*
X100164285Y-140252380D01*
X100402380Y-139252380D01*
X101307142Y-140252380D02*
X100735714Y-140252380D01*
X101021428Y-140252380D02*
X101021428Y-139252380D01*
X100926190Y-139395238D01*
X100830952Y-139490476D01*
X100735714Y-139538095D01*
X101783333Y-140252380D02*
X101973809Y-140252380D01*
X102069047Y-140204761D01*
X102116666Y-140157142D01*
X102211904Y-140014285D01*
X102259523Y-139823809D01*
X102259523Y-139442857D01*
X102211904Y-139347619D01*
X102164285Y-139300000D01*
X102069047Y-139252380D01*
X101878571Y-139252380D01*
X101783333Y-139300000D01*
X101735714Y-139347619D01*
X101688095Y-139442857D01*
X101688095Y-139680952D01*
X101735714Y-139776190D01*
X101783333Y-139823809D01*
X101878571Y-139871428D01*
X102069047Y-139871428D01*
X102164285Y-139823809D01*
X102211904Y-139776190D01*
X102259523Y-139680952D01*
X115040476Y-114554761D02*
X115183333Y-114602380D01*
X115421428Y-114602380D01*
X115516666Y-114554761D01*
X115564285Y-114507142D01*
X115611904Y-114411904D01*
X115611904Y-114316666D01*
X115564285Y-114221428D01*
X115516666Y-114173809D01*
X115421428Y-114126190D01*
X115230952Y-114078571D01*
X115135714Y-114030952D01*
X115088095Y-113983333D01*
X115040476Y-113888095D01*
X115040476Y-113792857D01*
X115088095Y-113697619D01*
X115135714Y-113650000D01*
X115230952Y-113602380D01*
X115469047Y-113602380D01*
X115611904Y-113650000D01*
X115945238Y-113602380D02*
X116183333Y-114602380D01*
X116373809Y-113888095D01*
X116564285Y-114602380D01*
X116802380Y-113602380D01*
X117707142Y-114602380D02*
X117135714Y-114602380D01*
X117421428Y-114602380D02*
X117421428Y-113602380D01*
X117326190Y-113745238D01*
X117230952Y-113840476D01*
X117135714Y-113888095D01*
X118278571Y-114030952D02*
X118183333Y-113983333D01*
X118135714Y-113935714D01*
X118088095Y-113840476D01*
X118088095Y-113792857D01*
X118135714Y-113697619D01*
X118183333Y-113650000D01*
X118278571Y-113602380D01*
X118469047Y-113602380D01*
X118564285Y-113650000D01*
X118611904Y-113697619D01*
X118659523Y-113792857D01*
X118659523Y-113840476D01*
X118611904Y-113935714D01*
X118564285Y-113983333D01*
X118469047Y-114030952D01*
X118278571Y-114030952D01*
X118183333Y-114078571D01*
X118135714Y-114126190D01*
X118088095Y-114221428D01*
X118088095Y-114411904D01*
X118135714Y-114507142D01*
X118183333Y-114554761D01*
X118278571Y-114602380D01*
X118469047Y-114602380D01*
X118564285Y-114554761D01*
X118611904Y-114507142D01*
X118659523Y-114411904D01*
X118659523Y-114221428D01*
X118611904Y-114126190D01*
X118564285Y-114078571D01*
X118469047Y-114030952D01*
X148840476Y-127404761D02*
X148983333Y-127452380D01*
X149221428Y-127452380D01*
X149316666Y-127404761D01*
X149364285Y-127357142D01*
X149411904Y-127261904D01*
X149411904Y-127166666D01*
X149364285Y-127071428D01*
X149316666Y-127023809D01*
X149221428Y-126976190D01*
X149030952Y-126928571D01*
X148935714Y-126880952D01*
X148888095Y-126833333D01*
X148840476Y-126738095D01*
X148840476Y-126642857D01*
X148888095Y-126547619D01*
X148935714Y-126500000D01*
X149030952Y-126452380D01*
X149269047Y-126452380D01*
X149411904Y-126500000D01*
X149745238Y-126452380D02*
X149983333Y-127452380D01*
X150173809Y-126738095D01*
X150364285Y-127452380D01*
X150602380Y-126452380D01*
X151507142Y-127452380D02*
X150935714Y-127452380D01*
X151221428Y-127452380D02*
X151221428Y-126452380D01*
X151126190Y-126595238D01*
X151030952Y-126690476D01*
X150935714Y-126738095D01*
X151840476Y-126452380D02*
X152507142Y-126452380D01*
X152078571Y-127452380D01*
X115090476Y-140354761D02*
X115233333Y-140402380D01*
X115471428Y-140402380D01*
X115566666Y-140354761D01*
X115614285Y-140307142D01*
X115661904Y-140211904D01*
X115661904Y-140116666D01*
X115614285Y-140021428D01*
X115566666Y-139973809D01*
X115471428Y-139926190D01*
X115280952Y-139878571D01*
X115185714Y-139830952D01*
X115138095Y-139783333D01*
X115090476Y-139688095D01*
X115090476Y-139592857D01*
X115138095Y-139497619D01*
X115185714Y-139450000D01*
X115280952Y-139402380D01*
X115519047Y-139402380D01*
X115661904Y-139450000D01*
X115995238Y-139402380D02*
X116233333Y-140402380D01*
X116423809Y-139688095D01*
X116614285Y-140402380D01*
X116852380Y-139402380D01*
X117757142Y-140402380D02*
X117185714Y-140402380D01*
X117471428Y-140402380D02*
X117471428Y-139402380D01*
X117376190Y-139545238D01*
X117280952Y-139640476D01*
X117185714Y-139688095D01*
X118614285Y-139402380D02*
X118423809Y-139402380D01*
X118328571Y-139450000D01*
X118280952Y-139497619D01*
X118185714Y-139640476D01*
X118138095Y-139830952D01*
X118138095Y-140211904D01*
X118185714Y-140307142D01*
X118233333Y-140354761D01*
X118328571Y-140402380D01*
X118519047Y-140402380D01*
X118614285Y-140354761D01*
X118661904Y-140307142D01*
X118709523Y-140211904D01*
X118709523Y-139973809D01*
X118661904Y-139878571D01*
X118614285Y-139830952D01*
X118519047Y-139783333D01*
X118328571Y-139783333D01*
X118233333Y-139830952D01*
X118185714Y-139878571D01*
X118138095Y-139973809D01*
X131390476Y-114554761D02*
X131533333Y-114602380D01*
X131771428Y-114602380D01*
X131866666Y-114554761D01*
X131914285Y-114507142D01*
X131961904Y-114411904D01*
X131961904Y-114316666D01*
X131914285Y-114221428D01*
X131866666Y-114173809D01*
X131771428Y-114126190D01*
X131580952Y-114078571D01*
X131485714Y-114030952D01*
X131438095Y-113983333D01*
X131390476Y-113888095D01*
X131390476Y-113792857D01*
X131438095Y-113697619D01*
X131485714Y-113650000D01*
X131580952Y-113602380D01*
X131819047Y-113602380D01*
X131961904Y-113650000D01*
X132295238Y-113602380D02*
X132533333Y-114602380D01*
X132723809Y-113888095D01*
X132914285Y-114602380D01*
X133152380Y-113602380D01*
X134057142Y-114602380D02*
X133485714Y-114602380D01*
X133771428Y-114602380D02*
X133771428Y-113602380D01*
X133676190Y-113745238D01*
X133580952Y-113840476D01*
X133485714Y-113888095D01*
X134961904Y-113602380D02*
X134485714Y-113602380D01*
X134438095Y-114078571D01*
X134485714Y-114030952D01*
X134580952Y-113983333D01*
X134819047Y-113983333D01*
X134914285Y-114030952D01*
X134961904Y-114078571D01*
X135009523Y-114173809D01*
X135009523Y-114411904D01*
X134961904Y-114507142D01*
X134914285Y-114554761D01*
X134819047Y-114602380D01*
X134580952Y-114602380D01*
X134485714Y-114554761D01*
X134438095Y-114507142D01*
X148840476Y-140254761D02*
X148983333Y-140302380D01*
X149221428Y-140302380D01*
X149316666Y-140254761D01*
X149364285Y-140207142D01*
X149411904Y-140111904D01*
X149411904Y-140016666D01*
X149364285Y-139921428D01*
X149316666Y-139873809D01*
X149221428Y-139826190D01*
X149030952Y-139778571D01*
X148935714Y-139730952D01*
X148888095Y-139683333D01*
X148840476Y-139588095D01*
X148840476Y-139492857D01*
X148888095Y-139397619D01*
X148935714Y-139350000D01*
X149030952Y-139302380D01*
X149269047Y-139302380D01*
X149411904Y-139350000D01*
X149745238Y-139302380D02*
X149983333Y-140302380D01*
X150173809Y-139588095D01*
X150364285Y-140302380D01*
X150602380Y-139302380D01*
X151507142Y-140302380D02*
X150935714Y-140302380D01*
X151221428Y-140302380D02*
X151221428Y-139302380D01*
X151126190Y-139445238D01*
X151030952Y-139540476D01*
X150935714Y-139588095D01*
X152364285Y-139635714D02*
X152364285Y-140302380D01*
X152126190Y-139254761D02*
X151888095Y-139969047D01*
X152507142Y-139969047D01*
X131390476Y-140254761D02*
X131533333Y-140302380D01*
X131771428Y-140302380D01*
X131866666Y-140254761D01*
X131914285Y-140207142D01*
X131961904Y-140111904D01*
X131961904Y-140016666D01*
X131914285Y-139921428D01*
X131866666Y-139873809D01*
X131771428Y-139826190D01*
X131580952Y-139778571D01*
X131485714Y-139730952D01*
X131438095Y-139683333D01*
X131390476Y-139588095D01*
X131390476Y-139492857D01*
X131438095Y-139397619D01*
X131485714Y-139350000D01*
X131580952Y-139302380D01*
X131819047Y-139302380D01*
X131961904Y-139350000D01*
X132295238Y-139302380D02*
X132533333Y-140302380D01*
X132723809Y-139588095D01*
X132914285Y-140302380D01*
X133152380Y-139302380D01*
X134057142Y-140302380D02*
X133485714Y-140302380D01*
X133771428Y-140302380D02*
X133771428Y-139302380D01*
X133676190Y-139445238D01*
X133580952Y-139540476D01*
X133485714Y-139588095D01*
X134390476Y-139302380D02*
X135009523Y-139302380D01*
X134676190Y-139683333D01*
X134819047Y-139683333D01*
X134914285Y-139730952D01*
X134961904Y-139778571D01*
X135009523Y-139873809D01*
X135009523Y-140111904D01*
X134961904Y-140207142D01*
X134914285Y-140254761D01*
X134819047Y-140302380D01*
X134533333Y-140302380D01*
X134438095Y-140254761D01*
X134390476Y-140207142D01*
X82390476Y-101654761D02*
X82533333Y-101702380D01*
X82771428Y-101702380D01*
X82866666Y-101654761D01*
X82914285Y-101607142D01*
X82961904Y-101511904D01*
X82961904Y-101416666D01*
X82914285Y-101321428D01*
X82866666Y-101273809D01*
X82771428Y-101226190D01*
X82580952Y-101178571D01*
X82485714Y-101130952D01*
X82438095Y-101083333D01*
X82390476Y-100988095D01*
X82390476Y-100892857D01*
X82438095Y-100797619D01*
X82485714Y-100750000D01*
X82580952Y-100702380D01*
X82819047Y-100702380D01*
X82961904Y-100750000D01*
X83295238Y-100702380D02*
X83533333Y-101702380D01*
X83723809Y-100988095D01*
X83914285Y-101702380D01*
X84152380Y-100702380D01*
X85057142Y-101702380D02*
X84485714Y-101702380D01*
X84771428Y-101702380D02*
X84771428Y-100702380D01*
X84676190Y-100845238D01*
X84580952Y-100940476D01*
X84485714Y-100988095D01*
X85438095Y-100797619D02*
X85485714Y-100750000D01*
X85580952Y-100702380D01*
X85819047Y-100702380D01*
X85914285Y-100750000D01*
X85961904Y-100797619D01*
X86009523Y-100892857D01*
X86009523Y-100988095D01*
X85961904Y-101130952D01*
X85390476Y-101702380D01*
X86009523Y-101702380D01*
X165090476Y-101654761D02*
X165233333Y-101702380D01*
X165471428Y-101702380D01*
X165566666Y-101654761D01*
X165614285Y-101607142D01*
X165661904Y-101511904D01*
X165661904Y-101416666D01*
X165614285Y-101321428D01*
X165566666Y-101273809D01*
X165471428Y-101226190D01*
X165280952Y-101178571D01*
X165185714Y-101130952D01*
X165138095Y-101083333D01*
X165090476Y-100988095D01*
X165090476Y-100892857D01*
X165138095Y-100797619D01*
X165185714Y-100750000D01*
X165280952Y-100702380D01*
X165519047Y-100702380D01*
X165661904Y-100750000D01*
X165995238Y-100702380D02*
X166233333Y-101702380D01*
X166423809Y-100988095D01*
X166614285Y-101702380D01*
X166852380Y-100702380D01*
X167757142Y-101702380D02*
X167185714Y-101702380D01*
X167471428Y-101702380D02*
X167471428Y-100702380D01*
X167376190Y-100845238D01*
X167280952Y-100940476D01*
X167185714Y-100988095D01*
X168709523Y-101702380D02*
X168138095Y-101702380D01*
X168423809Y-101702380D02*
X168423809Y-100702380D01*
X168328571Y-100845238D01*
X168233333Y-100940476D01*
X168138095Y-100988095D01*
X99266666Y-101604761D02*
X99409523Y-101652380D01*
X99647619Y-101652380D01*
X99742857Y-101604761D01*
X99790476Y-101557142D01*
X99838095Y-101461904D01*
X99838095Y-101366666D01*
X99790476Y-101271428D01*
X99742857Y-101223809D01*
X99647619Y-101176190D01*
X99457142Y-101128571D01*
X99361904Y-101080952D01*
X99314285Y-101033333D01*
X99266666Y-100938095D01*
X99266666Y-100842857D01*
X99314285Y-100747619D01*
X99361904Y-100700000D01*
X99457142Y-100652380D01*
X99695238Y-100652380D01*
X99838095Y-100700000D01*
X100171428Y-100652380D02*
X100409523Y-101652380D01*
X100600000Y-100938095D01*
X100790476Y-101652380D01*
X101028571Y-100652380D01*
X101457142Y-101652380D02*
X101647619Y-101652380D01*
X101742857Y-101604761D01*
X101790476Y-101557142D01*
X101885714Y-101414285D01*
X101933333Y-101223809D01*
X101933333Y-100842857D01*
X101885714Y-100747619D01*
X101838095Y-100700000D01*
X101742857Y-100652380D01*
X101552380Y-100652380D01*
X101457142Y-100700000D01*
X101409523Y-100747619D01*
X101361904Y-100842857D01*
X101361904Y-101080952D01*
X101409523Y-101176190D01*
X101457142Y-101223809D01*
X101552380Y-101271428D01*
X101742857Y-101271428D01*
X101838095Y-101223809D01*
X101885714Y-101176190D01*
X101933333Y-101080952D01*
X165566666Y-114454761D02*
X165709523Y-114502380D01*
X165947619Y-114502380D01*
X166042857Y-114454761D01*
X166090476Y-114407142D01*
X166138095Y-114311904D01*
X166138095Y-114216666D01*
X166090476Y-114121428D01*
X166042857Y-114073809D01*
X165947619Y-114026190D01*
X165757142Y-113978571D01*
X165661904Y-113930952D01*
X165614285Y-113883333D01*
X165566666Y-113788095D01*
X165566666Y-113692857D01*
X165614285Y-113597619D01*
X165661904Y-113550000D01*
X165757142Y-113502380D01*
X165995238Y-113502380D01*
X166138095Y-113550000D01*
X166471428Y-113502380D02*
X166709523Y-114502380D01*
X166900000Y-113788095D01*
X167090476Y-114502380D01*
X167328571Y-113502380D01*
X167852380Y-113930952D02*
X167757142Y-113883333D01*
X167709523Y-113835714D01*
X167661904Y-113740476D01*
X167661904Y-113692857D01*
X167709523Y-113597619D01*
X167757142Y-113550000D01*
X167852380Y-113502380D01*
X168042857Y-113502380D01*
X168138095Y-113550000D01*
X168185714Y-113597619D01*
X168233333Y-113692857D01*
X168233333Y-113740476D01*
X168185714Y-113835714D01*
X168138095Y-113883333D01*
X168042857Y-113930952D01*
X167852380Y-113930952D01*
X167757142Y-113978571D01*
X167709523Y-114026190D01*
X167661904Y-114121428D01*
X167661904Y-114311904D01*
X167709523Y-114407142D01*
X167757142Y-114454761D01*
X167852380Y-114502380D01*
X168042857Y-114502380D01*
X168138095Y-114454761D01*
X168185714Y-114407142D01*
X168233333Y-114311904D01*
X168233333Y-114121428D01*
X168185714Y-114026190D01*
X168138095Y-113978571D01*
X168042857Y-113930952D01*
X99216666Y-127404761D02*
X99359523Y-127452380D01*
X99597619Y-127452380D01*
X99692857Y-127404761D01*
X99740476Y-127357142D01*
X99788095Y-127261904D01*
X99788095Y-127166666D01*
X99740476Y-127071428D01*
X99692857Y-127023809D01*
X99597619Y-126976190D01*
X99407142Y-126928571D01*
X99311904Y-126880952D01*
X99264285Y-126833333D01*
X99216666Y-126738095D01*
X99216666Y-126642857D01*
X99264285Y-126547619D01*
X99311904Y-126500000D01*
X99407142Y-126452380D01*
X99645238Y-126452380D01*
X99788095Y-126500000D01*
X100121428Y-126452380D02*
X100359523Y-127452380D01*
X100550000Y-126738095D01*
X100740476Y-127452380D01*
X100978571Y-126452380D01*
X101264285Y-126452380D02*
X101930952Y-126452380D01*
X101502380Y-127452380D01*
X115616666Y-101754761D02*
X115759523Y-101802380D01*
X115997619Y-101802380D01*
X116092857Y-101754761D01*
X116140476Y-101707142D01*
X116188095Y-101611904D01*
X116188095Y-101516666D01*
X116140476Y-101421428D01*
X116092857Y-101373809D01*
X115997619Y-101326190D01*
X115807142Y-101278571D01*
X115711904Y-101230952D01*
X115664285Y-101183333D01*
X115616666Y-101088095D01*
X115616666Y-100992857D01*
X115664285Y-100897619D01*
X115711904Y-100850000D01*
X115807142Y-100802380D01*
X116045238Y-100802380D01*
X116188095Y-100850000D01*
X116521428Y-100802380D02*
X116759523Y-101802380D01*
X116950000Y-101088095D01*
X117140476Y-101802380D01*
X117378571Y-100802380D01*
X118188095Y-100802380D02*
X117997619Y-100802380D01*
X117902380Y-100850000D01*
X117854761Y-100897619D01*
X117759523Y-101040476D01*
X117711904Y-101230952D01*
X117711904Y-101611904D01*
X117759523Y-101707142D01*
X117807142Y-101754761D01*
X117902380Y-101802380D01*
X118092857Y-101802380D01*
X118188095Y-101754761D01*
X118235714Y-101707142D01*
X118283333Y-101611904D01*
X118283333Y-101373809D01*
X118235714Y-101278571D01*
X118188095Y-101230952D01*
X118092857Y-101183333D01*
X117902380Y-101183333D01*
X117807142Y-101230952D01*
X117759523Y-101278571D01*
X117711904Y-101373809D01*
X165516666Y-127354761D02*
X165659523Y-127402380D01*
X165897619Y-127402380D01*
X165992857Y-127354761D01*
X166040476Y-127307142D01*
X166088095Y-127211904D01*
X166088095Y-127116666D01*
X166040476Y-127021428D01*
X165992857Y-126973809D01*
X165897619Y-126926190D01*
X165707142Y-126878571D01*
X165611904Y-126830952D01*
X165564285Y-126783333D01*
X165516666Y-126688095D01*
X165516666Y-126592857D01*
X165564285Y-126497619D01*
X165611904Y-126450000D01*
X165707142Y-126402380D01*
X165945238Y-126402380D01*
X166088095Y-126450000D01*
X166421428Y-126402380D02*
X166659523Y-127402380D01*
X166850000Y-126688095D01*
X167040476Y-127402380D01*
X167278571Y-126402380D01*
X168135714Y-126402380D02*
X167659523Y-126402380D01*
X167611904Y-126878571D01*
X167659523Y-126830952D01*
X167754761Y-126783333D01*
X167992857Y-126783333D01*
X168088095Y-126830952D01*
X168135714Y-126878571D01*
X168183333Y-126973809D01*
X168183333Y-127211904D01*
X168135714Y-127307142D01*
X168088095Y-127354761D01*
X167992857Y-127402380D01*
X167754761Y-127402380D01*
X167659523Y-127354761D01*
X167611904Y-127307142D01*
X115566666Y-127404761D02*
X115709523Y-127452380D01*
X115947619Y-127452380D01*
X116042857Y-127404761D01*
X116090476Y-127357142D01*
X116138095Y-127261904D01*
X116138095Y-127166666D01*
X116090476Y-127071428D01*
X116042857Y-127023809D01*
X115947619Y-126976190D01*
X115757142Y-126928571D01*
X115661904Y-126880952D01*
X115614285Y-126833333D01*
X115566666Y-126738095D01*
X115566666Y-126642857D01*
X115614285Y-126547619D01*
X115661904Y-126500000D01*
X115757142Y-126452380D01*
X115995238Y-126452380D01*
X116138095Y-126500000D01*
X116471428Y-126452380D02*
X116709523Y-127452380D01*
X116900000Y-126738095D01*
X117090476Y-127452380D01*
X117328571Y-126452380D01*
X118138095Y-126785714D02*
X118138095Y-127452380D01*
X117900000Y-126404761D02*
X117661904Y-127119047D01*
X118280952Y-127119047D01*
X131816666Y-101654761D02*
X131959523Y-101702380D01*
X132197619Y-101702380D01*
X132292857Y-101654761D01*
X132340476Y-101607142D01*
X132388095Y-101511904D01*
X132388095Y-101416666D01*
X132340476Y-101321428D01*
X132292857Y-101273809D01*
X132197619Y-101226190D01*
X132007142Y-101178571D01*
X131911904Y-101130952D01*
X131864285Y-101083333D01*
X131816666Y-100988095D01*
X131816666Y-100892857D01*
X131864285Y-100797619D01*
X131911904Y-100750000D01*
X132007142Y-100702380D01*
X132245238Y-100702380D01*
X132388095Y-100750000D01*
X132721428Y-100702380D02*
X132959523Y-101702380D01*
X133150000Y-100988095D01*
X133340476Y-101702380D01*
X133578571Y-100702380D01*
X133864285Y-100702380D02*
X134483333Y-100702380D01*
X134150000Y-101083333D01*
X134292857Y-101083333D01*
X134388095Y-101130952D01*
X134435714Y-101178571D01*
X134483333Y-101273809D01*
X134483333Y-101511904D01*
X134435714Y-101607142D01*
X134388095Y-101654761D01*
X134292857Y-101702380D01*
X134007142Y-101702380D01*
X133911904Y-101654761D01*
X133864285Y-101607142D01*
X165566666Y-140254761D02*
X165709523Y-140302380D01*
X165947619Y-140302380D01*
X166042857Y-140254761D01*
X166090476Y-140207142D01*
X166138095Y-140111904D01*
X166138095Y-140016666D01*
X166090476Y-139921428D01*
X166042857Y-139873809D01*
X165947619Y-139826190D01*
X165757142Y-139778571D01*
X165661904Y-139730952D01*
X165614285Y-139683333D01*
X165566666Y-139588095D01*
X165566666Y-139492857D01*
X165614285Y-139397619D01*
X165661904Y-139350000D01*
X165757142Y-139302380D01*
X165995238Y-139302380D01*
X166138095Y-139350000D01*
X166471428Y-139302380D02*
X166709523Y-140302380D01*
X166900000Y-139588095D01*
X167090476Y-140302380D01*
X167328571Y-139302380D01*
X167661904Y-139397619D02*
X167709523Y-139350000D01*
X167804761Y-139302380D01*
X168042857Y-139302380D01*
X168138095Y-139350000D01*
X168185714Y-139397619D01*
X168233333Y-139492857D01*
X168233333Y-139588095D01*
X168185714Y-139730952D01*
X167614285Y-140302380D01*
X168233333Y-140302380D01*
X131866666Y-127354761D02*
X132009523Y-127402380D01*
X132247619Y-127402380D01*
X132342857Y-127354761D01*
X132390476Y-127307142D01*
X132438095Y-127211904D01*
X132438095Y-127116666D01*
X132390476Y-127021428D01*
X132342857Y-126973809D01*
X132247619Y-126926190D01*
X132057142Y-126878571D01*
X131961904Y-126830952D01*
X131914285Y-126783333D01*
X131866666Y-126688095D01*
X131866666Y-126592857D01*
X131914285Y-126497619D01*
X131961904Y-126450000D01*
X132057142Y-126402380D01*
X132295238Y-126402380D01*
X132438095Y-126450000D01*
X132771428Y-126402380D02*
X133009523Y-127402380D01*
X133200000Y-126688095D01*
X133390476Y-127402380D01*
X133628571Y-126402380D01*
X134533333Y-127402380D02*
X133961904Y-127402380D01*
X134247619Y-127402380D02*
X134247619Y-126402380D01*
X134152380Y-126545238D01*
X134057142Y-126640476D01*
X133961904Y-126688095D01*
X113507142Y-60852380D02*
X113173809Y-60376190D01*
X112935714Y-60852380D02*
X112935714Y-59852380D01*
X113316666Y-59852380D01*
X113411904Y-59900000D01*
X113459523Y-59947619D01*
X113507142Y-60042857D01*
X113507142Y-60185714D01*
X113459523Y-60280952D01*
X113411904Y-60328571D01*
X113316666Y-60376190D01*
X112935714Y-60376190D01*
X114459523Y-60852380D02*
X113888095Y-60852380D01*
X114173809Y-60852380D02*
X114173809Y-59852380D01*
X114078571Y-59995238D01*
X113983333Y-60090476D01*
X113888095Y-60138095D01*
X114840476Y-59947619D02*
X114888095Y-59900000D01*
X114983333Y-59852380D01*
X115221428Y-59852380D01*
X115316666Y-59900000D01*
X115364285Y-59947619D01*
X115411904Y-60042857D01*
X115411904Y-60138095D01*
X115364285Y-60280952D01*
X114792857Y-60852380D01*
X115411904Y-60852380D01*
X77057142Y-67152380D02*
X76723809Y-66676190D01*
X76485714Y-67152380D02*
X76485714Y-66152380D01*
X76866666Y-66152380D01*
X76961904Y-66200000D01*
X77009523Y-66247619D01*
X77057142Y-66342857D01*
X77057142Y-66485714D01*
X77009523Y-66580952D01*
X76961904Y-66628571D01*
X76866666Y-66676190D01*
X76485714Y-66676190D01*
X78009523Y-67152380D02*
X77438095Y-67152380D01*
X77723809Y-67152380D02*
X77723809Y-66152380D01*
X77628571Y-66295238D01*
X77533333Y-66390476D01*
X77438095Y-66438095D01*
X78961904Y-67152380D02*
X78390476Y-67152380D01*
X78676190Y-67152380D02*
X78676190Y-66152380D01*
X78580952Y-66295238D01*
X78485714Y-66390476D01*
X78390476Y-66438095D01*
X77057142Y-62952380D02*
X76723809Y-62476190D01*
X76485714Y-62952380D02*
X76485714Y-61952380D01*
X76866666Y-61952380D01*
X76961904Y-62000000D01*
X77009523Y-62047619D01*
X77057142Y-62142857D01*
X77057142Y-62285714D01*
X77009523Y-62380952D01*
X76961904Y-62428571D01*
X76866666Y-62476190D01*
X76485714Y-62476190D01*
X78009523Y-62952380D02*
X77438095Y-62952380D01*
X77723809Y-62952380D02*
X77723809Y-61952380D01*
X77628571Y-62095238D01*
X77533333Y-62190476D01*
X77438095Y-62238095D01*
X78628571Y-61952380D02*
X78723809Y-61952380D01*
X78819047Y-62000000D01*
X78866666Y-62047619D01*
X78914285Y-62142857D01*
X78961904Y-62333333D01*
X78961904Y-62571428D01*
X78914285Y-62761904D01*
X78866666Y-62857142D01*
X78819047Y-62904761D01*
X78723809Y-62952380D01*
X78628571Y-62952380D01*
X78533333Y-62904761D01*
X78485714Y-62857142D01*
X78438095Y-62761904D01*
X78390476Y-62571428D01*
X78390476Y-62333333D01*
X78438095Y-62142857D01*
X78485714Y-62047619D01*
X78533333Y-62000000D01*
X78628571Y-61952380D01*
X113983333Y-56302380D02*
X113650000Y-55826190D01*
X113411904Y-56302380D02*
X113411904Y-55302380D01*
X113792857Y-55302380D01*
X113888095Y-55350000D01*
X113935714Y-55397619D01*
X113983333Y-55492857D01*
X113983333Y-55635714D01*
X113935714Y-55730952D01*
X113888095Y-55778571D01*
X113792857Y-55826190D01*
X113411904Y-55826190D01*
X114459523Y-56302380D02*
X114650000Y-56302380D01*
X114745238Y-56254761D01*
X114792857Y-56207142D01*
X114888095Y-56064285D01*
X114935714Y-55873809D01*
X114935714Y-55492857D01*
X114888095Y-55397619D01*
X114840476Y-55350000D01*
X114745238Y-55302380D01*
X114554761Y-55302380D01*
X114459523Y-55350000D01*
X114411904Y-55397619D01*
X114364285Y-55492857D01*
X114364285Y-55730952D01*
X114411904Y-55826190D01*
X114459523Y-55873809D01*
X114554761Y-55921428D01*
X114745238Y-55921428D01*
X114840476Y-55873809D01*
X114888095Y-55826190D01*
X114935714Y-55730952D01*
X134933333Y-62902380D02*
X134600000Y-62426190D01*
X134361904Y-62902380D02*
X134361904Y-61902380D01*
X134742857Y-61902380D01*
X134838095Y-61950000D01*
X134885714Y-61997619D01*
X134933333Y-62092857D01*
X134933333Y-62235714D01*
X134885714Y-62330952D01*
X134838095Y-62378571D01*
X134742857Y-62426190D01*
X134361904Y-62426190D01*
X135504761Y-62330952D02*
X135409523Y-62283333D01*
X135361904Y-62235714D01*
X135314285Y-62140476D01*
X135314285Y-62092857D01*
X135361904Y-61997619D01*
X135409523Y-61950000D01*
X135504761Y-61902380D01*
X135695238Y-61902380D01*
X135790476Y-61950000D01*
X135838095Y-61997619D01*
X135885714Y-62092857D01*
X135885714Y-62140476D01*
X135838095Y-62235714D01*
X135790476Y-62283333D01*
X135695238Y-62330952D01*
X135504761Y-62330952D01*
X135409523Y-62378571D01*
X135361904Y-62426190D01*
X135314285Y-62521428D01*
X135314285Y-62711904D01*
X135361904Y-62807142D01*
X135409523Y-62854761D01*
X135504761Y-62902380D01*
X135695238Y-62902380D01*
X135790476Y-62854761D01*
X135838095Y-62807142D01*
X135885714Y-62711904D01*
X135885714Y-62521428D01*
X135838095Y-62426190D01*
X135790476Y-62378571D01*
X135695238Y-62330952D01*
X134983333Y-67202380D02*
X134650000Y-66726190D01*
X134411904Y-67202380D02*
X134411904Y-66202380D01*
X134792857Y-66202380D01*
X134888095Y-66250000D01*
X134935714Y-66297619D01*
X134983333Y-66392857D01*
X134983333Y-66535714D01*
X134935714Y-66630952D01*
X134888095Y-66678571D01*
X134792857Y-66726190D01*
X134411904Y-66726190D01*
X135316666Y-66202380D02*
X135983333Y-66202380D01*
X135554761Y-67202380D01*
X145433333Y-58702380D02*
X145100000Y-58226190D01*
X144861904Y-58702380D02*
X144861904Y-57702380D01*
X145242857Y-57702380D01*
X145338095Y-57750000D01*
X145385714Y-57797619D01*
X145433333Y-57892857D01*
X145433333Y-58035714D01*
X145385714Y-58130952D01*
X145338095Y-58178571D01*
X145242857Y-58226190D01*
X144861904Y-58226190D01*
X146290476Y-57702380D02*
X146100000Y-57702380D01*
X146004761Y-57750000D01*
X145957142Y-57797619D01*
X145861904Y-57940476D01*
X145814285Y-58130952D01*
X145814285Y-58511904D01*
X145861904Y-58607142D01*
X145909523Y-58654761D01*
X146004761Y-58702380D01*
X146195238Y-58702380D01*
X146290476Y-58654761D01*
X146338095Y-58607142D01*
X146385714Y-58511904D01*
X146385714Y-58273809D01*
X146338095Y-58178571D01*
X146290476Y-58130952D01*
X146195238Y-58083333D01*
X146004761Y-58083333D01*
X145909523Y-58130952D01*
X145861904Y-58178571D01*
X145814285Y-58273809D01*
X135133333Y-58652380D02*
X134800000Y-58176190D01*
X134561904Y-58652380D02*
X134561904Y-57652380D01*
X134942857Y-57652380D01*
X135038095Y-57700000D01*
X135085714Y-57747619D01*
X135133333Y-57842857D01*
X135133333Y-57985714D01*
X135085714Y-58080952D01*
X135038095Y-58128571D01*
X134942857Y-58176190D01*
X134561904Y-58176190D01*
X136038095Y-57652380D02*
X135561904Y-57652380D01*
X135514285Y-58128571D01*
X135561904Y-58080952D01*
X135657142Y-58033333D01*
X135895238Y-58033333D01*
X135990476Y-58080952D01*
X136038095Y-58128571D01*
X136085714Y-58223809D01*
X136085714Y-58461904D01*
X136038095Y-58557142D01*
X135990476Y-58604761D01*
X135895238Y-58652380D01*
X135657142Y-58652380D01*
X135561904Y-58604761D01*
X135514285Y-58557142D01*
X113983333Y-70052380D02*
X113650000Y-69576190D01*
X113411904Y-70052380D02*
X113411904Y-69052380D01*
X113792857Y-69052380D01*
X113888095Y-69100000D01*
X113935714Y-69147619D01*
X113983333Y-69242857D01*
X113983333Y-69385714D01*
X113935714Y-69480952D01*
X113888095Y-69528571D01*
X113792857Y-69576190D01*
X113411904Y-69576190D01*
X114840476Y-69385714D02*
X114840476Y-70052380D01*
X114602380Y-69004761D02*
X114364285Y-69719047D01*
X114983333Y-69719047D01*
X145433333Y-63002380D02*
X145100000Y-62526190D01*
X144861904Y-63002380D02*
X144861904Y-62002380D01*
X145242857Y-62002380D01*
X145338095Y-62050000D01*
X145385714Y-62097619D01*
X145433333Y-62192857D01*
X145433333Y-62335714D01*
X145385714Y-62430952D01*
X145338095Y-62478571D01*
X145242857Y-62526190D01*
X144861904Y-62526190D01*
X145766666Y-62002380D02*
X146385714Y-62002380D01*
X146052380Y-62383333D01*
X146195238Y-62383333D01*
X146290476Y-62430952D01*
X146338095Y-62478571D01*
X146385714Y-62573809D01*
X146385714Y-62811904D01*
X146338095Y-62907142D01*
X146290476Y-62954761D01*
X146195238Y-63002380D01*
X145909523Y-63002380D01*
X145814285Y-62954761D01*
X145766666Y-62907142D01*
X77183333Y-58652380D02*
X76850000Y-58176190D01*
X76611904Y-58652380D02*
X76611904Y-57652380D01*
X76992857Y-57652380D01*
X77088095Y-57700000D01*
X77135714Y-57747619D01*
X77183333Y-57842857D01*
X77183333Y-57985714D01*
X77135714Y-58080952D01*
X77088095Y-58128571D01*
X76992857Y-58176190D01*
X76611904Y-58176190D01*
X77564285Y-57747619D02*
X77611904Y-57700000D01*
X77707142Y-57652380D01*
X77945238Y-57652380D01*
X78040476Y-57700000D01*
X78088095Y-57747619D01*
X78135714Y-57842857D01*
X78135714Y-57938095D01*
X78088095Y-58080952D01*
X77516666Y-58652380D01*
X78135714Y-58652380D01*
X145433333Y-67302380D02*
X145100000Y-66826190D01*
X144861904Y-67302380D02*
X144861904Y-66302380D01*
X145242857Y-66302380D01*
X145338095Y-66350000D01*
X145385714Y-66397619D01*
X145433333Y-66492857D01*
X145433333Y-66635714D01*
X145385714Y-66730952D01*
X145338095Y-66778571D01*
X145242857Y-66826190D01*
X144861904Y-66826190D01*
X146385714Y-67302380D02*
X145814285Y-67302380D01*
X146100000Y-67302380D02*
X146100000Y-66302380D01*
X146004761Y-66445238D01*
X145909523Y-66540476D01*
X145814285Y-66588095D01*
D13*
X93078571Y-80850000D02*
X94150000Y-80850000D01*
X94364285Y-80921428D01*
X94507142Y-81064285D01*
X94578571Y-81278571D01*
X94578571Y-81421428D01*
X93078571Y-80278571D02*
X93078571Y-79350000D01*
X93650000Y-79850000D01*
X93650000Y-79635714D01*
X93721428Y-79492857D01*
X93792857Y-79421428D01*
X93935714Y-79350000D01*
X94292857Y-79350000D01*
X94435714Y-79421428D01*
X94507142Y-79492857D01*
X94578571Y-79635714D01*
X94578571Y-80064285D01*
X94507142Y-80207142D01*
X94435714Y-80278571D01*
D10*
X164816666Y-53152380D02*
X164816666Y-53866666D01*
X164769047Y-54009523D01*
X164673809Y-54104761D01*
X164530952Y-54152380D01*
X164435714Y-54152380D01*
X165245238Y-53247619D02*
X165292857Y-53200000D01*
X165388095Y-53152380D01*
X165626190Y-53152380D01*
X165721428Y-53200000D01*
X165769047Y-53247619D01*
X165816666Y-53342857D01*
X165816666Y-53438095D01*
X165769047Y-53580952D01*
X165197619Y-54152380D01*
X165816666Y-54152380D01*
X123283333Y-78407142D02*
X123235714Y-78454761D01*
X123092857Y-78502380D01*
X122997619Y-78502380D01*
X122854761Y-78454761D01*
X122759523Y-78359523D01*
X122711904Y-78264285D01*
X122664285Y-78073809D01*
X122664285Y-77930952D01*
X122711904Y-77740476D01*
X122759523Y-77645238D01*
X122854761Y-77550000D01*
X122997619Y-77502380D01*
X123092857Y-77502380D01*
X123235714Y-77550000D01*
X123283333Y-77597619D01*
X124140476Y-77502380D02*
X123950000Y-77502380D01*
X123854761Y-77550000D01*
X123807142Y-77597619D01*
X123711904Y-77740476D01*
X123664285Y-77930952D01*
X123664285Y-78311904D01*
X123711904Y-78407142D01*
X123759523Y-78454761D01*
X123854761Y-78502380D01*
X124045238Y-78502380D01*
X124140476Y-78454761D01*
X124188095Y-78407142D01*
X124235714Y-78311904D01*
X124235714Y-78073809D01*
X124188095Y-77978571D01*
X124140476Y-77930952D01*
X124045238Y-77883333D01*
X123854761Y-77883333D01*
X123759523Y-77930952D01*
X123711904Y-77978571D01*
X123664285Y-78073809D01*
X99633333Y-78257142D02*
X99585714Y-78304761D01*
X99442857Y-78352380D01*
X99347619Y-78352380D01*
X99204761Y-78304761D01*
X99109523Y-78209523D01*
X99061904Y-78114285D01*
X99014285Y-77923809D01*
X99014285Y-77780952D01*
X99061904Y-77590476D01*
X99109523Y-77495238D01*
X99204761Y-77400000D01*
X99347619Y-77352380D01*
X99442857Y-77352380D01*
X99585714Y-77400000D01*
X99633333Y-77447619D01*
X100538095Y-77352380D02*
X100061904Y-77352380D01*
X100014285Y-77828571D01*
X100061904Y-77780952D01*
X100157142Y-77733333D01*
X100395238Y-77733333D01*
X100490476Y-77780952D01*
X100538095Y-77828571D01*
X100585714Y-77923809D01*
X100585714Y-78161904D01*
X100538095Y-78257142D01*
X100490476Y-78304761D01*
X100395238Y-78352380D01*
X100157142Y-78352380D01*
X100061904Y-78304761D01*
X100014285Y-78257142D01*
X115633333Y-85007142D02*
X115585714Y-85054761D01*
X115442857Y-85102380D01*
X115347619Y-85102380D01*
X115204761Y-85054761D01*
X115109523Y-84959523D01*
X115061904Y-84864285D01*
X115014285Y-84673809D01*
X115014285Y-84530952D01*
X115061904Y-84340476D01*
X115109523Y-84245238D01*
X115204761Y-84150000D01*
X115347619Y-84102380D01*
X115442857Y-84102380D01*
X115585714Y-84150000D01*
X115633333Y-84197619D01*
X116490476Y-84435714D02*
X116490476Y-85102380D01*
X116252380Y-84054761D02*
X116014285Y-84769047D01*
X116633333Y-84769047D01*
X111083333Y-76257142D02*
X111035714Y-76304761D01*
X110892857Y-76352380D01*
X110797619Y-76352380D01*
X110654761Y-76304761D01*
X110559523Y-76209523D01*
X110511904Y-76114285D01*
X110464285Y-75923809D01*
X110464285Y-75780952D01*
X110511904Y-75590476D01*
X110559523Y-75495238D01*
X110654761Y-75400000D01*
X110797619Y-75352380D01*
X110892857Y-75352380D01*
X111035714Y-75400000D01*
X111083333Y-75447619D01*
X111416666Y-75352380D02*
X112035714Y-75352380D01*
X111702380Y-75733333D01*
X111845238Y-75733333D01*
X111940476Y-75780952D01*
X111988095Y-75828571D01*
X112035714Y-75923809D01*
X112035714Y-76161904D01*
X111988095Y-76257142D01*
X111940476Y-76304761D01*
X111845238Y-76352380D01*
X111559523Y-76352380D01*
X111464285Y-76304761D01*
X111416666Y-76257142D01*
X94883333Y-87657142D02*
X94835714Y-87704761D01*
X94692857Y-87752380D01*
X94597619Y-87752380D01*
X94454761Y-87704761D01*
X94359523Y-87609523D01*
X94311904Y-87514285D01*
X94264285Y-87323809D01*
X94264285Y-87180952D01*
X94311904Y-86990476D01*
X94359523Y-86895238D01*
X94454761Y-86800000D01*
X94597619Y-86752380D01*
X94692857Y-86752380D01*
X94835714Y-86800000D01*
X94883333Y-86847619D01*
X95264285Y-86847619D02*
X95311904Y-86800000D01*
X95407142Y-86752380D01*
X95645238Y-86752380D01*
X95740476Y-86800000D01*
X95788095Y-86847619D01*
X95835714Y-86942857D01*
X95835714Y-87038095D01*
X95788095Y-87180952D01*
X95216666Y-87752380D01*
X95835714Y-87752380D01*
X103733333Y-93557142D02*
X103685714Y-93604761D01*
X103542857Y-93652380D01*
X103447619Y-93652380D01*
X103304761Y-93604761D01*
X103209523Y-93509523D01*
X103161904Y-93414285D01*
X103114285Y-93223809D01*
X103114285Y-93080952D01*
X103161904Y-92890476D01*
X103209523Y-92795238D01*
X103304761Y-92700000D01*
X103447619Y-92652380D01*
X103542857Y-92652380D01*
X103685714Y-92700000D01*
X103733333Y-92747619D01*
X104685714Y-93652380D02*
X104114285Y-93652380D01*
X104400000Y-93652380D02*
X104400000Y-92652380D01*
X104304761Y-92795238D01*
X104209523Y-92890476D01*
X104114285Y-92938095D01*
M02*
