G04 #@! TF.GenerationSoftware,KiCad,Pcbnew,(5.1.2-1)-1*
G04 #@! TF.CreationDate,2020-12-13T23:00:28+01:00*
G04 #@! TF.ProjectId,s1clone,7331636c-6f6e-4652-9e6b-696361645f70,rev?*
G04 #@! TF.SameCoordinates,Original*
G04 #@! TF.FileFunction,Copper,L2,Bot*
G04 #@! TF.FilePolarity,Positive*
%FSLAX46Y46*%
G04 Gerber Fmt 4.6, Leading zero omitted, Abs format (unit mm)*
G04 Created by KiCad (PCBNEW (5.1.2-1)-1) date 2020-12-13 23:00:28*
%MOMM*%
%LPD*%
G04 APERTURE LIST*
%ADD10O,2.400000X2.400000*%
%ADD11C,2.400000*%
%ADD12O,3.048000X1.727200*%
%ADD13O,1.600000X1.600000*%
%ADD14R,1.600000X1.600000*%
%ADD15C,1.500000*%
%ADD16R,1.500000X1.500000*%
%ADD17C,2.500000*%
%ADD18R,1.700000X1.700000*%
%ADD19O,1.700000X1.700000*%
%ADD20C,1.600000*%
%ADD21C,0.800000*%
%ADD22C,0.250000*%
%ADD23C,1.000000*%
%ADD24C,0.254000*%
G04 APERTURE END LIST*
D10*
X160440000Y-75400000D03*
D11*
X145200000Y-75400000D03*
D12*
X77900000Y-129450000D03*
X77900000Y-124450000D03*
X90400000Y-129450000D03*
X90400000Y-124450000D03*
D13*
X103500000Y-80280000D03*
X111120000Y-87900000D03*
X106040000Y-80280000D03*
X108580000Y-87900000D03*
X108580000Y-80280000D03*
X106040000Y-87900000D03*
X111120000Y-80280000D03*
D14*
X103500000Y-87900000D03*
D13*
X127900000Y-80280000D03*
X145680000Y-87900000D03*
X130440000Y-80280000D03*
X143140000Y-87900000D03*
X132980000Y-80280000D03*
X140600000Y-87900000D03*
X135520000Y-80280000D03*
X138060000Y-87900000D03*
X138060000Y-80280000D03*
X135520000Y-87900000D03*
X140600000Y-80280000D03*
X132980000Y-87900000D03*
X143140000Y-80280000D03*
X130440000Y-87900000D03*
X145680000Y-80280000D03*
D14*
X127900000Y-87900000D03*
D15*
X144400000Y-55010000D03*
X146940000Y-55010000D03*
X149480000Y-55010000D03*
X152020000Y-55010000D03*
X154560000Y-55010000D03*
X157100000Y-55010000D03*
X157100000Y-70250000D03*
X154560000Y-70250000D03*
X152020000Y-70250000D03*
X149480000Y-70250000D03*
X146940000Y-70250000D03*
D16*
X144400000Y-70250000D03*
D15*
X93400000Y-55010000D03*
X95940000Y-55010000D03*
X98480000Y-55010000D03*
X101020000Y-55010000D03*
X103560000Y-55010000D03*
X106100000Y-55010000D03*
X106100000Y-70250000D03*
X103560000Y-70250000D03*
X101020000Y-70250000D03*
X98480000Y-70250000D03*
X95940000Y-70250000D03*
D16*
X93400000Y-70250000D03*
D12*
X160450000Y-90950000D03*
X160450000Y-85950000D03*
X172950000Y-90950000D03*
X172950000Y-85950000D03*
X77900000Y-116550000D03*
X77900000Y-111550000D03*
X90400000Y-116550000D03*
X90400000Y-111550000D03*
X144300000Y-103700000D03*
X144300000Y-98700000D03*
X156800000Y-103700000D03*
X156800000Y-98700000D03*
X77900000Y-142350000D03*
X77900000Y-137350000D03*
X90400000Y-142350000D03*
X90400000Y-137350000D03*
X94150000Y-116550000D03*
X94150000Y-111550000D03*
X106650000Y-116550000D03*
X106650000Y-111550000D03*
X144300000Y-116550000D03*
X144300000Y-111550000D03*
X156800000Y-116550000D03*
X156800000Y-111550000D03*
X94150000Y-142350000D03*
X94150000Y-137350000D03*
X106650000Y-142350000D03*
X106650000Y-137350000D03*
X110500000Y-116550000D03*
X110500000Y-111550000D03*
X123000000Y-116550000D03*
X123000000Y-111550000D03*
X144300000Y-129450000D03*
X144300000Y-124450000D03*
X156800000Y-129450000D03*
X156800000Y-124450000D03*
X110500000Y-142350000D03*
X110500000Y-137350000D03*
X123000000Y-142350000D03*
X123000000Y-137350000D03*
X126800000Y-116550000D03*
X126800000Y-111550000D03*
X139300000Y-116550000D03*
X139300000Y-111550000D03*
X144300000Y-142350000D03*
X144300000Y-137350000D03*
X156800000Y-142350000D03*
X156800000Y-137350000D03*
X126800000Y-142350000D03*
X126800000Y-137350000D03*
X139300000Y-142350000D03*
X139300000Y-137350000D03*
X77900000Y-103700000D03*
X77900000Y-98700000D03*
X90400000Y-103700000D03*
X90400000Y-98700000D03*
X160500000Y-103700000D03*
X160500000Y-98700000D03*
X173000000Y-103700000D03*
X173000000Y-98700000D03*
X94200000Y-103700000D03*
X94200000Y-98700000D03*
X106700000Y-103700000D03*
X106700000Y-98700000D03*
X160500000Y-116550000D03*
X160500000Y-111550000D03*
X173000000Y-116550000D03*
X173000000Y-111550000D03*
X94150000Y-129450000D03*
X94150000Y-124450000D03*
X106650000Y-129450000D03*
X106650000Y-124450000D03*
X110550000Y-103700000D03*
X110550000Y-98700000D03*
X123050000Y-103700000D03*
X123050000Y-98700000D03*
X160500000Y-129450000D03*
X160500000Y-124450000D03*
X173000000Y-129450000D03*
X173000000Y-124450000D03*
X110500000Y-129450000D03*
X110500000Y-124450000D03*
X123000000Y-129450000D03*
X123000000Y-124450000D03*
X126800000Y-103700000D03*
X126800000Y-98700000D03*
X139300000Y-103700000D03*
X139300000Y-98700000D03*
X160500000Y-142350000D03*
X160500000Y-137350000D03*
X173000000Y-142350000D03*
X173000000Y-137350000D03*
X126800000Y-129450000D03*
X126800000Y-124450000D03*
X139300000Y-129450000D03*
X139300000Y-124450000D03*
D10*
X114190000Y-62500000D03*
D11*
X98950000Y-62500000D03*
D10*
X95890000Y-66750000D03*
D11*
X80650000Y-66750000D03*
D10*
X95890000Y-62500000D03*
D11*
X80650000Y-62500000D03*
D10*
X114190000Y-58250000D03*
D11*
X98950000Y-58250000D03*
D10*
X117360000Y-62500000D03*
D11*
X132600000Y-62500000D03*
D10*
X132590000Y-66750000D03*
D11*
X117350000Y-66750000D03*
D10*
X148160000Y-58350000D03*
D11*
X163400000Y-58350000D03*
D10*
X132590000Y-58250000D03*
D11*
X117350000Y-58250000D03*
D10*
X98960000Y-66750000D03*
D11*
X114200000Y-66750000D03*
D10*
X148160000Y-62650000D03*
D11*
X163400000Y-62650000D03*
D10*
X95890000Y-58250000D03*
D11*
X80650000Y-58250000D03*
D10*
X148160000Y-66900000D03*
D11*
X163400000Y-66900000D03*
D17*
X77850000Y-78900000D03*
X77850000Y-88900000D03*
X90350000Y-78900000D03*
X87850000Y-91400000D03*
X87850000Y-83900000D03*
X90350000Y-88900000D03*
X87850000Y-76400000D03*
D18*
X162950000Y-53900000D03*
D19*
X171690000Y-55390000D03*
X169150000Y-55390000D03*
X171690000Y-57930000D03*
X169150000Y-57930000D03*
X171690000Y-60470000D03*
X169150000Y-60470000D03*
X171690000Y-63010000D03*
X169150000Y-63010000D03*
X171690000Y-65550000D03*
X169150000Y-65550000D03*
X171690000Y-68090000D03*
X169150000Y-68090000D03*
X171690000Y-70630000D03*
X169150000Y-70630000D03*
X171690000Y-73170000D03*
X169150000Y-73170000D03*
X171690000Y-75710000D03*
X169150000Y-75710000D03*
X171690000Y-78250000D03*
D18*
X169150000Y-78250000D03*
D20*
X123550000Y-80300000D03*
X123550000Y-85300000D03*
X99750000Y-80300000D03*
X99750000Y-85300000D03*
X115850000Y-91900000D03*
X115850000Y-86900000D03*
X108600000Y-75950000D03*
X103600000Y-75950000D03*
X97150000Y-90700000D03*
D14*
X99650000Y-90700000D03*
D20*
X111050000Y-91900000D03*
X106050000Y-91900000D03*
D21*
X106050000Y-83650000D03*
X120850000Y-83650000D03*
X120900000Y-59400000D03*
X83100000Y-93700000D03*
X99650000Y-93700000D03*
X83100000Y-56400000D03*
X108600000Y-64550000D03*
X86550000Y-61000000D03*
X86550000Y-66750000D03*
X98450000Y-73350000D03*
X149450000Y-73350000D03*
X150000000Y-56700000D03*
X135600000Y-59700000D03*
X173300000Y-71850000D03*
X134650000Y-61750000D03*
X98500000Y-53000000D03*
X150900000Y-64000000D03*
X130400000Y-64750000D03*
X144450000Y-65475000D03*
X152100000Y-62650000D03*
X152100000Y-67400000D03*
X169050000Y-103700000D03*
X169050000Y-116550000D03*
X169050000Y-129450000D03*
X169000000Y-142350000D03*
X101000000Y-74250000D03*
X151925000Y-74950000D03*
X151850000Y-88400000D03*
X82000000Y-129450000D03*
X82000000Y-142350000D03*
X106100000Y-52225000D03*
X159250000Y-73300000D03*
X166650000Y-94100000D03*
X95890000Y-58250000D03*
X147100000Y-77150000D03*
X97350000Y-82200000D03*
X170500000Y-82200000D03*
X107500000Y-66700000D03*
X105100000Y-65500000D03*
X130300000Y-58250000D03*
X119350000Y-80300000D03*
X130350000Y-124450000D03*
X130400000Y-98700000D03*
X130350000Y-135200000D03*
X154200000Y-100500000D03*
X154200000Y-80300000D03*
X143100000Y-90300000D03*
X123000000Y-90450000D03*
X152650000Y-90300000D03*
X119150000Y-124450000D03*
X119100000Y-98700000D03*
X103650000Y-98700000D03*
X103650000Y-124450000D03*
X141450000Y-101350000D03*
X166800000Y-111550000D03*
X166700000Y-101350000D03*
X141750000Y-60500000D03*
X152000000Y-60500000D03*
X138100000Y-96400000D03*
X139150000Y-55050000D03*
X81450000Y-98700000D03*
X81350000Y-124450000D03*
X133200000Y-137350000D03*
X133250000Y-111550000D03*
X131850000Y-70250000D03*
X116600000Y-137350000D03*
X116600000Y-111550000D03*
X116600000Y-122350000D03*
X132150000Y-113050000D03*
X129300000Y-56300000D03*
X100400000Y-137350000D03*
X100400000Y-111550000D03*
X129300000Y-109450000D03*
X150700000Y-111550000D03*
X126750000Y-60350000D03*
X101000000Y-60350000D03*
X84150000Y-137350000D03*
X84200000Y-111550000D03*
X150600000Y-107650000D03*
X150700000Y-98700000D03*
X144250000Y-95450000D03*
X127900000Y-95400000D03*
X142750000Y-58400000D03*
X157000000Y-58350000D03*
X157000000Y-65500000D03*
X86400000Y-103700000D03*
X86400000Y-116550000D03*
X95950000Y-72300000D03*
X146850000Y-72400000D03*
X165550000Y-72575000D03*
X165550000Y-69900000D03*
D22*
X106050000Y-83650000D02*
X120850000Y-83650000D01*
X131440000Y-59400000D02*
X132590000Y-58250000D01*
X120900000Y-59400000D02*
X131440000Y-59400000D01*
X83100000Y-93700000D02*
X99650000Y-93700000D01*
X114190000Y-58250000D02*
X104800000Y-58250000D01*
X102950000Y-56400000D02*
X83100000Y-56400000D01*
X104800000Y-58250000D02*
X102950000Y-56400000D01*
X108600000Y-64550000D02*
X127300000Y-64550000D01*
X129350000Y-62500000D02*
X132600000Y-62500000D01*
X127300000Y-64550000D02*
X129350000Y-62500000D01*
X103150000Y-76400000D02*
X103600000Y-75950000D01*
X87850000Y-76400000D02*
X103150000Y-76400000D01*
X114718630Y-86900000D02*
X115850000Y-86900000D01*
X114243631Y-86425001D02*
X114718630Y-86900000D01*
X90517766Y-91400000D02*
X95492765Y-86425001D01*
X95492765Y-86425001D02*
X114243631Y-86425001D01*
X87850000Y-91400000D02*
X90517766Y-91400000D01*
X97424999Y-60974999D02*
X86575001Y-60974999D01*
X86575001Y-60974999D02*
X86550000Y-61000000D01*
X98950000Y-62500000D02*
X97424999Y-60974999D01*
X86550000Y-66750000D02*
X80650000Y-66750000D01*
X98450000Y-73350000D02*
X149450000Y-73350000D01*
X170840001Y-57080001D02*
X171690000Y-57930000D01*
X164062001Y-56754999D02*
X170514999Y-56754999D01*
X170514999Y-56754999D02*
X170840001Y-57080001D01*
X164007002Y-56700000D02*
X164062001Y-56754999D01*
X150000000Y-56700000D02*
X164007002Y-56700000D01*
X162667999Y-59875001D02*
X167204999Y-59875001D01*
X167204999Y-59875001D02*
X169150000Y-57930000D01*
X151476998Y-59950000D02*
X151976998Y-59450000D01*
X151976998Y-59450000D02*
X162242998Y-59450000D01*
X147502998Y-59950000D02*
X151476998Y-59950000D01*
X147252998Y-59700000D02*
X147502998Y-59950000D01*
X162242998Y-59450000D02*
X162667999Y-59875001D01*
X135600000Y-59700000D02*
X147252998Y-59700000D01*
X153484999Y-69174999D02*
X153810001Y-69500001D01*
X153810001Y-69500001D02*
X154560000Y-70250000D01*
X104635001Y-69174999D02*
X153484999Y-69174999D01*
X103560000Y-70250000D02*
X104635001Y-69174999D01*
X154560000Y-70250000D02*
X156160000Y-71850000D01*
X156160000Y-71850000D02*
X173300000Y-71850000D01*
X167947919Y-60470000D02*
X169150000Y-60470000D01*
X163322998Y-60470000D02*
X167947919Y-60470000D01*
X162142998Y-61650000D02*
X163322998Y-60470000D01*
X152076998Y-61650000D02*
X162142998Y-61650000D01*
X151551997Y-61124999D02*
X152076998Y-61650000D01*
X147427999Y-61124999D02*
X151551997Y-61124999D01*
X146802998Y-61750000D02*
X147427999Y-61124999D01*
X134650000Y-61750000D02*
X146802998Y-61750000D01*
X149480000Y-53949340D02*
X148480660Y-52950000D01*
X149480000Y-55010000D02*
X149480000Y-53949340D01*
X98550000Y-52950000D02*
X98500000Y-53000000D01*
X148480660Y-52950000D02*
X98550000Y-52950000D01*
X170840001Y-62160001D02*
X171690000Y-63010000D01*
X168585999Y-61834999D02*
X170514999Y-61834999D01*
X170514999Y-61834999D02*
X170840001Y-62160001D01*
X166245997Y-64175001D02*
X168585999Y-61834999D01*
X162667999Y-64175001D02*
X166245997Y-64175001D01*
X162492998Y-64000000D02*
X162667999Y-64175001D01*
X150900000Y-64000000D02*
X162492998Y-64000000D01*
X167410000Y-64750000D02*
X169150000Y-63010000D01*
X130400000Y-64750000D02*
X167410000Y-64750000D01*
X143400000Y-70250000D02*
X144400000Y-70250000D01*
X142324999Y-71325001D02*
X143400000Y-70250000D01*
X93475001Y-71325001D02*
X142324999Y-71325001D01*
X93400000Y-71250000D02*
X93475001Y-71325001D01*
X93400000Y-70250000D02*
X93400000Y-71250000D01*
X170840001Y-66399999D02*
X171690000Y-65550000D01*
X170514999Y-66725001D02*
X170840001Y-66399999D01*
X161192988Y-66949990D02*
X162667999Y-68425001D01*
X168424999Y-66725001D02*
X170514999Y-66725001D01*
X162667999Y-68425001D02*
X166724999Y-68425001D01*
X157376988Y-66949990D02*
X161192988Y-66949990D01*
X155801997Y-65374999D02*
X157376988Y-66949990D01*
X166724999Y-68425001D02*
X168424999Y-66725001D01*
X147427999Y-65374999D02*
X155801997Y-65374999D01*
X147327998Y-65475000D02*
X147427999Y-65374999D01*
X144450000Y-65475000D02*
X147327998Y-65475000D01*
X156800000Y-103700000D02*
X144300000Y-103700000D01*
X144300000Y-116550000D02*
X156800000Y-116550000D01*
X146074000Y-129450000D02*
X156800000Y-129450000D01*
X144300000Y-129450000D02*
X146074000Y-129450000D01*
X144300000Y-142350000D02*
X156800000Y-142350000D01*
X160500000Y-129450000D02*
X162274000Y-129450000D01*
X158574000Y-142350000D02*
X160500000Y-142350000D01*
X156800000Y-142350000D02*
X158574000Y-142350000D01*
X158574000Y-129450000D02*
X160500000Y-129450000D01*
X156800000Y-129450000D02*
X158574000Y-129450000D01*
X156800000Y-116550000D02*
X160500000Y-116550000D01*
X158574000Y-103700000D02*
X160500000Y-103700000D01*
X156800000Y-103700000D02*
X158574000Y-103700000D01*
X148160000Y-62650000D02*
X152100000Y-62650000D01*
X166700000Y-69150000D02*
X167760000Y-68090000D01*
X167760000Y-68090000D02*
X169150000Y-68090000D01*
X160800000Y-67400000D02*
X162550000Y-69150000D01*
X162550000Y-69150000D02*
X166700000Y-69150000D01*
X152100000Y-67400000D02*
X160800000Y-67400000D01*
X160500000Y-103700000D02*
X169050000Y-103700000D01*
X169050000Y-103700000D02*
X173000000Y-103700000D01*
X169050000Y-116550000D02*
X173000000Y-116550000D01*
X160500000Y-116550000D02*
X169050000Y-116550000D01*
X169050000Y-129450000D02*
X173000000Y-129450000D01*
X162274000Y-129450000D02*
X169050000Y-129450000D01*
X169000000Y-142350000D02*
X173000000Y-142350000D01*
X160500000Y-142350000D02*
X169000000Y-142350000D01*
X101000000Y-74250000D02*
X142750000Y-74250000D01*
X143125001Y-73874999D02*
X147374999Y-73874999D01*
X142750000Y-74250000D02*
X143125001Y-73874999D01*
X147374999Y-73874999D02*
X148450000Y-74950000D01*
X148450000Y-74950000D02*
X150050000Y-74950000D01*
X150050000Y-74950000D02*
X151925000Y-74950000D01*
X171690000Y-70630000D02*
X173880000Y-70630000D01*
X173880000Y-70630000D02*
X174900000Y-71650000D01*
X174900000Y-71650000D02*
X174900000Y-87650000D01*
X174900000Y-87650000D02*
X174150000Y-88400000D01*
X174150000Y-88400000D02*
X151850000Y-88400000D01*
X151850000Y-88400000D02*
X151850000Y-88400000D01*
X77900000Y-142350000D02*
X78560400Y-142350000D01*
X92174000Y-142350000D02*
X94150000Y-142350000D01*
X90400000Y-142350000D02*
X92174000Y-142350000D01*
X106650000Y-142350000D02*
X110500000Y-142350000D01*
X110500000Y-142350000D02*
X123000000Y-142350000D01*
X123000000Y-142350000D02*
X126800000Y-142350000D01*
X128574000Y-142350000D02*
X139300000Y-142350000D01*
X126800000Y-142350000D02*
X128574000Y-142350000D01*
X77900000Y-129450000D02*
X79674000Y-129450000D01*
X90400000Y-129450000D02*
X94150000Y-129450000D01*
X94150000Y-129450000D02*
X106650000Y-129450000D01*
X108726000Y-129450000D02*
X106650000Y-129450000D01*
X110500000Y-129450000D02*
X108726000Y-129450000D01*
X110500000Y-129450000D02*
X123000000Y-129450000D01*
X124774000Y-129450000D02*
X126800000Y-129450000D01*
X123000000Y-129450000D02*
X124774000Y-129450000D01*
X126800000Y-129450000D02*
X139300000Y-129450000D01*
X84000000Y-142350000D02*
X90400000Y-142350000D01*
X83950000Y-129450000D02*
X90400000Y-129450000D01*
X79674000Y-129450000D02*
X82000000Y-129450000D01*
X94150000Y-142350000D02*
X106650000Y-142350000D01*
X82150000Y-142350000D02*
X84000000Y-142350000D01*
X82000000Y-129450000D02*
X83950000Y-129450000D01*
X82000000Y-142350000D02*
X82150000Y-142350000D01*
X78560400Y-142350000D02*
X82000000Y-142350000D01*
X149685001Y-68425001D02*
X160425001Y-68425001D01*
X148160000Y-66900000D02*
X149685001Y-68425001D01*
X162630000Y-70630000D02*
X169150000Y-70630000D01*
X160425001Y-68425001D02*
X162630000Y-70630000D01*
X106100000Y-52225000D02*
X156425000Y-52225000D01*
X157100000Y-52900000D02*
X157100000Y-55010000D01*
X156425000Y-52225000D02*
X157100000Y-52900000D01*
X170840001Y-74019999D02*
X171690000Y-73170000D01*
X170514999Y-74345001D02*
X170840001Y-74019999D01*
X168396001Y-74345001D02*
X170514999Y-74345001D01*
X167351000Y-73300000D02*
X168396001Y-74345001D01*
X159250000Y-73300000D02*
X167351000Y-73300000D01*
X103500000Y-88950000D02*
X103450000Y-89000000D01*
X103500000Y-87900000D02*
X103500000Y-88950000D01*
X103450000Y-89000000D02*
X103450000Y-93450000D01*
X104100000Y-94100000D02*
X166650000Y-94100000D01*
X103450000Y-93450000D02*
X104100000Y-94100000D01*
X145864999Y-53934999D02*
X146190001Y-54260001D01*
X146190001Y-54260001D02*
X146940000Y-55010000D01*
X97015001Y-53934999D02*
X145864999Y-53934999D01*
X95940000Y-55010000D02*
X97015001Y-53934999D01*
X170514999Y-76885001D02*
X170840001Y-76559999D01*
X161212001Y-76885001D02*
X170514999Y-76885001D01*
X160947002Y-77150000D02*
X161212001Y-76885001D01*
X170840001Y-76559999D02*
X171690000Y-75710000D01*
X147100000Y-77150000D02*
X160947002Y-77150000D01*
X97350000Y-82200000D02*
X170500000Y-82200000D01*
X162224000Y-90950000D02*
X172950000Y-90950000D01*
X160450000Y-90950000D02*
X162224000Y-90950000D01*
X99010000Y-66700000D02*
X98960000Y-66750000D01*
X107500000Y-66700000D02*
X99010000Y-66700000D01*
X98960000Y-66750000D02*
X96410010Y-64200010D01*
X82347056Y-58250000D02*
X84200000Y-60102944D01*
X80650000Y-58250000D02*
X82347056Y-58250000D01*
X84200000Y-63200020D02*
X85199990Y-64200010D01*
X84200000Y-60102944D02*
X84200000Y-63200020D01*
X96410010Y-64200010D02*
X85199990Y-64200010D01*
X114200000Y-66750000D02*
X117350000Y-66750000D01*
X112950000Y-65500000D02*
X114200000Y-66750000D01*
X105100000Y-65500000D02*
X112950000Y-65500000D01*
X130300000Y-58250000D02*
X117350000Y-58250000D01*
X119330000Y-80280000D02*
X119350000Y-80300000D01*
X111120000Y-80280000D02*
X119330000Y-80280000D01*
X172950000Y-85950000D02*
X160450000Y-85950000D01*
X173000000Y-137350000D02*
X160500000Y-137350000D01*
X126800000Y-124450000D02*
X130350000Y-124450000D01*
X130350000Y-124450000D02*
X139300000Y-124450000D01*
X130400000Y-98700000D02*
X139300000Y-98700000D01*
X126800000Y-98700000D02*
X130400000Y-98700000D01*
X156991348Y-135200000D02*
X130350000Y-135200000D01*
X157689600Y-135200000D02*
X156991348Y-135200000D01*
X159839600Y-137350000D02*
X157689600Y-135200000D01*
X160500000Y-137350000D02*
X159839600Y-137350000D01*
X143758652Y-100500000D02*
X154200000Y-100500000D01*
X142874000Y-100500000D02*
X143758652Y-100500000D01*
X141074000Y-98700000D02*
X142874000Y-100500000D01*
X139300000Y-98700000D02*
X141074000Y-98700000D01*
X145680000Y-80280000D02*
X154180000Y-80280000D01*
X154180000Y-80280000D02*
X154200000Y-80300000D01*
X171226000Y-124450000D02*
X160500000Y-124450000D01*
X173000000Y-124450000D02*
X171226000Y-124450000D01*
X123150000Y-90300000D02*
X123000000Y-90450000D01*
X143100000Y-90300000D02*
X123150000Y-90300000D01*
X152650000Y-90300000D02*
X143100000Y-90300000D01*
X110500000Y-124450000D02*
X119150000Y-124450000D01*
X119150000Y-124450000D02*
X123000000Y-124450000D01*
X119100000Y-98700000D02*
X123050000Y-98700000D01*
X110550000Y-98700000D02*
X119100000Y-98700000D01*
X173000000Y-111550000D02*
X171226000Y-111550000D01*
X94200000Y-98700000D02*
X103650000Y-98700000D01*
X103650000Y-98700000D02*
X106700000Y-98700000D01*
X103650000Y-124450000D02*
X106650000Y-124450000D01*
X94150000Y-124450000D02*
X103650000Y-124450000D01*
X107360400Y-98700000D02*
X110010400Y-101350000D01*
X110010400Y-101350000D02*
X141450000Y-101350000D01*
X106700000Y-98700000D02*
X107360400Y-98700000D01*
X166800000Y-111550000D02*
X160500000Y-111550000D01*
X171226000Y-111550000D02*
X166800000Y-111550000D01*
X165650000Y-101350000D02*
X141450000Y-101350000D01*
X166700000Y-101350000D02*
X165650000Y-101350000D01*
X141750000Y-60500000D02*
X152000000Y-60500000D01*
X77900000Y-98700000D02*
X81450000Y-98700000D01*
X171226000Y-98700000D02*
X160500000Y-98700000D01*
X173000000Y-98700000D02*
X171226000Y-98700000D01*
X94158652Y-96400000D02*
X138100000Y-96400000D01*
X91060400Y-98700000D02*
X93360400Y-96400000D01*
X93360400Y-96400000D02*
X94158652Y-96400000D01*
X90400000Y-98700000D02*
X91060400Y-98700000D01*
X160500000Y-97586400D02*
X160500000Y-98700000D01*
X159313600Y-96400000D02*
X160500000Y-97586400D01*
X138100000Y-96400000D02*
X159313600Y-96400000D01*
X144360000Y-55050000D02*
X144400000Y-55010000D01*
X139150000Y-55050000D02*
X144360000Y-55050000D01*
X81450000Y-98700000D02*
X90400000Y-98700000D01*
X81350000Y-124450000D02*
X90400000Y-124450000D01*
X77900000Y-124450000D02*
X81350000Y-124450000D01*
X144300000Y-137350000D02*
X156800000Y-137350000D01*
X126800000Y-137350000D02*
X128574000Y-137350000D01*
X141074000Y-137350000D02*
X144300000Y-137350000D01*
X139300000Y-137350000D02*
X141074000Y-137350000D01*
X128574000Y-137350000D02*
X133200000Y-137350000D01*
X133200000Y-137350000D02*
X139300000Y-137350000D01*
X133250000Y-111550000D02*
X139300000Y-111550000D01*
X126800000Y-111550000D02*
X133250000Y-111550000D01*
X131850000Y-70250000D02*
X106100000Y-70250000D01*
X110500000Y-111550000D02*
X112274000Y-111550000D01*
X158158652Y-124450000D02*
X156800000Y-124450000D01*
X144300000Y-124450000D02*
X158158652Y-124450000D01*
X110500000Y-137350000D02*
X116600000Y-137350000D01*
X116600000Y-137350000D02*
X123000000Y-137350000D01*
X116450000Y-111550000D02*
X123000000Y-111550000D01*
X112274000Y-111550000D02*
X116450000Y-111550000D01*
X140426000Y-122350000D02*
X139541348Y-122350000D01*
X142526000Y-124450000D02*
X140426000Y-122350000D01*
X139541348Y-122350000D02*
X116600000Y-122350000D01*
X144300000Y-124450000D02*
X142526000Y-124450000D01*
X123000000Y-112663600D02*
X123000000Y-111550000D01*
X123386400Y-113050000D02*
X123000000Y-112663600D01*
X132150000Y-113050000D02*
X123386400Y-113050000D01*
X104850000Y-56300000D02*
X103560000Y-55010000D01*
X129300000Y-56300000D02*
X104850000Y-56300000D01*
X94150000Y-111550000D02*
X95924000Y-111550000D01*
X94150000Y-137350000D02*
X95924000Y-137350000D01*
X95924000Y-137350000D02*
X100400000Y-137350000D01*
X100400000Y-137350000D02*
X106650000Y-137350000D01*
X100400000Y-111550000D02*
X106650000Y-111550000D01*
X95924000Y-111550000D02*
X100400000Y-111550000D01*
X107310400Y-111550000D02*
X109410400Y-109450000D01*
X109410400Y-109450000D02*
X129300000Y-109450000D01*
X106650000Y-111550000D02*
X107310400Y-111550000D01*
X144300000Y-110436400D02*
X144300000Y-111550000D01*
X143313600Y-109450000D02*
X144300000Y-110436400D01*
X129300000Y-109450000D02*
X143313600Y-109450000D01*
X144300000Y-111550000D02*
X150700000Y-111550000D01*
X150700000Y-111550000D02*
X156800000Y-111550000D01*
X126750000Y-60350000D02*
X101000000Y-60350000D01*
X77900000Y-111550000D02*
X79674000Y-111550000D01*
X85950000Y-137350000D02*
X90400000Y-137350000D01*
X86000000Y-111550000D02*
X90400000Y-111550000D01*
X77900000Y-137350000D02*
X84150000Y-137350000D01*
X84150000Y-137350000D02*
X85950000Y-137350000D01*
X84200000Y-111550000D02*
X86000000Y-111550000D01*
X79674000Y-111550000D02*
X84200000Y-111550000D01*
X95708652Y-107650000D02*
X150600000Y-107650000D01*
X94960400Y-107650000D02*
X95708652Y-107650000D01*
X91060400Y-111550000D02*
X94960400Y-107650000D01*
X90400000Y-111550000D02*
X91060400Y-111550000D01*
X150700000Y-98700000D02*
X156800000Y-98700000D01*
X144300000Y-98700000D02*
X150700000Y-98700000D01*
X127950000Y-95450000D02*
X127900000Y-95400000D01*
X144250000Y-95450000D02*
X127950000Y-95450000D01*
D23*
X129200000Y-75400000D02*
X145200000Y-75400000D01*
X127900000Y-76700000D02*
X129200000Y-75400000D01*
X127900000Y-80280000D02*
X127900000Y-76700000D01*
D22*
X90400000Y-116550000D02*
X94150000Y-116550000D01*
X95924000Y-116550000D02*
X106650000Y-116550000D01*
X94150000Y-116550000D02*
X95924000Y-116550000D01*
X108424000Y-116550000D02*
X110500000Y-116550000D01*
X106650000Y-116550000D02*
X108424000Y-116550000D01*
X112274000Y-116550000D02*
X123000000Y-116550000D01*
X110500000Y-116550000D02*
X112274000Y-116550000D01*
X124774000Y-116550000D02*
X126800000Y-116550000D01*
X123000000Y-116550000D02*
X124774000Y-116550000D01*
X126800000Y-116550000D02*
X139300000Y-116550000D01*
X77900000Y-103700000D02*
X86400000Y-103700000D01*
X90400000Y-103700000D02*
X94200000Y-103700000D01*
X94200000Y-103700000D02*
X106700000Y-103700000D01*
X108474000Y-103700000D02*
X110550000Y-103700000D01*
X106700000Y-103700000D02*
X108474000Y-103700000D01*
X110550000Y-103700000D02*
X123050000Y-103700000D01*
X124824000Y-103700000D02*
X126800000Y-103700000D01*
X123050000Y-103700000D02*
X124824000Y-103700000D01*
X128574000Y-103700000D02*
X139300000Y-103700000D01*
X126800000Y-103700000D02*
X128574000Y-103700000D01*
X148110000Y-58400000D02*
X148160000Y-58350000D01*
X142750000Y-58400000D02*
X148110000Y-58400000D01*
X148160000Y-58350000D02*
X157000000Y-58350000D01*
X167772918Y-65374999D02*
X167947919Y-65550000D01*
X162667999Y-65374999D02*
X167772918Y-65374999D01*
X162542998Y-65500000D02*
X162667999Y-65374999D01*
X167947919Y-65550000D02*
X169150000Y-65550000D01*
X157000000Y-65500000D02*
X162542998Y-65500000D01*
X86400000Y-103700000D02*
X90400000Y-103700000D01*
X86400000Y-116550000D02*
X90400000Y-116550000D01*
X77900000Y-116550000D02*
X86400000Y-116550000D01*
X146750000Y-72300000D02*
X146850000Y-72400000D01*
X95950000Y-72300000D02*
X146750000Y-72300000D01*
X149265000Y-72575000D02*
X165550000Y-72575000D01*
X146940000Y-70250000D02*
X149265000Y-72575000D01*
X167221409Y-69265001D02*
X170514999Y-69265001D01*
X166586410Y-69900000D02*
X167221409Y-69265001D01*
X170840001Y-68939999D02*
X171690000Y-68090000D01*
X170514999Y-69265001D02*
X170840001Y-68939999D01*
X165550000Y-69900000D02*
X166586410Y-69900000D01*
D24*
G36*
X97840226Y-52196063D02*
G01*
X97696063Y-52340226D01*
X97582795Y-52509744D01*
X97504774Y-52698102D01*
X97465000Y-52898061D01*
X97465000Y-53101939D01*
X97479532Y-53174999D01*
X97052323Y-53174999D01*
X97015001Y-53171323D01*
X96977678Y-53174999D01*
X96977668Y-53174999D01*
X96866015Y-53185996D01*
X96722754Y-53229453D01*
X96590724Y-53300025D01*
X96573250Y-53314366D01*
X96475000Y-53394998D01*
X96451202Y-53423996D01*
X96221365Y-53653833D01*
X96076411Y-53625000D01*
X95803589Y-53625000D01*
X95536011Y-53678225D01*
X95283957Y-53782629D01*
X95057114Y-53934201D01*
X94864201Y-54127114D01*
X94712629Y-54353957D01*
X94670000Y-54456873D01*
X94627371Y-54353957D01*
X94475799Y-54127114D01*
X94282886Y-53934201D01*
X94056043Y-53782629D01*
X93803989Y-53678225D01*
X93536411Y-53625000D01*
X93263589Y-53625000D01*
X92996011Y-53678225D01*
X92743957Y-53782629D01*
X92517114Y-53934201D01*
X92324201Y-54127114D01*
X92172629Y-54353957D01*
X92068225Y-54606011D01*
X92015000Y-54873589D01*
X92015000Y-55146411D01*
X92068225Y-55413989D01*
X92161842Y-55640000D01*
X83803711Y-55640000D01*
X83759774Y-55596063D01*
X83590256Y-55482795D01*
X83401898Y-55404774D01*
X83201939Y-55365000D01*
X82998061Y-55365000D01*
X82798102Y-55404774D01*
X82609744Y-55482795D01*
X82440226Y-55596063D01*
X82296063Y-55740226D01*
X82182795Y-55909744D01*
X82104774Y-56098102D01*
X82065000Y-56298061D01*
X82065000Y-56501939D01*
X82104774Y-56701898D01*
X82182795Y-56890256D01*
X82296063Y-57059774D01*
X82440226Y-57203937D01*
X82609744Y-57317205D01*
X82798102Y-57395226D01*
X82998061Y-57435000D01*
X83201939Y-57435000D01*
X83401898Y-57395226D01*
X83590256Y-57317205D01*
X83759774Y-57203937D01*
X83803711Y-57160000D01*
X94410704Y-57160000D01*
X94356871Y-57225596D01*
X94186479Y-57544378D01*
X94081552Y-57890277D01*
X94046122Y-58250000D01*
X94081552Y-58609723D01*
X94186479Y-58955622D01*
X94356871Y-59274404D01*
X94586181Y-59553819D01*
X94865596Y-59783129D01*
X95184378Y-59953521D01*
X95530277Y-60058448D01*
X95799861Y-60085000D01*
X95980139Y-60085000D01*
X96249723Y-60058448D01*
X96595622Y-59953521D01*
X96914404Y-59783129D01*
X97193819Y-59553819D01*
X97423129Y-59274404D01*
X97425093Y-59270729D01*
X97524662Y-59419744D01*
X97780256Y-59675338D01*
X98080801Y-59876156D01*
X98414750Y-60014482D01*
X98769268Y-60085000D01*
X99130732Y-60085000D01*
X99485250Y-60014482D01*
X99819199Y-59876156D01*
X100119744Y-59675338D01*
X100375338Y-59419744D01*
X100576156Y-59119199D01*
X100714482Y-58785250D01*
X100785000Y-58430732D01*
X100785000Y-58069268D01*
X100714482Y-57714750D01*
X100576156Y-57380801D01*
X100428621Y-57160000D01*
X102635199Y-57160000D01*
X104236200Y-58761002D01*
X104259999Y-58790001D01*
X104288997Y-58813799D01*
X104375723Y-58884974D01*
X104499244Y-58950998D01*
X104507753Y-58955546D01*
X104651014Y-58999003D01*
X104762667Y-59010000D01*
X104762676Y-59010000D01*
X104799999Y-59013676D01*
X104837322Y-59010000D01*
X112515545Y-59010000D01*
X112656871Y-59274404D01*
X112886181Y-59553819D01*
X112930268Y-59590000D01*
X101703711Y-59590000D01*
X101659774Y-59546063D01*
X101490256Y-59432795D01*
X101301898Y-59354774D01*
X101101939Y-59315000D01*
X100898061Y-59315000D01*
X100698102Y-59354774D01*
X100509744Y-59432795D01*
X100340226Y-59546063D01*
X100196063Y-59690226D01*
X100082795Y-59859744D01*
X100004774Y-60048102D01*
X99965000Y-60248061D01*
X99965000Y-60451939D01*
X100004774Y-60651898D01*
X100082795Y-60840256D01*
X100196063Y-61009774D01*
X100340226Y-61153937D01*
X100509744Y-61267205D01*
X100698102Y-61345226D01*
X100898061Y-61385000D01*
X101101939Y-61385000D01*
X101301898Y-61345226D01*
X101490256Y-61267205D01*
X101659774Y-61153937D01*
X101703711Y-61110000D01*
X113005421Y-61110000D01*
X112854125Y-61241954D01*
X112634361Y-61526743D01*
X112474379Y-61848934D01*
X112401805Y-62088195D01*
X112518568Y-62373000D01*
X114063000Y-62373000D01*
X114063000Y-62353000D01*
X114317000Y-62353000D01*
X114317000Y-62373000D01*
X114337000Y-62373000D01*
X114337000Y-62627000D01*
X114317000Y-62627000D01*
X114317000Y-62647000D01*
X114063000Y-62647000D01*
X114063000Y-62627000D01*
X112518568Y-62627000D01*
X112401805Y-62911805D01*
X112474379Y-63151066D01*
X112634361Y-63473257D01*
X112854125Y-63758046D01*
X112890763Y-63790000D01*
X109303711Y-63790000D01*
X109259774Y-63746063D01*
X109090256Y-63632795D01*
X108901898Y-63554774D01*
X108701939Y-63515000D01*
X108498061Y-63515000D01*
X108298102Y-63554774D01*
X108109744Y-63632795D01*
X107940226Y-63746063D01*
X107796063Y-63890226D01*
X107682795Y-64059744D01*
X107604774Y-64248102D01*
X107565000Y-64448061D01*
X107565000Y-64651939D01*
X107582516Y-64740000D01*
X105803711Y-64740000D01*
X105759774Y-64696063D01*
X105590256Y-64582795D01*
X105401898Y-64504774D01*
X105201939Y-64465000D01*
X104998061Y-64465000D01*
X104798102Y-64504774D01*
X104609744Y-64582795D01*
X104440226Y-64696063D01*
X104296063Y-64840226D01*
X104182795Y-65009744D01*
X104104774Y-65198102D01*
X104065000Y-65398061D01*
X104065000Y-65601939D01*
X104104774Y-65801898D01*
X104161978Y-65940000D01*
X100607730Y-65940000D01*
X100493129Y-65725596D01*
X100263819Y-65446181D01*
X99984404Y-65216871D01*
X99665622Y-65046479D01*
X99319723Y-64941552D01*
X99050139Y-64915000D01*
X98869861Y-64915000D01*
X98600277Y-64941552D01*
X98313382Y-65028580D01*
X97128112Y-63843311D01*
X97225875Y-63758046D01*
X97417628Y-63509556D01*
X97524662Y-63669744D01*
X97780256Y-63925338D01*
X98080801Y-64126156D01*
X98414750Y-64264482D01*
X98769268Y-64335000D01*
X99130732Y-64335000D01*
X99485250Y-64264482D01*
X99819199Y-64126156D01*
X100119744Y-63925338D01*
X100375338Y-63669744D01*
X100576156Y-63369199D01*
X100714482Y-63035250D01*
X100785000Y-62680732D01*
X100785000Y-62319268D01*
X100714482Y-61964750D01*
X100576156Y-61630801D01*
X100375338Y-61330256D01*
X100119744Y-61074662D01*
X99819199Y-60873844D01*
X99485250Y-60735518D01*
X99130732Y-60665000D01*
X98769268Y-60665000D01*
X98414750Y-60735518D01*
X98305551Y-60780750D01*
X97988803Y-60464002D01*
X97965000Y-60434998D01*
X97849275Y-60340025D01*
X97717246Y-60269453D01*
X97573985Y-60225996D01*
X97462332Y-60214999D01*
X97462321Y-60214999D01*
X97424999Y-60211323D01*
X97387677Y-60214999D01*
X87228710Y-60214999D01*
X87209774Y-60196063D01*
X87040256Y-60082795D01*
X86851898Y-60004774D01*
X86651939Y-59965000D01*
X86448061Y-59965000D01*
X86248102Y-60004774D01*
X86059744Y-60082795D01*
X85890226Y-60196063D01*
X85746063Y-60340226D01*
X85632795Y-60509744D01*
X85554774Y-60698102D01*
X85515000Y-60898061D01*
X85515000Y-61101939D01*
X85554774Y-61301898D01*
X85632795Y-61490256D01*
X85746063Y-61659774D01*
X85890226Y-61803937D01*
X86059744Y-61917205D01*
X86248102Y-61995226D01*
X86448061Y-62035000D01*
X86651939Y-62035000D01*
X86851898Y-61995226D01*
X87040256Y-61917205D01*
X87209774Y-61803937D01*
X87278712Y-61734999D01*
X94230953Y-61734999D01*
X94174379Y-61848934D01*
X94101805Y-62088195D01*
X94218568Y-62373000D01*
X95763000Y-62373000D01*
X95763000Y-62353000D01*
X96017000Y-62353000D01*
X96017000Y-62373000D01*
X96037000Y-62373000D01*
X96037000Y-62627000D01*
X96017000Y-62627000D01*
X96017000Y-62647000D01*
X95763000Y-62647000D01*
X95763000Y-62627000D01*
X94218568Y-62627000D01*
X94101805Y-62911805D01*
X94174379Y-63151066D01*
X94317852Y-63440010D01*
X85514793Y-63440010D01*
X84960000Y-62885219D01*
X84960000Y-60140277D01*
X84963677Y-60102944D01*
X84949003Y-59953958D01*
X84905546Y-59810697D01*
X84834974Y-59678668D01*
X84763799Y-59591941D01*
X84740001Y-59562943D01*
X84711004Y-59539146D01*
X82910860Y-57739003D01*
X82887057Y-57709999D01*
X82771332Y-57615026D01*
X82639303Y-57544454D01*
X82496042Y-57500997D01*
X82384389Y-57490000D01*
X82384378Y-57490000D01*
X82347056Y-57486324D01*
X82320931Y-57488897D01*
X82276156Y-57380801D01*
X82075338Y-57080256D01*
X81819744Y-56824662D01*
X81519199Y-56623844D01*
X81185250Y-56485518D01*
X80830732Y-56415000D01*
X80469268Y-56415000D01*
X80114750Y-56485518D01*
X79780801Y-56623844D01*
X79480256Y-56824662D01*
X79224662Y-57080256D01*
X79023844Y-57380801D01*
X78885518Y-57714750D01*
X78815000Y-58069268D01*
X78815000Y-58430732D01*
X78885518Y-58785250D01*
X79023844Y-59119199D01*
X79224662Y-59419744D01*
X79480256Y-59675338D01*
X79780801Y-59876156D01*
X80114750Y-60014482D01*
X80469268Y-60085000D01*
X80830732Y-60085000D01*
X81185250Y-60014482D01*
X81519199Y-59876156D01*
X81819744Y-59675338D01*
X82075338Y-59419744D01*
X82222202Y-59199947D01*
X83440000Y-60417746D01*
X83440001Y-63162688D01*
X83436324Y-63200020D01*
X83440001Y-63237353D01*
X83450998Y-63349006D01*
X83464180Y-63392462D01*
X83494454Y-63492266D01*
X83565026Y-63624296D01*
X83614845Y-63685000D01*
X83660000Y-63740021D01*
X83688998Y-63763819D01*
X84636195Y-64711018D01*
X84659989Y-64740011D01*
X84688982Y-64763805D01*
X84688986Y-64763809D01*
X84734302Y-64800998D01*
X84775714Y-64834984D01*
X84907743Y-64905556D01*
X85051004Y-64949013D01*
X85162657Y-64960010D01*
X85162666Y-64960010D01*
X85199989Y-64963686D01*
X85237312Y-64960010D01*
X95469429Y-64960010D01*
X95184378Y-65046479D01*
X94865596Y-65216871D01*
X94586181Y-65446181D01*
X94356871Y-65725596D01*
X94186479Y-66044378D01*
X94081552Y-66390277D01*
X94046122Y-66750000D01*
X94081552Y-67109723D01*
X94186479Y-67455622D01*
X94356871Y-67774404D01*
X94586181Y-68053819D01*
X94865596Y-68283129D01*
X95184378Y-68453521D01*
X95530277Y-68558448D01*
X95799861Y-68585000D01*
X95980139Y-68585000D01*
X96249723Y-68558448D01*
X96595622Y-68453521D01*
X96914404Y-68283129D01*
X97193819Y-68053819D01*
X97423129Y-67774404D01*
X97425000Y-67770904D01*
X97426871Y-67774404D01*
X97656181Y-68053819D01*
X97935596Y-68283129D01*
X98254378Y-68453521D01*
X98600277Y-68558448D01*
X98869861Y-68585000D01*
X99050139Y-68585000D01*
X99319723Y-68558448D01*
X99665622Y-68453521D01*
X99984404Y-68283129D01*
X100263819Y-68053819D01*
X100493129Y-67774404D01*
X100661181Y-67460000D01*
X106796289Y-67460000D01*
X106840226Y-67503937D01*
X107009744Y-67617205D01*
X107198102Y-67695226D01*
X107398061Y-67735000D01*
X107601939Y-67735000D01*
X107801898Y-67695226D01*
X107990256Y-67617205D01*
X108159774Y-67503937D01*
X108303937Y-67359774D01*
X108417205Y-67190256D01*
X108495226Y-67001898D01*
X108535000Y-66801939D01*
X108535000Y-66598061D01*
X108495226Y-66398102D01*
X108438022Y-66260000D01*
X112426517Y-66260000D01*
X112365000Y-66569268D01*
X112365000Y-66930732D01*
X112435518Y-67285250D01*
X112573844Y-67619199D01*
X112774662Y-67919744D01*
X113030256Y-68175338D01*
X113330801Y-68376156D01*
X113424576Y-68414999D01*
X104672323Y-68414999D01*
X104635001Y-68411323D01*
X104597678Y-68414999D01*
X104597668Y-68414999D01*
X104486015Y-68425996D01*
X104342754Y-68469453D01*
X104210724Y-68540025D01*
X104136423Y-68601003D01*
X104095000Y-68634998D01*
X104071202Y-68663996D01*
X103841365Y-68893833D01*
X103696411Y-68865000D01*
X103423589Y-68865000D01*
X103156011Y-68918225D01*
X102903957Y-69022629D01*
X102677114Y-69174201D01*
X102484201Y-69367114D01*
X102332629Y-69593957D01*
X102290000Y-69696873D01*
X102247371Y-69593957D01*
X102095799Y-69367114D01*
X101902886Y-69174201D01*
X101676043Y-69022629D01*
X101423989Y-68918225D01*
X101156411Y-68865000D01*
X100883589Y-68865000D01*
X100616011Y-68918225D01*
X100363957Y-69022629D01*
X100137114Y-69174201D01*
X99944201Y-69367114D01*
X99792629Y-69593957D01*
X99750000Y-69696873D01*
X99707371Y-69593957D01*
X99555799Y-69367114D01*
X99362886Y-69174201D01*
X99136043Y-69022629D01*
X98883989Y-68918225D01*
X98616411Y-68865000D01*
X98343589Y-68865000D01*
X98076011Y-68918225D01*
X97823957Y-69022629D01*
X97597114Y-69174201D01*
X97404201Y-69367114D01*
X97252629Y-69593957D01*
X97210000Y-69696873D01*
X97167371Y-69593957D01*
X97015799Y-69367114D01*
X96822886Y-69174201D01*
X96596043Y-69022629D01*
X96343989Y-68918225D01*
X96076411Y-68865000D01*
X95803589Y-68865000D01*
X95536011Y-68918225D01*
X95283957Y-69022629D01*
X95057114Y-69174201D01*
X94864201Y-69367114D01*
X94786445Y-69483483D01*
X94775812Y-69375518D01*
X94739502Y-69255820D01*
X94680537Y-69145506D01*
X94601185Y-69048815D01*
X94504494Y-68969463D01*
X94394180Y-68910498D01*
X94274482Y-68874188D01*
X94150000Y-68861928D01*
X92650000Y-68861928D01*
X92525518Y-68874188D01*
X92405820Y-68910498D01*
X92295506Y-68969463D01*
X92198815Y-69048815D01*
X92119463Y-69145506D01*
X92060498Y-69255820D01*
X92024188Y-69375518D01*
X92011928Y-69500000D01*
X92011928Y-71000000D01*
X92024188Y-71124482D01*
X92060498Y-71244180D01*
X92119463Y-71354494D01*
X92198815Y-71451185D01*
X92295506Y-71530537D01*
X92405820Y-71589502D01*
X92525518Y-71625812D01*
X92650000Y-71638072D01*
X92745674Y-71638072D01*
X92765026Y-71674276D01*
X92835378Y-71759999D01*
X92860000Y-71790001D01*
X92888996Y-71813797D01*
X92911200Y-71836002D01*
X92935000Y-71865002D01*
X93050725Y-71959975D01*
X93182754Y-72030547D01*
X93326015Y-72074004D01*
X93437668Y-72085001D01*
X93437678Y-72085001D01*
X93475000Y-72088677D01*
X93512323Y-72085001D01*
X94937489Y-72085001D01*
X94915000Y-72198061D01*
X94915000Y-72401939D01*
X94954774Y-72601898D01*
X95032795Y-72790256D01*
X95146063Y-72959774D01*
X95290226Y-73103937D01*
X95459744Y-73217205D01*
X95648102Y-73295226D01*
X95848061Y-73335000D01*
X96051939Y-73335000D01*
X96251898Y-73295226D01*
X96440256Y-73217205D01*
X96609774Y-73103937D01*
X96653711Y-73060000D01*
X97452407Y-73060000D01*
X97415000Y-73248061D01*
X97415000Y-73451939D01*
X97454774Y-73651898D01*
X97532795Y-73840256D01*
X97646063Y-74009774D01*
X97790226Y-74153937D01*
X97959744Y-74267205D01*
X98148102Y-74345226D01*
X98348061Y-74385000D01*
X98551939Y-74385000D01*
X98751898Y-74345226D01*
X98940256Y-74267205D01*
X99109774Y-74153937D01*
X99153711Y-74110000D01*
X99972571Y-74110000D01*
X99965000Y-74148061D01*
X99965000Y-74351939D01*
X100004774Y-74551898D01*
X100082795Y-74740256D01*
X100196063Y-74909774D01*
X100340226Y-75053937D01*
X100509744Y-75167205D01*
X100698102Y-75245226D01*
X100898061Y-75285000D01*
X101101939Y-75285000D01*
X101301898Y-75245226D01*
X101490256Y-75167205D01*
X101659774Y-75053937D01*
X101703711Y-75010000D01*
X102510604Y-75010000D01*
X102485363Y-75035241D01*
X102328320Y-75270273D01*
X102220147Y-75531426D01*
X102198550Y-75640000D01*
X89575507Y-75640000D01*
X89520466Y-75507118D01*
X89314175Y-75198382D01*
X89051618Y-74935825D01*
X88742882Y-74729534D01*
X88399834Y-74587439D01*
X88035656Y-74515000D01*
X87664344Y-74515000D01*
X87300166Y-74587439D01*
X86957118Y-74729534D01*
X86648382Y-74935825D01*
X86385825Y-75198382D01*
X86179534Y-75507118D01*
X86037439Y-75850166D01*
X85965000Y-76214344D01*
X85965000Y-76585656D01*
X86037439Y-76949834D01*
X86179534Y-77292882D01*
X86385825Y-77601618D01*
X86648382Y-77864175D01*
X86957118Y-78070466D01*
X87300166Y-78212561D01*
X87664344Y-78285000D01*
X88035656Y-78285000D01*
X88399834Y-78212561D01*
X88634740Y-78115260D01*
X88537439Y-78350166D01*
X88465000Y-78714344D01*
X88465000Y-79085656D01*
X88537439Y-79449834D01*
X88679534Y-79792882D01*
X88885825Y-80101618D01*
X89148382Y-80364175D01*
X89457118Y-80570466D01*
X89800166Y-80712561D01*
X90164344Y-80785000D01*
X90535656Y-80785000D01*
X90899834Y-80712561D01*
X91242882Y-80570466D01*
X91551618Y-80364175D01*
X91814175Y-80101618D01*
X92020466Y-79792882D01*
X92162561Y-79449834D01*
X92235000Y-79085656D01*
X92235000Y-78714344D01*
X92162561Y-78350166D01*
X92020466Y-78007118D01*
X91814175Y-77698382D01*
X91551618Y-77435825D01*
X91242882Y-77229534D01*
X91075012Y-77160000D01*
X102827962Y-77160000D01*
X102920273Y-77221680D01*
X103181426Y-77329853D01*
X103458665Y-77385000D01*
X103741335Y-77385000D01*
X104018574Y-77329853D01*
X104279727Y-77221680D01*
X104514759Y-77064637D01*
X104714637Y-76864759D01*
X104871680Y-76629727D01*
X104979853Y-76368574D01*
X105035000Y-76091335D01*
X105035000Y-75808665D01*
X104979853Y-75531426D01*
X104871680Y-75270273D01*
X104714637Y-75035241D01*
X104689396Y-75010000D01*
X107510604Y-75010000D01*
X107485363Y-75035241D01*
X107328320Y-75270273D01*
X107220147Y-75531426D01*
X107165000Y-75808665D01*
X107165000Y-76091335D01*
X107220147Y-76368574D01*
X107328320Y-76629727D01*
X107485363Y-76864759D01*
X107685241Y-77064637D01*
X107920273Y-77221680D01*
X108181426Y-77329853D01*
X108458665Y-77385000D01*
X108741335Y-77385000D01*
X109018574Y-77329853D01*
X109279727Y-77221680D01*
X109514759Y-77064637D01*
X109714637Y-76864759D01*
X109871680Y-76629727D01*
X109979853Y-76368574D01*
X110035000Y-76091335D01*
X110035000Y-75808665D01*
X109979853Y-75531426D01*
X109871680Y-75270273D01*
X109714637Y-75035241D01*
X109689396Y-75010000D01*
X127984868Y-75010000D01*
X127136860Y-75858009D01*
X127093552Y-75893551D01*
X126951717Y-76066377D01*
X126929601Y-76107754D01*
X126846324Y-76263554D01*
X126781423Y-76477502D01*
X126759509Y-76700000D01*
X126765001Y-76755761D01*
X126765000Y-79400997D01*
X126701068Y-79478899D01*
X126567818Y-79728192D01*
X126485764Y-79998691D01*
X126458057Y-80280000D01*
X126485764Y-80561309D01*
X126567818Y-80831808D01*
X126701068Y-81081101D01*
X126880392Y-81299608D01*
X127051460Y-81440000D01*
X124426801Y-81440000D01*
X124464759Y-81414637D01*
X124664637Y-81214759D01*
X124821680Y-80979727D01*
X124929853Y-80718574D01*
X124985000Y-80441335D01*
X124985000Y-80158665D01*
X124929853Y-79881426D01*
X124821680Y-79620273D01*
X124664637Y-79385241D01*
X124464759Y-79185363D01*
X124229727Y-79028320D01*
X123968574Y-78920147D01*
X123691335Y-78865000D01*
X123408665Y-78865000D01*
X123131426Y-78920147D01*
X122870273Y-79028320D01*
X122635241Y-79185363D01*
X122435363Y-79385241D01*
X122278320Y-79620273D01*
X122170147Y-79881426D01*
X122115000Y-80158665D01*
X122115000Y-80441335D01*
X122170147Y-80718574D01*
X122278320Y-80979727D01*
X122435363Y-81214759D01*
X122635241Y-81414637D01*
X122673199Y-81440000D01*
X111968540Y-81440000D01*
X112139608Y-81299608D01*
X112318932Y-81081101D01*
X112340901Y-81040000D01*
X118626289Y-81040000D01*
X118690226Y-81103937D01*
X118859744Y-81217205D01*
X119048102Y-81295226D01*
X119248061Y-81335000D01*
X119451939Y-81335000D01*
X119651898Y-81295226D01*
X119840256Y-81217205D01*
X120009774Y-81103937D01*
X120153937Y-80959774D01*
X120267205Y-80790256D01*
X120345226Y-80601898D01*
X120385000Y-80401939D01*
X120385000Y-80198061D01*
X120345226Y-79998102D01*
X120267205Y-79809744D01*
X120153937Y-79640226D01*
X120009774Y-79496063D01*
X119840256Y-79382795D01*
X119651898Y-79304774D01*
X119451939Y-79265000D01*
X119248061Y-79265000D01*
X119048102Y-79304774D01*
X118859744Y-79382795D01*
X118690226Y-79496063D01*
X118666289Y-79520000D01*
X112340901Y-79520000D01*
X112318932Y-79478899D01*
X112139608Y-79260392D01*
X111921101Y-79081068D01*
X111671808Y-78947818D01*
X111401309Y-78865764D01*
X111190492Y-78845000D01*
X111049508Y-78845000D01*
X110838691Y-78865764D01*
X110568192Y-78947818D01*
X110318899Y-79081068D01*
X110100392Y-79260392D01*
X109921068Y-79478899D01*
X109850000Y-79611858D01*
X109778932Y-79478899D01*
X109599608Y-79260392D01*
X109381101Y-79081068D01*
X109131808Y-78947818D01*
X108861309Y-78865764D01*
X108650492Y-78845000D01*
X108509508Y-78845000D01*
X108298691Y-78865764D01*
X108028192Y-78947818D01*
X107778899Y-79081068D01*
X107560392Y-79260392D01*
X107381068Y-79478899D01*
X107310000Y-79611858D01*
X107238932Y-79478899D01*
X107059608Y-79260392D01*
X106841101Y-79081068D01*
X106591808Y-78947818D01*
X106321309Y-78865764D01*
X106110492Y-78845000D01*
X105969508Y-78845000D01*
X105758691Y-78865764D01*
X105488192Y-78947818D01*
X105238899Y-79081068D01*
X105020392Y-79260392D01*
X104841068Y-79478899D01*
X104770000Y-79611858D01*
X104698932Y-79478899D01*
X104519608Y-79260392D01*
X104301101Y-79081068D01*
X104051808Y-78947818D01*
X103781309Y-78865764D01*
X103570492Y-78845000D01*
X103429508Y-78845000D01*
X103218691Y-78865764D01*
X102948192Y-78947818D01*
X102698899Y-79081068D01*
X102480392Y-79260392D01*
X102301068Y-79478899D01*
X102167818Y-79728192D01*
X102085764Y-79998691D01*
X102058057Y-80280000D01*
X102085764Y-80561309D01*
X102167818Y-80831808D01*
X102301068Y-81081101D01*
X102480392Y-81299608D01*
X102651460Y-81440000D01*
X100626801Y-81440000D01*
X100664759Y-81414637D01*
X100864637Y-81214759D01*
X101021680Y-80979727D01*
X101129853Y-80718574D01*
X101185000Y-80441335D01*
X101185000Y-80158665D01*
X101129853Y-79881426D01*
X101021680Y-79620273D01*
X100864637Y-79385241D01*
X100664759Y-79185363D01*
X100429727Y-79028320D01*
X100168574Y-78920147D01*
X99891335Y-78865000D01*
X99608665Y-78865000D01*
X99331426Y-78920147D01*
X99070273Y-79028320D01*
X98835241Y-79185363D01*
X98635363Y-79385241D01*
X98478320Y-79620273D01*
X98370147Y-79881426D01*
X98315000Y-80158665D01*
X98315000Y-80441335D01*
X98370147Y-80718574D01*
X98478320Y-80979727D01*
X98635363Y-81214759D01*
X98835241Y-81414637D01*
X98873199Y-81440000D01*
X98053711Y-81440000D01*
X98009774Y-81396063D01*
X97840256Y-81282795D01*
X97651898Y-81204774D01*
X97451939Y-81165000D01*
X97248061Y-81165000D01*
X97048102Y-81204774D01*
X96859744Y-81282795D01*
X96690226Y-81396063D01*
X96546063Y-81540226D01*
X96432795Y-81709744D01*
X96354774Y-81898102D01*
X96315000Y-82098061D01*
X96315000Y-82301939D01*
X96354774Y-82501898D01*
X96432795Y-82690256D01*
X96546063Y-82859774D01*
X96690226Y-83003937D01*
X96859744Y-83117205D01*
X97048102Y-83195226D01*
X97248061Y-83235000D01*
X97451939Y-83235000D01*
X97651898Y-83195226D01*
X97840256Y-83117205D01*
X98009774Y-83003937D01*
X98053711Y-82960000D01*
X105276289Y-82960000D01*
X105246063Y-82990226D01*
X105132795Y-83159744D01*
X105054774Y-83348102D01*
X105015000Y-83548061D01*
X105015000Y-83751939D01*
X105054774Y-83951898D01*
X105132795Y-84140256D01*
X105246063Y-84309774D01*
X105390226Y-84453937D01*
X105559744Y-84567205D01*
X105748102Y-84645226D01*
X105948061Y-84685000D01*
X106151939Y-84685000D01*
X106351898Y-84645226D01*
X106540256Y-84567205D01*
X106709774Y-84453937D01*
X106753711Y-84410000D01*
X120146289Y-84410000D01*
X120190226Y-84453937D01*
X120359744Y-84567205D01*
X120548102Y-84645226D01*
X120748061Y-84685000D01*
X120951939Y-84685000D01*
X121151898Y-84645226D01*
X121340256Y-84567205D01*
X121509774Y-84453937D01*
X121653937Y-84309774D01*
X121655591Y-84307298D01*
X122736903Y-84307298D01*
X123550000Y-85120395D01*
X124363097Y-84307298D01*
X124291514Y-84063329D01*
X124036004Y-83942429D01*
X123761816Y-83873700D01*
X123479488Y-83859783D01*
X123199870Y-83901213D01*
X122933708Y-83996397D01*
X122808486Y-84063329D01*
X122736903Y-84307298D01*
X121655591Y-84307298D01*
X121767205Y-84140256D01*
X121845226Y-83951898D01*
X121885000Y-83751939D01*
X121885000Y-83548061D01*
X121845226Y-83348102D01*
X121767205Y-83159744D01*
X121653937Y-82990226D01*
X121623711Y-82960000D01*
X169796289Y-82960000D01*
X169840226Y-83003937D01*
X170009744Y-83117205D01*
X170198102Y-83195226D01*
X170398061Y-83235000D01*
X170601939Y-83235000D01*
X170801898Y-83195226D01*
X170990256Y-83117205D01*
X171159774Y-83003937D01*
X171303937Y-82859774D01*
X171417205Y-82690256D01*
X171495226Y-82501898D01*
X171535000Y-82301939D01*
X171535000Y-82098061D01*
X171495226Y-81898102D01*
X171417205Y-81709744D01*
X171303937Y-81540226D01*
X171159774Y-81396063D01*
X170990256Y-81282795D01*
X170801898Y-81204774D01*
X170601939Y-81165000D01*
X170398061Y-81165000D01*
X170198102Y-81204774D01*
X170009744Y-81282795D01*
X169840226Y-81396063D01*
X169796289Y-81440000D01*
X146528540Y-81440000D01*
X146699608Y-81299608D01*
X146878932Y-81081101D01*
X146900901Y-81040000D01*
X153476289Y-81040000D01*
X153540226Y-81103937D01*
X153709744Y-81217205D01*
X153898102Y-81295226D01*
X154098061Y-81335000D01*
X154301939Y-81335000D01*
X154501898Y-81295226D01*
X154690256Y-81217205D01*
X154859774Y-81103937D01*
X155003937Y-80959774D01*
X155117205Y-80790256D01*
X155195226Y-80601898D01*
X155235000Y-80401939D01*
X155235000Y-80198061D01*
X155195226Y-79998102D01*
X155117205Y-79809744D01*
X155003937Y-79640226D01*
X154859774Y-79496063D01*
X154690256Y-79382795D01*
X154501898Y-79304774D01*
X154301939Y-79265000D01*
X154098061Y-79265000D01*
X153898102Y-79304774D01*
X153709744Y-79382795D01*
X153540226Y-79496063D01*
X153516289Y-79520000D01*
X146900901Y-79520000D01*
X146878932Y-79478899D01*
X146699608Y-79260392D01*
X146504170Y-79100000D01*
X167661928Y-79100000D01*
X167674188Y-79224482D01*
X167710498Y-79344180D01*
X167769463Y-79454494D01*
X167848815Y-79551185D01*
X167945506Y-79630537D01*
X168055820Y-79689502D01*
X168175518Y-79725812D01*
X168300000Y-79738072D01*
X168864250Y-79735000D01*
X169023000Y-79576250D01*
X169023000Y-78377000D01*
X169277000Y-78377000D01*
X169277000Y-79576250D01*
X169435750Y-79735000D01*
X170000000Y-79738072D01*
X170124482Y-79725812D01*
X170244180Y-79689502D01*
X170354494Y-79630537D01*
X170451185Y-79551185D01*
X170530537Y-79454494D01*
X170589502Y-79344180D01*
X170612498Y-79268374D01*
X170808645Y-79445178D01*
X171058748Y-79594157D01*
X171333109Y-79691481D01*
X171563000Y-79570814D01*
X171563000Y-78377000D01*
X171817000Y-78377000D01*
X171817000Y-79570814D01*
X172046891Y-79691481D01*
X172321252Y-79594157D01*
X172571355Y-79445178D01*
X172787588Y-79250269D01*
X172961641Y-79016920D01*
X173086825Y-78754099D01*
X173131476Y-78606890D01*
X173010155Y-78377000D01*
X171817000Y-78377000D01*
X171563000Y-78377000D01*
X169277000Y-78377000D01*
X169023000Y-78377000D01*
X167823750Y-78377000D01*
X167665000Y-78535750D01*
X167661928Y-79100000D01*
X146504170Y-79100000D01*
X146481101Y-79081068D01*
X146231808Y-78947818D01*
X145961309Y-78865764D01*
X145750492Y-78845000D01*
X145609508Y-78845000D01*
X145398691Y-78865764D01*
X145128192Y-78947818D01*
X144878899Y-79081068D01*
X144660392Y-79260392D01*
X144481068Y-79478899D01*
X144410000Y-79611858D01*
X144338932Y-79478899D01*
X144159608Y-79260392D01*
X143941101Y-79081068D01*
X143691808Y-78947818D01*
X143421309Y-78865764D01*
X143210492Y-78845000D01*
X143069508Y-78845000D01*
X142858691Y-78865764D01*
X142588192Y-78947818D01*
X142338899Y-79081068D01*
X142120392Y-79260392D01*
X141941068Y-79478899D01*
X141870000Y-79611858D01*
X141798932Y-79478899D01*
X141619608Y-79260392D01*
X141401101Y-79081068D01*
X141151808Y-78947818D01*
X140881309Y-78865764D01*
X140670492Y-78845000D01*
X140529508Y-78845000D01*
X140318691Y-78865764D01*
X140048192Y-78947818D01*
X139798899Y-79081068D01*
X139580392Y-79260392D01*
X139401068Y-79478899D01*
X139327421Y-79616682D01*
X139212385Y-79424869D01*
X139023414Y-79216481D01*
X138797420Y-79048963D01*
X138543087Y-78928754D01*
X138409039Y-78888096D01*
X138187000Y-79010085D01*
X138187000Y-80153000D01*
X138207000Y-80153000D01*
X138207000Y-80407000D01*
X138187000Y-80407000D01*
X138187000Y-80427000D01*
X137933000Y-80427000D01*
X137933000Y-80407000D01*
X137913000Y-80407000D01*
X137913000Y-80153000D01*
X137933000Y-80153000D01*
X137933000Y-79010085D01*
X137710961Y-78888096D01*
X137576913Y-78928754D01*
X137322580Y-79048963D01*
X137096586Y-79216481D01*
X136907615Y-79424869D01*
X136792579Y-79616682D01*
X136718932Y-79478899D01*
X136539608Y-79260392D01*
X136321101Y-79081068D01*
X136071808Y-78947818D01*
X135801309Y-78865764D01*
X135590492Y-78845000D01*
X135449508Y-78845000D01*
X135238691Y-78865764D01*
X134968192Y-78947818D01*
X134718899Y-79081068D01*
X134500392Y-79260392D01*
X134321068Y-79478899D01*
X134250000Y-79611858D01*
X134178932Y-79478899D01*
X133999608Y-79260392D01*
X133781101Y-79081068D01*
X133531808Y-78947818D01*
X133261309Y-78865764D01*
X133050492Y-78845000D01*
X132909508Y-78845000D01*
X132698691Y-78865764D01*
X132428192Y-78947818D01*
X132178899Y-79081068D01*
X131960392Y-79260392D01*
X131781068Y-79478899D01*
X131710000Y-79611858D01*
X131638932Y-79478899D01*
X131459608Y-79260392D01*
X131241101Y-79081068D01*
X130991808Y-78947818D01*
X130721309Y-78865764D01*
X130510492Y-78845000D01*
X130369508Y-78845000D01*
X130158691Y-78865764D01*
X129888192Y-78947818D01*
X129638899Y-79081068D01*
X129420392Y-79260392D01*
X129241068Y-79478899D01*
X129170000Y-79611858D01*
X129098932Y-79478899D01*
X129035000Y-79400998D01*
X129035000Y-77170132D01*
X129670132Y-76535000D01*
X143751447Y-76535000D01*
X143774662Y-76569744D01*
X144030256Y-76825338D01*
X144330801Y-77026156D01*
X144664750Y-77164482D01*
X145019268Y-77235000D01*
X145380732Y-77235000D01*
X145735250Y-77164482D01*
X146069199Y-77026156D01*
X146069381Y-77026034D01*
X146065000Y-77048061D01*
X146065000Y-77251939D01*
X146104774Y-77451898D01*
X146182795Y-77640256D01*
X146296063Y-77809774D01*
X146440226Y-77953937D01*
X146609744Y-78067205D01*
X146798102Y-78145226D01*
X146998061Y-78185000D01*
X147201939Y-78185000D01*
X147401898Y-78145226D01*
X147590256Y-78067205D01*
X147759774Y-77953937D01*
X147803711Y-77910000D01*
X160909680Y-77910000D01*
X160947002Y-77913676D01*
X160984324Y-77910000D01*
X160984335Y-77910000D01*
X161095988Y-77899003D01*
X161239249Y-77855546D01*
X161371278Y-77784974D01*
X161487003Y-77690001D01*
X161510806Y-77660997D01*
X161526802Y-77645001D01*
X167663262Y-77645001D01*
X167665000Y-77964250D01*
X167823750Y-78123000D01*
X169023000Y-78123000D01*
X169023000Y-78103000D01*
X169277000Y-78103000D01*
X169277000Y-78123000D01*
X171563000Y-78123000D01*
X171563000Y-78103000D01*
X171817000Y-78103000D01*
X171817000Y-78123000D01*
X173010155Y-78123000D01*
X173131476Y-77893110D01*
X173086825Y-77745901D01*
X172961641Y-77483080D01*
X172787588Y-77249731D01*
X172571355Y-77054822D01*
X172454477Y-76985201D01*
X172519014Y-76950706D01*
X172745134Y-76765134D01*
X172930706Y-76539014D01*
X173068599Y-76281034D01*
X173153513Y-76001111D01*
X173182185Y-75710000D01*
X173153513Y-75418889D01*
X173068599Y-75138966D01*
X172930706Y-74880986D01*
X172745134Y-74654866D01*
X172519014Y-74469294D01*
X172464209Y-74440000D01*
X172519014Y-74410706D01*
X172745134Y-74225134D01*
X172930706Y-73999014D01*
X173068599Y-73741034D01*
X173153513Y-73461111D01*
X173182185Y-73170000D01*
X173153513Y-72878889D01*
X173152625Y-72875962D01*
X173198061Y-72885000D01*
X173401939Y-72885000D01*
X173601898Y-72845226D01*
X173790256Y-72767205D01*
X173959774Y-72653937D01*
X174103937Y-72509774D01*
X174140000Y-72455802D01*
X174140001Y-84544620D01*
X173904177Y-84473084D01*
X173684019Y-84451400D01*
X172215981Y-84451400D01*
X171995823Y-84473084D01*
X171713336Y-84558775D01*
X171452994Y-84697931D01*
X171224803Y-84885203D01*
X171037531Y-85113394D01*
X170996584Y-85190000D01*
X162403416Y-85190000D01*
X162362469Y-85113394D01*
X162175197Y-84885203D01*
X161947006Y-84697931D01*
X161686664Y-84558775D01*
X161404177Y-84473084D01*
X161184019Y-84451400D01*
X159715981Y-84451400D01*
X159495823Y-84473084D01*
X159213336Y-84558775D01*
X158952994Y-84697931D01*
X158724803Y-84885203D01*
X158537531Y-85113394D01*
X158398375Y-85373736D01*
X158312684Y-85656223D01*
X158283749Y-85950000D01*
X158312684Y-86243777D01*
X158398375Y-86526264D01*
X158537531Y-86786606D01*
X158724803Y-87014797D01*
X158952994Y-87202069D01*
X159213336Y-87341225D01*
X159495823Y-87426916D01*
X159715981Y-87448600D01*
X161184019Y-87448600D01*
X161404177Y-87426916D01*
X161686664Y-87341225D01*
X161947006Y-87202069D01*
X162175197Y-87014797D01*
X162362469Y-86786606D01*
X162403416Y-86710000D01*
X170996584Y-86710000D01*
X171037531Y-86786606D01*
X171224803Y-87014797D01*
X171452994Y-87202069D01*
X171713336Y-87341225D01*
X171995823Y-87426916D01*
X172215981Y-87448600D01*
X173684019Y-87448600D01*
X173904177Y-87426916D01*
X174111030Y-87364168D01*
X173835199Y-87640000D01*
X152553711Y-87640000D01*
X152509774Y-87596063D01*
X152340256Y-87482795D01*
X152151898Y-87404774D01*
X151951939Y-87365000D01*
X151748061Y-87365000D01*
X151548102Y-87404774D01*
X151359744Y-87482795D01*
X151190226Y-87596063D01*
X151046063Y-87740226D01*
X150932795Y-87909744D01*
X150854774Y-88098102D01*
X150815000Y-88298061D01*
X150815000Y-88501939D01*
X150854774Y-88701898D01*
X150932795Y-88890256D01*
X151046063Y-89059774D01*
X151190226Y-89203937D01*
X151359744Y-89317205D01*
X151548102Y-89395226D01*
X151748061Y-89435000D01*
X151951939Y-89435000D01*
X152136579Y-89398273D01*
X151990226Y-89496063D01*
X151946289Y-89540000D01*
X143803711Y-89540000D01*
X143759774Y-89496063D01*
X143590256Y-89382795D01*
X143423290Y-89313635D01*
X143691808Y-89232182D01*
X143941101Y-89098932D01*
X144159608Y-88919608D01*
X144338932Y-88701101D01*
X144412579Y-88563318D01*
X144527615Y-88755131D01*
X144716586Y-88963519D01*
X144942580Y-89131037D01*
X145196913Y-89251246D01*
X145330961Y-89291904D01*
X145553000Y-89169915D01*
X145553000Y-88027000D01*
X145807000Y-88027000D01*
X145807000Y-89169915D01*
X146029039Y-89291904D01*
X146163087Y-89251246D01*
X146417420Y-89131037D01*
X146643414Y-88963519D01*
X146832385Y-88755131D01*
X146977070Y-88513881D01*
X147071909Y-88249040D01*
X146950624Y-88027000D01*
X145807000Y-88027000D01*
X145553000Y-88027000D01*
X145533000Y-88027000D01*
X145533000Y-87773000D01*
X145553000Y-87773000D01*
X145553000Y-86630085D01*
X145807000Y-86630085D01*
X145807000Y-87773000D01*
X146950624Y-87773000D01*
X147071909Y-87550960D01*
X146977070Y-87286119D01*
X146832385Y-87044869D01*
X146643414Y-86836481D01*
X146417420Y-86668963D01*
X146163087Y-86548754D01*
X146029039Y-86508096D01*
X145807000Y-86630085D01*
X145553000Y-86630085D01*
X145330961Y-86508096D01*
X145196913Y-86548754D01*
X144942580Y-86668963D01*
X144716586Y-86836481D01*
X144527615Y-87044869D01*
X144412579Y-87236682D01*
X144338932Y-87098899D01*
X144159608Y-86880392D01*
X143941101Y-86701068D01*
X143691808Y-86567818D01*
X143421309Y-86485764D01*
X143210492Y-86465000D01*
X143069508Y-86465000D01*
X142858691Y-86485764D01*
X142588192Y-86567818D01*
X142338899Y-86701068D01*
X142120392Y-86880392D01*
X141941068Y-87098899D01*
X141870000Y-87231858D01*
X141798932Y-87098899D01*
X141619608Y-86880392D01*
X141401101Y-86701068D01*
X141151808Y-86567818D01*
X140881309Y-86485764D01*
X140670492Y-86465000D01*
X140529508Y-86465000D01*
X140318691Y-86485764D01*
X140048192Y-86567818D01*
X139798899Y-86701068D01*
X139580392Y-86880392D01*
X139401068Y-87098899D01*
X139330000Y-87231858D01*
X139258932Y-87098899D01*
X139079608Y-86880392D01*
X138861101Y-86701068D01*
X138611808Y-86567818D01*
X138341309Y-86485764D01*
X138130492Y-86465000D01*
X137989508Y-86465000D01*
X137778691Y-86485764D01*
X137508192Y-86567818D01*
X137258899Y-86701068D01*
X137040392Y-86880392D01*
X136861068Y-87098899D01*
X136790000Y-87231858D01*
X136718932Y-87098899D01*
X136539608Y-86880392D01*
X136321101Y-86701068D01*
X136071808Y-86567818D01*
X135801309Y-86485764D01*
X135590492Y-86465000D01*
X135449508Y-86465000D01*
X135238691Y-86485764D01*
X134968192Y-86567818D01*
X134718899Y-86701068D01*
X134500392Y-86880392D01*
X134321068Y-87098899D01*
X134250000Y-87231858D01*
X134178932Y-87098899D01*
X133999608Y-86880392D01*
X133781101Y-86701068D01*
X133531808Y-86567818D01*
X133261309Y-86485764D01*
X133050492Y-86465000D01*
X132909508Y-86465000D01*
X132698691Y-86485764D01*
X132428192Y-86567818D01*
X132178899Y-86701068D01*
X131960392Y-86880392D01*
X131781068Y-87098899D01*
X131710000Y-87231858D01*
X131638932Y-87098899D01*
X131459608Y-86880392D01*
X131241101Y-86701068D01*
X130991808Y-86567818D01*
X130721309Y-86485764D01*
X130510492Y-86465000D01*
X130369508Y-86465000D01*
X130158691Y-86485764D01*
X129888192Y-86567818D01*
X129638899Y-86701068D01*
X129420392Y-86880392D01*
X129327581Y-86993482D01*
X129325812Y-86975518D01*
X129289502Y-86855820D01*
X129230537Y-86745506D01*
X129151185Y-86648815D01*
X129054494Y-86569463D01*
X128944180Y-86510498D01*
X128824482Y-86474188D01*
X128700000Y-86461928D01*
X127100000Y-86461928D01*
X126975518Y-86474188D01*
X126855820Y-86510498D01*
X126745506Y-86569463D01*
X126648815Y-86648815D01*
X126569463Y-86745506D01*
X126510498Y-86855820D01*
X126474188Y-86975518D01*
X126461928Y-87100000D01*
X126461928Y-88700000D01*
X126474188Y-88824482D01*
X126510498Y-88944180D01*
X126569463Y-89054494D01*
X126648815Y-89151185D01*
X126745506Y-89230537D01*
X126855820Y-89289502D01*
X126975518Y-89325812D01*
X127100000Y-89338072D01*
X128700000Y-89338072D01*
X128824482Y-89325812D01*
X128944180Y-89289502D01*
X129054494Y-89230537D01*
X129151185Y-89151185D01*
X129230537Y-89054494D01*
X129289502Y-88944180D01*
X129325812Y-88824482D01*
X129327581Y-88806518D01*
X129420392Y-88919608D01*
X129638899Y-89098932D01*
X129888192Y-89232182D01*
X130158691Y-89314236D01*
X130369508Y-89335000D01*
X130510492Y-89335000D01*
X130721309Y-89314236D01*
X130991808Y-89232182D01*
X131241101Y-89098932D01*
X131459608Y-88919608D01*
X131638932Y-88701101D01*
X131710000Y-88568142D01*
X131781068Y-88701101D01*
X131960392Y-88919608D01*
X132178899Y-89098932D01*
X132428192Y-89232182D01*
X132698691Y-89314236D01*
X132909508Y-89335000D01*
X133050492Y-89335000D01*
X133261309Y-89314236D01*
X133531808Y-89232182D01*
X133781101Y-89098932D01*
X133999608Y-88919608D01*
X134178932Y-88701101D01*
X134250000Y-88568142D01*
X134321068Y-88701101D01*
X134500392Y-88919608D01*
X134718899Y-89098932D01*
X134968192Y-89232182D01*
X135238691Y-89314236D01*
X135449508Y-89335000D01*
X135590492Y-89335000D01*
X135801309Y-89314236D01*
X136071808Y-89232182D01*
X136321101Y-89098932D01*
X136539608Y-88919608D01*
X136718932Y-88701101D01*
X136790000Y-88568142D01*
X136861068Y-88701101D01*
X137040392Y-88919608D01*
X137258899Y-89098932D01*
X137508192Y-89232182D01*
X137778691Y-89314236D01*
X137989508Y-89335000D01*
X138130492Y-89335000D01*
X138341309Y-89314236D01*
X138611808Y-89232182D01*
X138861101Y-89098932D01*
X139079608Y-88919608D01*
X139258932Y-88701101D01*
X139330000Y-88568142D01*
X139401068Y-88701101D01*
X139580392Y-88919608D01*
X139798899Y-89098932D01*
X140048192Y-89232182D01*
X140318691Y-89314236D01*
X140529508Y-89335000D01*
X140670492Y-89335000D01*
X140881309Y-89314236D01*
X141151808Y-89232182D01*
X141401101Y-89098932D01*
X141619608Y-88919608D01*
X141798932Y-88701101D01*
X141870000Y-88568142D01*
X141941068Y-88701101D01*
X142120392Y-88919608D01*
X142338899Y-89098932D01*
X142588192Y-89232182D01*
X142815856Y-89301242D01*
X142798102Y-89304774D01*
X142609744Y-89382795D01*
X142440226Y-89496063D01*
X142396289Y-89540000D01*
X123501039Y-89540000D01*
X123490256Y-89532795D01*
X123301898Y-89454774D01*
X123101939Y-89415000D01*
X122898061Y-89415000D01*
X122698102Y-89454774D01*
X122509744Y-89532795D01*
X122340226Y-89646063D01*
X122196063Y-89790226D01*
X122082795Y-89959744D01*
X122004774Y-90148102D01*
X121965000Y-90348061D01*
X121965000Y-90551939D01*
X122004774Y-90751898D01*
X122082795Y-90940256D01*
X122196063Y-91109774D01*
X122340226Y-91253937D01*
X122509744Y-91367205D01*
X122698102Y-91445226D01*
X122898061Y-91485000D01*
X123101939Y-91485000D01*
X123301898Y-91445226D01*
X123490256Y-91367205D01*
X123659774Y-91253937D01*
X123803937Y-91109774D01*
X123837195Y-91060000D01*
X142396289Y-91060000D01*
X142440226Y-91103937D01*
X142609744Y-91217205D01*
X142798102Y-91295226D01*
X142998061Y-91335000D01*
X143201939Y-91335000D01*
X143401898Y-91295226D01*
X143590256Y-91217205D01*
X143759774Y-91103937D01*
X143803711Y-91060000D01*
X151946289Y-91060000D01*
X151990226Y-91103937D01*
X152159744Y-91217205D01*
X152348102Y-91295226D01*
X152548061Y-91335000D01*
X152751939Y-91335000D01*
X152951898Y-91295226D01*
X153140256Y-91217205D01*
X153309774Y-91103937D01*
X153453937Y-90959774D01*
X153567205Y-90790256D01*
X153645226Y-90601898D01*
X153685000Y-90401939D01*
X153685000Y-90198061D01*
X153645226Y-89998102D01*
X153567205Y-89809744D01*
X153453937Y-89640226D01*
X153309774Y-89496063D01*
X153140256Y-89382795D01*
X152951898Y-89304774D01*
X152751939Y-89265000D01*
X152548061Y-89265000D01*
X152363421Y-89301727D01*
X152509774Y-89203937D01*
X152553711Y-89160000D01*
X174112678Y-89160000D01*
X174150000Y-89163676D01*
X174187322Y-89160000D01*
X174187333Y-89160000D01*
X174298986Y-89149003D01*
X174442247Y-89105546D01*
X174574276Y-89034974D01*
X174690001Y-88940001D01*
X174713803Y-88910998D01*
X174890001Y-88734801D01*
X174890001Y-90164902D01*
X174862469Y-90113394D01*
X174675197Y-89885203D01*
X174447006Y-89697931D01*
X174186664Y-89558775D01*
X173904177Y-89473084D01*
X173684019Y-89451400D01*
X172215981Y-89451400D01*
X171995823Y-89473084D01*
X171713336Y-89558775D01*
X171452994Y-89697931D01*
X171224803Y-89885203D01*
X171037531Y-90113394D01*
X170996584Y-90190000D01*
X162403416Y-90190000D01*
X162362469Y-90113394D01*
X162175197Y-89885203D01*
X161947006Y-89697931D01*
X161686664Y-89558775D01*
X161404177Y-89473084D01*
X161184019Y-89451400D01*
X159715981Y-89451400D01*
X159495823Y-89473084D01*
X159213336Y-89558775D01*
X158952994Y-89697931D01*
X158724803Y-89885203D01*
X158537531Y-90113394D01*
X158398375Y-90373736D01*
X158312684Y-90656223D01*
X158283749Y-90950000D01*
X158312684Y-91243777D01*
X158398375Y-91526264D01*
X158537531Y-91786606D01*
X158724803Y-92014797D01*
X158952994Y-92202069D01*
X159213336Y-92341225D01*
X159495823Y-92426916D01*
X159715981Y-92448600D01*
X161184019Y-92448600D01*
X161404177Y-92426916D01*
X161686664Y-92341225D01*
X161947006Y-92202069D01*
X162175197Y-92014797D01*
X162362469Y-91786606D01*
X162403416Y-91710000D01*
X170996584Y-91710000D01*
X171037531Y-91786606D01*
X171224803Y-92014797D01*
X171452994Y-92202069D01*
X171713336Y-92341225D01*
X171995823Y-92426916D01*
X172215981Y-92448600D01*
X173684019Y-92448600D01*
X173904177Y-92426916D01*
X174186664Y-92341225D01*
X174447006Y-92202069D01*
X174675197Y-92014797D01*
X174862469Y-91786606D01*
X174890001Y-91735098D01*
X174890001Y-97836016D01*
X174725197Y-97635203D01*
X174497006Y-97447931D01*
X174236664Y-97308775D01*
X173954177Y-97223084D01*
X173734019Y-97201400D01*
X172265981Y-97201400D01*
X172045823Y-97223084D01*
X171763336Y-97308775D01*
X171502994Y-97447931D01*
X171274803Y-97635203D01*
X171087531Y-97863394D01*
X171046584Y-97940000D01*
X162453416Y-97940000D01*
X162412469Y-97863394D01*
X162225197Y-97635203D01*
X161997006Y-97447931D01*
X161736664Y-97308775D01*
X161454177Y-97223084D01*
X161234019Y-97201400D01*
X161155968Y-97201400D01*
X161134974Y-97162123D01*
X161063799Y-97075397D01*
X161040001Y-97046399D01*
X161011004Y-97022602D01*
X159877404Y-95889003D01*
X159853601Y-95859999D01*
X159737876Y-95765026D01*
X159605847Y-95694454D01*
X159462586Y-95650997D01*
X159350933Y-95640000D01*
X159350922Y-95640000D01*
X159313600Y-95636324D01*
X159276278Y-95640000D01*
X145267484Y-95640000D01*
X145285000Y-95551939D01*
X145285000Y-95348061D01*
X145245226Y-95148102D01*
X145167205Y-94959744D01*
X145100558Y-94860000D01*
X165946289Y-94860000D01*
X165990226Y-94903937D01*
X166159744Y-95017205D01*
X166348102Y-95095226D01*
X166548061Y-95135000D01*
X166751939Y-95135000D01*
X166951898Y-95095226D01*
X167140256Y-95017205D01*
X167309774Y-94903937D01*
X167453937Y-94759774D01*
X167567205Y-94590256D01*
X167645226Y-94401898D01*
X167685000Y-94201939D01*
X167685000Y-93998061D01*
X167645226Y-93798102D01*
X167567205Y-93609744D01*
X167453937Y-93440226D01*
X167309774Y-93296063D01*
X167140256Y-93182795D01*
X166951898Y-93104774D01*
X166751939Y-93065000D01*
X166548061Y-93065000D01*
X166348102Y-93104774D01*
X166159744Y-93182795D01*
X165990226Y-93296063D01*
X165946289Y-93340000D01*
X115921977Y-93340000D01*
X116200130Y-93298787D01*
X116466292Y-93203603D01*
X116591514Y-93136671D01*
X116663097Y-92892702D01*
X115850000Y-92079605D01*
X115036903Y-92892702D01*
X115108486Y-93136671D01*
X115363996Y-93257571D01*
X115638184Y-93326300D01*
X115916110Y-93340000D01*
X111121977Y-93340000D01*
X111400130Y-93298787D01*
X111666292Y-93203603D01*
X111791514Y-93136671D01*
X111863097Y-92892702D01*
X111050000Y-92079605D01*
X110236903Y-92892702D01*
X110308486Y-93136671D01*
X110563996Y-93257571D01*
X110838184Y-93326300D01*
X111116110Y-93340000D01*
X104414802Y-93340000D01*
X104210000Y-93135199D01*
X104210000Y-91758665D01*
X104615000Y-91758665D01*
X104615000Y-92041335D01*
X104670147Y-92318574D01*
X104778320Y-92579727D01*
X104935363Y-92814759D01*
X105135241Y-93014637D01*
X105370273Y-93171680D01*
X105631426Y-93279853D01*
X105908665Y-93335000D01*
X106191335Y-93335000D01*
X106468574Y-93279853D01*
X106729727Y-93171680D01*
X106964759Y-93014637D01*
X107164637Y-92814759D01*
X107321680Y-92579727D01*
X107429853Y-92318574D01*
X107485000Y-92041335D01*
X107485000Y-91970512D01*
X109609783Y-91970512D01*
X109651213Y-92250130D01*
X109746397Y-92516292D01*
X109813329Y-92641514D01*
X110057298Y-92713097D01*
X110870395Y-91900000D01*
X111229605Y-91900000D01*
X112042702Y-92713097D01*
X112286671Y-92641514D01*
X112407571Y-92386004D01*
X112476300Y-92111816D01*
X112483265Y-91970512D01*
X114409783Y-91970512D01*
X114451213Y-92250130D01*
X114546397Y-92516292D01*
X114613329Y-92641514D01*
X114857298Y-92713097D01*
X115670395Y-91900000D01*
X116029605Y-91900000D01*
X116842702Y-92713097D01*
X117086671Y-92641514D01*
X117207571Y-92386004D01*
X117276300Y-92111816D01*
X117290217Y-91829488D01*
X117248787Y-91549870D01*
X117153603Y-91283708D01*
X117086671Y-91158486D01*
X116842702Y-91086903D01*
X116029605Y-91900000D01*
X115670395Y-91900000D01*
X114857298Y-91086903D01*
X114613329Y-91158486D01*
X114492429Y-91413996D01*
X114423700Y-91688184D01*
X114409783Y-91970512D01*
X112483265Y-91970512D01*
X112490217Y-91829488D01*
X112448787Y-91549870D01*
X112353603Y-91283708D01*
X112286671Y-91158486D01*
X112042702Y-91086903D01*
X111229605Y-91900000D01*
X110870395Y-91900000D01*
X110057298Y-91086903D01*
X109813329Y-91158486D01*
X109692429Y-91413996D01*
X109623700Y-91688184D01*
X109609783Y-91970512D01*
X107485000Y-91970512D01*
X107485000Y-91758665D01*
X107429853Y-91481426D01*
X107321680Y-91220273D01*
X107164637Y-90985241D01*
X107086694Y-90907298D01*
X110236903Y-90907298D01*
X111050000Y-91720395D01*
X111863097Y-90907298D01*
X115036903Y-90907298D01*
X115850000Y-91720395D01*
X116663097Y-90907298D01*
X116591514Y-90663329D01*
X116336004Y-90542429D01*
X116061816Y-90473700D01*
X115779488Y-90459783D01*
X115499870Y-90501213D01*
X115233708Y-90596397D01*
X115108486Y-90663329D01*
X115036903Y-90907298D01*
X111863097Y-90907298D01*
X111791514Y-90663329D01*
X111536004Y-90542429D01*
X111261816Y-90473700D01*
X110979488Y-90459783D01*
X110699870Y-90501213D01*
X110433708Y-90596397D01*
X110308486Y-90663329D01*
X110236903Y-90907298D01*
X107086694Y-90907298D01*
X106964759Y-90785363D01*
X106729727Y-90628320D01*
X106468574Y-90520147D01*
X106191335Y-90465000D01*
X105908665Y-90465000D01*
X105631426Y-90520147D01*
X105370273Y-90628320D01*
X105135241Y-90785363D01*
X104935363Y-90985241D01*
X104778320Y-91220273D01*
X104670147Y-91481426D01*
X104615000Y-91758665D01*
X104210000Y-91758665D01*
X104210000Y-89338072D01*
X104300000Y-89338072D01*
X104424482Y-89325812D01*
X104544180Y-89289502D01*
X104654494Y-89230537D01*
X104751185Y-89151185D01*
X104830537Y-89054494D01*
X104889502Y-88944180D01*
X104925812Y-88824482D01*
X104927581Y-88806518D01*
X105020392Y-88919608D01*
X105238899Y-89098932D01*
X105488192Y-89232182D01*
X105758691Y-89314236D01*
X105969508Y-89335000D01*
X106110492Y-89335000D01*
X106321309Y-89314236D01*
X106591808Y-89232182D01*
X106841101Y-89098932D01*
X107059608Y-88919608D01*
X107238932Y-88701101D01*
X107310000Y-88568142D01*
X107381068Y-88701101D01*
X107560392Y-88919608D01*
X107778899Y-89098932D01*
X108028192Y-89232182D01*
X108298691Y-89314236D01*
X108509508Y-89335000D01*
X108650492Y-89335000D01*
X108861309Y-89314236D01*
X109131808Y-89232182D01*
X109381101Y-89098932D01*
X109599608Y-88919608D01*
X109778932Y-88701101D01*
X109852579Y-88563318D01*
X109967615Y-88755131D01*
X110156586Y-88963519D01*
X110382580Y-89131037D01*
X110636913Y-89251246D01*
X110770961Y-89291904D01*
X110993000Y-89169915D01*
X110993000Y-88027000D01*
X111247000Y-88027000D01*
X111247000Y-89169915D01*
X111469039Y-89291904D01*
X111603087Y-89251246D01*
X111857420Y-89131037D01*
X112083414Y-88963519D01*
X112272385Y-88755131D01*
X112417070Y-88513881D01*
X112511909Y-88249040D01*
X112390624Y-88027000D01*
X111247000Y-88027000D01*
X110993000Y-88027000D01*
X110973000Y-88027000D01*
X110973000Y-87773000D01*
X110993000Y-87773000D01*
X110993000Y-87753000D01*
X111247000Y-87753000D01*
X111247000Y-87773000D01*
X112390624Y-87773000D01*
X112511909Y-87550960D01*
X112417070Y-87286119D01*
X112356426Y-87185001D01*
X113928830Y-87185001D01*
X114154826Y-87410997D01*
X114178629Y-87440001D01*
X114230774Y-87482795D01*
X114294353Y-87534974D01*
X114408642Y-87596063D01*
X114426383Y-87605546D01*
X114569644Y-87649003D01*
X114628481Y-87654798D01*
X114735363Y-87814759D01*
X114935241Y-88014637D01*
X115170273Y-88171680D01*
X115431426Y-88279853D01*
X115708665Y-88335000D01*
X115991335Y-88335000D01*
X116268574Y-88279853D01*
X116529727Y-88171680D01*
X116764759Y-88014637D01*
X116964637Y-87814759D01*
X117121680Y-87579727D01*
X117229853Y-87318574D01*
X117285000Y-87041335D01*
X117285000Y-86758665D01*
X117229853Y-86481426D01*
X117151682Y-86292702D01*
X122736903Y-86292702D01*
X122808486Y-86536671D01*
X123063996Y-86657571D01*
X123338184Y-86726300D01*
X123620512Y-86740217D01*
X123900130Y-86698787D01*
X124166292Y-86603603D01*
X124291514Y-86536671D01*
X124363097Y-86292702D01*
X123550000Y-85479605D01*
X122736903Y-86292702D01*
X117151682Y-86292702D01*
X117121680Y-86220273D01*
X116964637Y-85985241D01*
X116764759Y-85785363D01*
X116529727Y-85628320D01*
X116268574Y-85520147D01*
X115991335Y-85465000D01*
X115708665Y-85465000D01*
X115431426Y-85520147D01*
X115170273Y-85628320D01*
X114935241Y-85785363D01*
X114807059Y-85913545D01*
X114783632Y-85885000D01*
X114667907Y-85790027D01*
X114535878Y-85719455D01*
X114392617Y-85675998D01*
X114280964Y-85665001D01*
X114280953Y-85665001D01*
X114243631Y-85661325D01*
X114206309Y-85665001D01*
X101137902Y-85665001D01*
X101176300Y-85511816D01*
X101183265Y-85370512D01*
X122109783Y-85370512D01*
X122151213Y-85650130D01*
X122246397Y-85916292D01*
X122313329Y-86041514D01*
X122557298Y-86113097D01*
X123370395Y-85300000D01*
X123729605Y-85300000D01*
X124542702Y-86113097D01*
X124786671Y-86041514D01*
X124907571Y-85786004D01*
X124976300Y-85511816D01*
X124990217Y-85229488D01*
X124948787Y-84949870D01*
X124853603Y-84683708D01*
X124786671Y-84558486D01*
X124542702Y-84486903D01*
X123729605Y-85300000D01*
X123370395Y-85300000D01*
X122557298Y-84486903D01*
X122313329Y-84558486D01*
X122192429Y-84813996D01*
X122123700Y-85088184D01*
X122109783Y-85370512D01*
X101183265Y-85370512D01*
X101190217Y-85229488D01*
X101148787Y-84949870D01*
X101053603Y-84683708D01*
X100986671Y-84558486D01*
X100742702Y-84486903D01*
X99929605Y-85300000D01*
X99943748Y-85314143D01*
X99764143Y-85493748D01*
X99750000Y-85479605D01*
X99735858Y-85493748D01*
X99556253Y-85314143D01*
X99570395Y-85300000D01*
X98757298Y-84486903D01*
X98513329Y-84558486D01*
X98392429Y-84813996D01*
X98323700Y-85088184D01*
X98309783Y-85370512D01*
X98351213Y-85650130D01*
X98356531Y-85665001D01*
X95530087Y-85665001D01*
X95492764Y-85661325D01*
X95455441Y-85665001D01*
X95455432Y-85665001D01*
X95343779Y-85675998D01*
X95200518Y-85719455D01*
X95068488Y-85790027D01*
X94984848Y-85858669D01*
X94952764Y-85885000D01*
X94928966Y-85913998D01*
X92217351Y-88625614D01*
X92162561Y-88350166D01*
X92020466Y-88007118D01*
X91814175Y-87698382D01*
X91551618Y-87435825D01*
X91242882Y-87229534D01*
X90899834Y-87087439D01*
X90535656Y-87015000D01*
X90164344Y-87015000D01*
X89800166Y-87087439D01*
X89457118Y-87229534D01*
X89148382Y-87435825D01*
X88885825Y-87698382D01*
X88679534Y-88007118D01*
X88537439Y-88350166D01*
X88465000Y-88714344D01*
X88465000Y-89085656D01*
X88537439Y-89449834D01*
X88634740Y-89684740D01*
X88399834Y-89587439D01*
X88035656Y-89515000D01*
X87664344Y-89515000D01*
X87300166Y-89587439D01*
X86957118Y-89729534D01*
X86648382Y-89935825D01*
X86385825Y-90198382D01*
X86179534Y-90507118D01*
X86037439Y-90850166D01*
X85965000Y-91214344D01*
X85965000Y-91585656D01*
X86037439Y-91949834D01*
X86179534Y-92292882D01*
X86385825Y-92601618D01*
X86648382Y-92864175D01*
X86761862Y-92940000D01*
X83803711Y-92940000D01*
X83759774Y-92896063D01*
X83590256Y-92782795D01*
X83401898Y-92704774D01*
X83201939Y-92665000D01*
X82998061Y-92665000D01*
X82798102Y-92704774D01*
X82609744Y-92782795D01*
X82440226Y-92896063D01*
X82296063Y-93040226D01*
X82182795Y-93209744D01*
X82104774Y-93398102D01*
X82065000Y-93598061D01*
X82065000Y-93801939D01*
X82104774Y-94001898D01*
X82182795Y-94190256D01*
X82296063Y-94359774D01*
X82440226Y-94503937D01*
X82609744Y-94617205D01*
X82798102Y-94695226D01*
X82998061Y-94735000D01*
X83201939Y-94735000D01*
X83401898Y-94695226D01*
X83590256Y-94617205D01*
X83759774Y-94503937D01*
X83803711Y-94460000D01*
X98946289Y-94460000D01*
X98990226Y-94503937D01*
X99159744Y-94617205D01*
X99348102Y-94695226D01*
X99548061Y-94735000D01*
X99751939Y-94735000D01*
X99951898Y-94695226D01*
X100140256Y-94617205D01*
X100309774Y-94503937D01*
X100453937Y-94359774D01*
X100567205Y-94190256D01*
X100645226Y-94001898D01*
X100685000Y-93801939D01*
X100685000Y-93598061D01*
X100645226Y-93398102D01*
X100567205Y-93209744D01*
X100453937Y-93040226D01*
X100309774Y-92896063D01*
X100140256Y-92782795D01*
X99951898Y-92704774D01*
X99751939Y-92665000D01*
X99548061Y-92665000D01*
X99348102Y-92704774D01*
X99159744Y-92782795D01*
X98990226Y-92896063D01*
X98946289Y-92940000D01*
X88938138Y-92940000D01*
X89051618Y-92864175D01*
X89314175Y-92601618D01*
X89520466Y-92292882D01*
X89575507Y-92160000D01*
X90480444Y-92160000D01*
X90517766Y-92163676D01*
X90555088Y-92160000D01*
X90555099Y-92160000D01*
X90666752Y-92149003D01*
X90810013Y-92105546D01*
X90942042Y-92034974D01*
X91057767Y-91940001D01*
X91081570Y-91910997D01*
X91299865Y-91692702D01*
X96336903Y-91692702D01*
X96408486Y-91936671D01*
X96663996Y-92057571D01*
X96938184Y-92126300D01*
X97220512Y-92140217D01*
X97500130Y-92098787D01*
X97766292Y-92003603D01*
X97891514Y-91936671D01*
X97963097Y-91692702D01*
X97150000Y-90879605D01*
X96336903Y-91692702D01*
X91299865Y-91692702D01*
X92222055Y-90770512D01*
X95709783Y-90770512D01*
X95751213Y-91050130D01*
X95846397Y-91316292D01*
X95913329Y-91441514D01*
X96157298Y-91513097D01*
X96970395Y-90700000D01*
X97329605Y-90700000D01*
X98142702Y-91513097D01*
X98211928Y-91492785D01*
X98211928Y-91500000D01*
X98224188Y-91624482D01*
X98260498Y-91744180D01*
X98319463Y-91854494D01*
X98398815Y-91951185D01*
X98495506Y-92030537D01*
X98605820Y-92089502D01*
X98725518Y-92125812D01*
X98850000Y-92138072D01*
X100450000Y-92138072D01*
X100574482Y-92125812D01*
X100694180Y-92089502D01*
X100804494Y-92030537D01*
X100901185Y-91951185D01*
X100980537Y-91854494D01*
X101039502Y-91744180D01*
X101075812Y-91624482D01*
X101088072Y-91500000D01*
X101088072Y-89900000D01*
X101075812Y-89775518D01*
X101039502Y-89655820D01*
X100980537Y-89545506D01*
X100901185Y-89448815D01*
X100804494Y-89369463D01*
X100694180Y-89310498D01*
X100574482Y-89274188D01*
X100450000Y-89261928D01*
X98850000Y-89261928D01*
X98725518Y-89274188D01*
X98605820Y-89310498D01*
X98495506Y-89369463D01*
X98398815Y-89448815D01*
X98319463Y-89545506D01*
X98260498Y-89655820D01*
X98224188Y-89775518D01*
X98211928Y-89900000D01*
X98211928Y-89907215D01*
X98142702Y-89886903D01*
X97329605Y-90700000D01*
X96970395Y-90700000D01*
X96157298Y-89886903D01*
X95913329Y-89958486D01*
X95792429Y-90213996D01*
X95723700Y-90488184D01*
X95709783Y-90770512D01*
X92222055Y-90770512D01*
X93285269Y-89707298D01*
X96336903Y-89707298D01*
X97150000Y-90520395D01*
X97963097Y-89707298D01*
X97891514Y-89463329D01*
X97636004Y-89342429D01*
X97361816Y-89273700D01*
X97079488Y-89259783D01*
X96799870Y-89301213D01*
X96533708Y-89396397D01*
X96408486Y-89463329D01*
X96336903Y-89707298D01*
X93285269Y-89707298D01*
X95807567Y-87185001D01*
X102061928Y-87185001D01*
X102061928Y-88700000D01*
X102074188Y-88824482D01*
X102110498Y-88944180D01*
X102169463Y-89054494D01*
X102248815Y-89151185D01*
X102345506Y-89230537D01*
X102455820Y-89289502D01*
X102575518Y-89325812D01*
X102690000Y-89337087D01*
X102690001Y-93412668D01*
X102686324Y-93450000D01*
X102690001Y-93487333D01*
X102700998Y-93598986D01*
X102714180Y-93642442D01*
X102744454Y-93742246D01*
X102815026Y-93874276D01*
X102878004Y-93951014D01*
X102910000Y-93990001D01*
X102938998Y-94013799D01*
X103536200Y-94611002D01*
X103559999Y-94640001D01*
X103675724Y-94734974D01*
X103807753Y-94805546D01*
X103951014Y-94849003D01*
X104062667Y-94860000D01*
X104062677Y-94860000D01*
X104100000Y-94863676D01*
X104137323Y-94860000D01*
X127016033Y-94860000D01*
X126982795Y-94909744D01*
X126904774Y-95098102D01*
X126865000Y-95298061D01*
X126865000Y-95501939D01*
X126892462Y-95640000D01*
X93397722Y-95640000D01*
X93360399Y-95636324D01*
X93323076Y-95640000D01*
X93323067Y-95640000D01*
X93211414Y-95650997D01*
X93068153Y-95694454D01*
X92936124Y-95765026D01*
X92820399Y-95859999D01*
X92796601Y-95888997D01*
X91437300Y-97248299D01*
X91354177Y-97223084D01*
X91134019Y-97201400D01*
X89665981Y-97201400D01*
X89445823Y-97223084D01*
X89163336Y-97308775D01*
X88902994Y-97447931D01*
X88674803Y-97635203D01*
X88487531Y-97863394D01*
X88446584Y-97940000D01*
X82153711Y-97940000D01*
X82109774Y-97896063D01*
X81940256Y-97782795D01*
X81751898Y-97704774D01*
X81551939Y-97665000D01*
X81348061Y-97665000D01*
X81148102Y-97704774D01*
X80959744Y-97782795D01*
X80790226Y-97896063D01*
X80746289Y-97940000D01*
X79853416Y-97940000D01*
X79812469Y-97863394D01*
X79625197Y-97635203D01*
X79397006Y-97447931D01*
X79136664Y-97308775D01*
X78854177Y-97223084D01*
X78634019Y-97201400D01*
X77165981Y-97201400D01*
X76945823Y-97223084D01*
X76663336Y-97308775D01*
X76402994Y-97447931D01*
X76360000Y-97483215D01*
X76360000Y-90062968D01*
X76385825Y-90101618D01*
X76648382Y-90364175D01*
X76957118Y-90570466D01*
X77300166Y-90712561D01*
X77664344Y-90785000D01*
X78035656Y-90785000D01*
X78399834Y-90712561D01*
X78742882Y-90570466D01*
X79051618Y-90364175D01*
X79314175Y-90101618D01*
X79520466Y-89792882D01*
X79662561Y-89449834D01*
X79735000Y-89085656D01*
X79735000Y-88714344D01*
X79662561Y-88350166D01*
X79520466Y-88007118D01*
X79314175Y-87698382D01*
X79051618Y-87435825D01*
X78742882Y-87229534D01*
X78399834Y-87087439D01*
X78035656Y-87015000D01*
X77664344Y-87015000D01*
X77300166Y-87087439D01*
X76957118Y-87229534D01*
X76648382Y-87435825D01*
X76385825Y-87698382D01*
X76360000Y-87737032D01*
X76360000Y-85213605D01*
X86716000Y-85213605D01*
X86841914Y-85503577D01*
X87174126Y-85669433D01*
X87532312Y-85767290D01*
X87902706Y-85793389D01*
X88271075Y-85746725D01*
X88623262Y-85629094D01*
X88858086Y-85503577D01*
X88984000Y-85213605D01*
X87850000Y-84079605D01*
X86716000Y-85213605D01*
X76360000Y-85213605D01*
X76360000Y-83952706D01*
X85956611Y-83952706D01*
X86003275Y-84321075D01*
X86120906Y-84673262D01*
X86246423Y-84908086D01*
X86536395Y-85034000D01*
X87670395Y-83900000D01*
X88029605Y-83900000D01*
X89163605Y-85034000D01*
X89453577Y-84908086D01*
X89619433Y-84575874D01*
X89692808Y-84307298D01*
X98936903Y-84307298D01*
X99750000Y-85120395D01*
X100563097Y-84307298D01*
X100491514Y-84063329D01*
X100236004Y-83942429D01*
X99961816Y-83873700D01*
X99679488Y-83859783D01*
X99399870Y-83901213D01*
X99133708Y-83996397D01*
X99008486Y-84063329D01*
X98936903Y-84307298D01*
X89692808Y-84307298D01*
X89717290Y-84217688D01*
X89743389Y-83847294D01*
X89696725Y-83478925D01*
X89579094Y-83126738D01*
X89453577Y-82891914D01*
X89163605Y-82766000D01*
X88029605Y-83900000D01*
X87670395Y-83900000D01*
X86536395Y-82766000D01*
X86246423Y-82891914D01*
X86080567Y-83224126D01*
X85982710Y-83582312D01*
X85956611Y-83952706D01*
X76360000Y-83952706D01*
X76360000Y-82586395D01*
X86716000Y-82586395D01*
X87850000Y-83720395D01*
X88984000Y-82586395D01*
X88858086Y-82296423D01*
X88525874Y-82130567D01*
X88167688Y-82032710D01*
X87797294Y-82006611D01*
X87428925Y-82053275D01*
X87076738Y-82170906D01*
X86841914Y-82296423D01*
X86716000Y-82586395D01*
X76360000Y-82586395D01*
X76360000Y-80062968D01*
X76385825Y-80101618D01*
X76648382Y-80364175D01*
X76957118Y-80570466D01*
X77300166Y-80712561D01*
X77664344Y-80785000D01*
X78035656Y-80785000D01*
X78399834Y-80712561D01*
X78742882Y-80570466D01*
X79051618Y-80364175D01*
X79314175Y-80101618D01*
X79520466Y-79792882D01*
X79662561Y-79449834D01*
X79735000Y-79085656D01*
X79735000Y-78714344D01*
X79662561Y-78350166D01*
X79520466Y-78007118D01*
X79314175Y-77698382D01*
X79051618Y-77435825D01*
X78742882Y-77229534D01*
X78399834Y-77087439D01*
X78035656Y-77015000D01*
X77664344Y-77015000D01*
X77300166Y-77087439D01*
X76957118Y-77229534D01*
X76648382Y-77435825D01*
X76385825Y-77698382D01*
X76360000Y-77737032D01*
X76360000Y-66569268D01*
X78815000Y-66569268D01*
X78815000Y-66930732D01*
X78885518Y-67285250D01*
X79023844Y-67619199D01*
X79224662Y-67919744D01*
X79480256Y-68175338D01*
X79780801Y-68376156D01*
X80114750Y-68514482D01*
X80469268Y-68585000D01*
X80830732Y-68585000D01*
X81185250Y-68514482D01*
X81519199Y-68376156D01*
X81819744Y-68175338D01*
X82075338Y-67919744D01*
X82276156Y-67619199D01*
X82321388Y-67510000D01*
X85846289Y-67510000D01*
X85890226Y-67553937D01*
X86059744Y-67667205D01*
X86248102Y-67745226D01*
X86448061Y-67785000D01*
X86651939Y-67785000D01*
X86851898Y-67745226D01*
X87040256Y-67667205D01*
X87209774Y-67553937D01*
X87353937Y-67409774D01*
X87467205Y-67240256D01*
X87545226Y-67051898D01*
X87585000Y-66851939D01*
X87585000Y-66648061D01*
X87545226Y-66448102D01*
X87467205Y-66259744D01*
X87353937Y-66090226D01*
X87209774Y-65946063D01*
X87040256Y-65832795D01*
X86851898Y-65754774D01*
X86651939Y-65715000D01*
X86448061Y-65715000D01*
X86248102Y-65754774D01*
X86059744Y-65832795D01*
X85890226Y-65946063D01*
X85846289Y-65990000D01*
X82321388Y-65990000D01*
X82276156Y-65880801D01*
X82075338Y-65580256D01*
X81819744Y-65324662D01*
X81519199Y-65123844D01*
X81185250Y-64985518D01*
X80830732Y-64915000D01*
X80469268Y-64915000D01*
X80114750Y-64985518D01*
X79780801Y-65123844D01*
X79480256Y-65324662D01*
X79224662Y-65580256D01*
X79023844Y-65880801D01*
X78885518Y-66214750D01*
X78815000Y-66569268D01*
X76360000Y-66569268D01*
X76360000Y-62319268D01*
X78815000Y-62319268D01*
X78815000Y-62680732D01*
X78885518Y-63035250D01*
X79023844Y-63369199D01*
X79224662Y-63669744D01*
X79480256Y-63925338D01*
X79780801Y-64126156D01*
X80114750Y-64264482D01*
X80469268Y-64335000D01*
X80830732Y-64335000D01*
X81185250Y-64264482D01*
X81519199Y-64126156D01*
X81819744Y-63925338D01*
X82075338Y-63669744D01*
X82276156Y-63369199D01*
X82414482Y-63035250D01*
X82485000Y-62680732D01*
X82485000Y-62319268D01*
X82414482Y-61964750D01*
X82276156Y-61630801D01*
X82075338Y-61330256D01*
X81819744Y-61074662D01*
X81519199Y-60873844D01*
X81185250Y-60735518D01*
X80830732Y-60665000D01*
X80469268Y-60665000D01*
X80114750Y-60735518D01*
X79780801Y-60873844D01*
X79480256Y-61074662D01*
X79224662Y-61330256D01*
X79023844Y-61630801D01*
X78885518Y-61964750D01*
X78815000Y-62319268D01*
X76360000Y-62319268D01*
X76360000Y-52160000D01*
X97894198Y-52160000D01*
X97840226Y-52196063D01*
X97840226Y-52196063D01*
G37*
X97840226Y-52196063D02*
X97696063Y-52340226D01*
X97582795Y-52509744D01*
X97504774Y-52698102D01*
X97465000Y-52898061D01*
X97465000Y-53101939D01*
X97479532Y-53174999D01*
X97052323Y-53174999D01*
X97015001Y-53171323D01*
X96977678Y-53174999D01*
X96977668Y-53174999D01*
X96866015Y-53185996D01*
X96722754Y-53229453D01*
X96590724Y-53300025D01*
X96573250Y-53314366D01*
X96475000Y-53394998D01*
X96451202Y-53423996D01*
X96221365Y-53653833D01*
X96076411Y-53625000D01*
X95803589Y-53625000D01*
X95536011Y-53678225D01*
X95283957Y-53782629D01*
X95057114Y-53934201D01*
X94864201Y-54127114D01*
X94712629Y-54353957D01*
X94670000Y-54456873D01*
X94627371Y-54353957D01*
X94475799Y-54127114D01*
X94282886Y-53934201D01*
X94056043Y-53782629D01*
X93803989Y-53678225D01*
X93536411Y-53625000D01*
X93263589Y-53625000D01*
X92996011Y-53678225D01*
X92743957Y-53782629D01*
X92517114Y-53934201D01*
X92324201Y-54127114D01*
X92172629Y-54353957D01*
X92068225Y-54606011D01*
X92015000Y-54873589D01*
X92015000Y-55146411D01*
X92068225Y-55413989D01*
X92161842Y-55640000D01*
X83803711Y-55640000D01*
X83759774Y-55596063D01*
X83590256Y-55482795D01*
X83401898Y-55404774D01*
X83201939Y-55365000D01*
X82998061Y-55365000D01*
X82798102Y-55404774D01*
X82609744Y-55482795D01*
X82440226Y-55596063D01*
X82296063Y-55740226D01*
X82182795Y-55909744D01*
X82104774Y-56098102D01*
X82065000Y-56298061D01*
X82065000Y-56501939D01*
X82104774Y-56701898D01*
X82182795Y-56890256D01*
X82296063Y-57059774D01*
X82440226Y-57203937D01*
X82609744Y-57317205D01*
X82798102Y-57395226D01*
X82998061Y-57435000D01*
X83201939Y-57435000D01*
X83401898Y-57395226D01*
X83590256Y-57317205D01*
X83759774Y-57203937D01*
X83803711Y-57160000D01*
X94410704Y-57160000D01*
X94356871Y-57225596D01*
X94186479Y-57544378D01*
X94081552Y-57890277D01*
X94046122Y-58250000D01*
X94081552Y-58609723D01*
X94186479Y-58955622D01*
X94356871Y-59274404D01*
X94586181Y-59553819D01*
X94865596Y-59783129D01*
X95184378Y-59953521D01*
X95530277Y-60058448D01*
X95799861Y-60085000D01*
X95980139Y-60085000D01*
X96249723Y-60058448D01*
X96595622Y-59953521D01*
X96914404Y-59783129D01*
X97193819Y-59553819D01*
X97423129Y-59274404D01*
X97425093Y-59270729D01*
X97524662Y-59419744D01*
X97780256Y-59675338D01*
X98080801Y-59876156D01*
X98414750Y-60014482D01*
X98769268Y-60085000D01*
X99130732Y-60085000D01*
X99485250Y-60014482D01*
X99819199Y-59876156D01*
X100119744Y-59675338D01*
X100375338Y-59419744D01*
X100576156Y-59119199D01*
X100714482Y-58785250D01*
X100785000Y-58430732D01*
X100785000Y-58069268D01*
X100714482Y-57714750D01*
X100576156Y-57380801D01*
X100428621Y-57160000D01*
X102635199Y-57160000D01*
X104236200Y-58761002D01*
X104259999Y-58790001D01*
X104288997Y-58813799D01*
X104375723Y-58884974D01*
X104499244Y-58950998D01*
X104507753Y-58955546D01*
X104651014Y-58999003D01*
X104762667Y-59010000D01*
X104762676Y-59010000D01*
X104799999Y-59013676D01*
X104837322Y-59010000D01*
X112515545Y-59010000D01*
X112656871Y-59274404D01*
X112886181Y-59553819D01*
X112930268Y-59590000D01*
X101703711Y-59590000D01*
X101659774Y-59546063D01*
X101490256Y-59432795D01*
X101301898Y-59354774D01*
X101101939Y-59315000D01*
X100898061Y-59315000D01*
X100698102Y-59354774D01*
X100509744Y-59432795D01*
X100340226Y-59546063D01*
X100196063Y-59690226D01*
X100082795Y-59859744D01*
X100004774Y-60048102D01*
X99965000Y-60248061D01*
X99965000Y-60451939D01*
X100004774Y-60651898D01*
X100082795Y-60840256D01*
X100196063Y-61009774D01*
X100340226Y-61153937D01*
X100509744Y-61267205D01*
X100698102Y-61345226D01*
X100898061Y-61385000D01*
X101101939Y-61385000D01*
X101301898Y-61345226D01*
X101490256Y-61267205D01*
X101659774Y-61153937D01*
X101703711Y-61110000D01*
X113005421Y-61110000D01*
X112854125Y-61241954D01*
X112634361Y-61526743D01*
X112474379Y-61848934D01*
X112401805Y-62088195D01*
X112518568Y-62373000D01*
X114063000Y-62373000D01*
X114063000Y-62353000D01*
X114317000Y-62353000D01*
X114317000Y-62373000D01*
X114337000Y-62373000D01*
X114337000Y-62627000D01*
X114317000Y-62627000D01*
X114317000Y-62647000D01*
X114063000Y-62647000D01*
X114063000Y-62627000D01*
X112518568Y-62627000D01*
X112401805Y-62911805D01*
X112474379Y-63151066D01*
X112634361Y-63473257D01*
X112854125Y-63758046D01*
X112890763Y-63790000D01*
X109303711Y-63790000D01*
X109259774Y-63746063D01*
X109090256Y-63632795D01*
X108901898Y-63554774D01*
X108701939Y-63515000D01*
X108498061Y-63515000D01*
X108298102Y-63554774D01*
X108109744Y-63632795D01*
X107940226Y-63746063D01*
X107796063Y-63890226D01*
X107682795Y-64059744D01*
X107604774Y-64248102D01*
X107565000Y-64448061D01*
X107565000Y-64651939D01*
X107582516Y-64740000D01*
X105803711Y-64740000D01*
X105759774Y-64696063D01*
X105590256Y-64582795D01*
X105401898Y-64504774D01*
X105201939Y-64465000D01*
X104998061Y-64465000D01*
X104798102Y-64504774D01*
X104609744Y-64582795D01*
X104440226Y-64696063D01*
X104296063Y-64840226D01*
X104182795Y-65009744D01*
X104104774Y-65198102D01*
X104065000Y-65398061D01*
X104065000Y-65601939D01*
X104104774Y-65801898D01*
X104161978Y-65940000D01*
X100607730Y-65940000D01*
X100493129Y-65725596D01*
X100263819Y-65446181D01*
X99984404Y-65216871D01*
X99665622Y-65046479D01*
X99319723Y-64941552D01*
X99050139Y-64915000D01*
X98869861Y-64915000D01*
X98600277Y-64941552D01*
X98313382Y-65028580D01*
X97128112Y-63843311D01*
X97225875Y-63758046D01*
X97417628Y-63509556D01*
X97524662Y-63669744D01*
X97780256Y-63925338D01*
X98080801Y-64126156D01*
X98414750Y-64264482D01*
X98769268Y-64335000D01*
X99130732Y-64335000D01*
X99485250Y-64264482D01*
X99819199Y-64126156D01*
X100119744Y-63925338D01*
X100375338Y-63669744D01*
X100576156Y-63369199D01*
X100714482Y-63035250D01*
X100785000Y-62680732D01*
X100785000Y-62319268D01*
X100714482Y-61964750D01*
X100576156Y-61630801D01*
X100375338Y-61330256D01*
X100119744Y-61074662D01*
X99819199Y-60873844D01*
X99485250Y-60735518D01*
X99130732Y-60665000D01*
X98769268Y-60665000D01*
X98414750Y-60735518D01*
X98305551Y-60780750D01*
X97988803Y-60464002D01*
X97965000Y-60434998D01*
X97849275Y-60340025D01*
X97717246Y-60269453D01*
X97573985Y-60225996D01*
X97462332Y-60214999D01*
X97462321Y-60214999D01*
X97424999Y-60211323D01*
X97387677Y-60214999D01*
X87228710Y-60214999D01*
X87209774Y-60196063D01*
X87040256Y-60082795D01*
X86851898Y-60004774D01*
X86651939Y-59965000D01*
X86448061Y-59965000D01*
X86248102Y-60004774D01*
X86059744Y-60082795D01*
X85890226Y-60196063D01*
X85746063Y-60340226D01*
X85632795Y-60509744D01*
X85554774Y-60698102D01*
X85515000Y-60898061D01*
X85515000Y-61101939D01*
X85554774Y-61301898D01*
X85632795Y-61490256D01*
X85746063Y-61659774D01*
X85890226Y-61803937D01*
X86059744Y-61917205D01*
X86248102Y-61995226D01*
X86448061Y-62035000D01*
X86651939Y-62035000D01*
X86851898Y-61995226D01*
X87040256Y-61917205D01*
X87209774Y-61803937D01*
X87278712Y-61734999D01*
X94230953Y-61734999D01*
X94174379Y-61848934D01*
X94101805Y-62088195D01*
X94218568Y-62373000D01*
X95763000Y-62373000D01*
X95763000Y-62353000D01*
X96017000Y-62353000D01*
X96017000Y-62373000D01*
X96037000Y-62373000D01*
X96037000Y-62627000D01*
X96017000Y-62627000D01*
X96017000Y-62647000D01*
X95763000Y-62647000D01*
X95763000Y-62627000D01*
X94218568Y-62627000D01*
X94101805Y-62911805D01*
X94174379Y-63151066D01*
X94317852Y-63440010D01*
X85514793Y-63440010D01*
X84960000Y-62885219D01*
X84960000Y-60140277D01*
X84963677Y-60102944D01*
X84949003Y-59953958D01*
X84905546Y-59810697D01*
X84834974Y-59678668D01*
X84763799Y-59591941D01*
X84740001Y-59562943D01*
X84711004Y-59539146D01*
X82910860Y-57739003D01*
X82887057Y-57709999D01*
X82771332Y-57615026D01*
X82639303Y-57544454D01*
X82496042Y-57500997D01*
X82384389Y-57490000D01*
X82384378Y-57490000D01*
X82347056Y-57486324D01*
X82320931Y-57488897D01*
X82276156Y-57380801D01*
X82075338Y-57080256D01*
X81819744Y-56824662D01*
X81519199Y-56623844D01*
X81185250Y-56485518D01*
X80830732Y-56415000D01*
X80469268Y-56415000D01*
X80114750Y-56485518D01*
X79780801Y-56623844D01*
X79480256Y-56824662D01*
X79224662Y-57080256D01*
X79023844Y-57380801D01*
X78885518Y-57714750D01*
X78815000Y-58069268D01*
X78815000Y-58430732D01*
X78885518Y-58785250D01*
X79023844Y-59119199D01*
X79224662Y-59419744D01*
X79480256Y-59675338D01*
X79780801Y-59876156D01*
X80114750Y-60014482D01*
X80469268Y-60085000D01*
X80830732Y-60085000D01*
X81185250Y-60014482D01*
X81519199Y-59876156D01*
X81819744Y-59675338D01*
X82075338Y-59419744D01*
X82222202Y-59199947D01*
X83440000Y-60417746D01*
X83440001Y-63162688D01*
X83436324Y-63200020D01*
X83440001Y-63237353D01*
X83450998Y-63349006D01*
X83464180Y-63392462D01*
X83494454Y-63492266D01*
X83565026Y-63624296D01*
X83614845Y-63685000D01*
X83660000Y-63740021D01*
X83688998Y-63763819D01*
X84636195Y-64711018D01*
X84659989Y-64740011D01*
X84688982Y-64763805D01*
X84688986Y-64763809D01*
X84734302Y-64800998D01*
X84775714Y-64834984D01*
X84907743Y-64905556D01*
X85051004Y-64949013D01*
X85162657Y-64960010D01*
X85162666Y-64960010D01*
X85199989Y-64963686D01*
X85237312Y-64960010D01*
X95469429Y-64960010D01*
X95184378Y-65046479D01*
X94865596Y-65216871D01*
X94586181Y-65446181D01*
X94356871Y-65725596D01*
X94186479Y-66044378D01*
X94081552Y-66390277D01*
X94046122Y-66750000D01*
X94081552Y-67109723D01*
X94186479Y-67455622D01*
X94356871Y-67774404D01*
X94586181Y-68053819D01*
X94865596Y-68283129D01*
X95184378Y-68453521D01*
X95530277Y-68558448D01*
X95799861Y-68585000D01*
X95980139Y-68585000D01*
X96249723Y-68558448D01*
X96595622Y-68453521D01*
X96914404Y-68283129D01*
X97193819Y-68053819D01*
X97423129Y-67774404D01*
X97425000Y-67770904D01*
X97426871Y-67774404D01*
X97656181Y-68053819D01*
X97935596Y-68283129D01*
X98254378Y-68453521D01*
X98600277Y-68558448D01*
X98869861Y-68585000D01*
X99050139Y-68585000D01*
X99319723Y-68558448D01*
X99665622Y-68453521D01*
X99984404Y-68283129D01*
X100263819Y-68053819D01*
X100493129Y-67774404D01*
X100661181Y-67460000D01*
X106796289Y-67460000D01*
X106840226Y-67503937D01*
X107009744Y-67617205D01*
X107198102Y-67695226D01*
X107398061Y-67735000D01*
X107601939Y-67735000D01*
X107801898Y-67695226D01*
X107990256Y-67617205D01*
X108159774Y-67503937D01*
X108303937Y-67359774D01*
X108417205Y-67190256D01*
X108495226Y-67001898D01*
X108535000Y-66801939D01*
X108535000Y-66598061D01*
X108495226Y-66398102D01*
X108438022Y-66260000D01*
X112426517Y-66260000D01*
X112365000Y-66569268D01*
X112365000Y-66930732D01*
X112435518Y-67285250D01*
X112573844Y-67619199D01*
X112774662Y-67919744D01*
X113030256Y-68175338D01*
X113330801Y-68376156D01*
X113424576Y-68414999D01*
X104672323Y-68414999D01*
X104635001Y-68411323D01*
X104597678Y-68414999D01*
X104597668Y-68414999D01*
X104486015Y-68425996D01*
X104342754Y-68469453D01*
X104210724Y-68540025D01*
X104136423Y-68601003D01*
X104095000Y-68634998D01*
X104071202Y-68663996D01*
X103841365Y-68893833D01*
X103696411Y-68865000D01*
X103423589Y-68865000D01*
X103156011Y-68918225D01*
X102903957Y-69022629D01*
X102677114Y-69174201D01*
X102484201Y-69367114D01*
X102332629Y-69593957D01*
X102290000Y-69696873D01*
X102247371Y-69593957D01*
X102095799Y-69367114D01*
X101902886Y-69174201D01*
X101676043Y-69022629D01*
X101423989Y-68918225D01*
X101156411Y-68865000D01*
X100883589Y-68865000D01*
X100616011Y-68918225D01*
X100363957Y-69022629D01*
X100137114Y-69174201D01*
X99944201Y-69367114D01*
X99792629Y-69593957D01*
X99750000Y-69696873D01*
X99707371Y-69593957D01*
X99555799Y-69367114D01*
X99362886Y-69174201D01*
X99136043Y-69022629D01*
X98883989Y-68918225D01*
X98616411Y-68865000D01*
X98343589Y-68865000D01*
X98076011Y-68918225D01*
X97823957Y-69022629D01*
X97597114Y-69174201D01*
X97404201Y-69367114D01*
X97252629Y-69593957D01*
X97210000Y-69696873D01*
X97167371Y-69593957D01*
X97015799Y-69367114D01*
X96822886Y-69174201D01*
X96596043Y-69022629D01*
X96343989Y-68918225D01*
X96076411Y-68865000D01*
X95803589Y-68865000D01*
X95536011Y-68918225D01*
X95283957Y-69022629D01*
X95057114Y-69174201D01*
X94864201Y-69367114D01*
X94786445Y-69483483D01*
X94775812Y-69375518D01*
X94739502Y-69255820D01*
X94680537Y-69145506D01*
X94601185Y-69048815D01*
X94504494Y-68969463D01*
X94394180Y-68910498D01*
X94274482Y-68874188D01*
X94150000Y-68861928D01*
X92650000Y-68861928D01*
X92525518Y-68874188D01*
X92405820Y-68910498D01*
X92295506Y-68969463D01*
X92198815Y-69048815D01*
X92119463Y-69145506D01*
X92060498Y-69255820D01*
X92024188Y-69375518D01*
X92011928Y-69500000D01*
X92011928Y-71000000D01*
X92024188Y-71124482D01*
X92060498Y-71244180D01*
X92119463Y-71354494D01*
X92198815Y-71451185D01*
X92295506Y-71530537D01*
X92405820Y-71589502D01*
X92525518Y-71625812D01*
X92650000Y-71638072D01*
X92745674Y-71638072D01*
X92765026Y-71674276D01*
X92835378Y-71759999D01*
X92860000Y-71790001D01*
X92888996Y-71813797D01*
X92911200Y-71836002D01*
X92935000Y-71865002D01*
X93050725Y-71959975D01*
X93182754Y-72030547D01*
X93326015Y-72074004D01*
X93437668Y-72085001D01*
X93437678Y-72085001D01*
X93475000Y-72088677D01*
X93512323Y-72085001D01*
X94937489Y-72085001D01*
X94915000Y-72198061D01*
X94915000Y-72401939D01*
X94954774Y-72601898D01*
X95032795Y-72790256D01*
X95146063Y-72959774D01*
X95290226Y-73103937D01*
X95459744Y-73217205D01*
X95648102Y-73295226D01*
X95848061Y-73335000D01*
X96051939Y-73335000D01*
X96251898Y-73295226D01*
X96440256Y-73217205D01*
X96609774Y-73103937D01*
X96653711Y-73060000D01*
X97452407Y-73060000D01*
X97415000Y-73248061D01*
X97415000Y-73451939D01*
X97454774Y-73651898D01*
X97532795Y-73840256D01*
X97646063Y-74009774D01*
X97790226Y-74153937D01*
X97959744Y-74267205D01*
X98148102Y-74345226D01*
X98348061Y-74385000D01*
X98551939Y-74385000D01*
X98751898Y-74345226D01*
X98940256Y-74267205D01*
X99109774Y-74153937D01*
X99153711Y-74110000D01*
X99972571Y-74110000D01*
X99965000Y-74148061D01*
X99965000Y-74351939D01*
X100004774Y-74551898D01*
X100082795Y-74740256D01*
X100196063Y-74909774D01*
X100340226Y-75053937D01*
X100509744Y-75167205D01*
X100698102Y-75245226D01*
X100898061Y-75285000D01*
X101101939Y-75285000D01*
X101301898Y-75245226D01*
X101490256Y-75167205D01*
X101659774Y-75053937D01*
X101703711Y-75010000D01*
X102510604Y-75010000D01*
X102485363Y-75035241D01*
X102328320Y-75270273D01*
X102220147Y-75531426D01*
X102198550Y-75640000D01*
X89575507Y-75640000D01*
X89520466Y-75507118D01*
X89314175Y-75198382D01*
X89051618Y-74935825D01*
X88742882Y-74729534D01*
X88399834Y-74587439D01*
X88035656Y-74515000D01*
X87664344Y-74515000D01*
X87300166Y-74587439D01*
X86957118Y-74729534D01*
X86648382Y-74935825D01*
X86385825Y-75198382D01*
X86179534Y-75507118D01*
X86037439Y-75850166D01*
X85965000Y-76214344D01*
X85965000Y-76585656D01*
X86037439Y-76949834D01*
X86179534Y-77292882D01*
X86385825Y-77601618D01*
X86648382Y-77864175D01*
X86957118Y-78070466D01*
X87300166Y-78212561D01*
X87664344Y-78285000D01*
X88035656Y-78285000D01*
X88399834Y-78212561D01*
X88634740Y-78115260D01*
X88537439Y-78350166D01*
X88465000Y-78714344D01*
X88465000Y-79085656D01*
X88537439Y-79449834D01*
X88679534Y-79792882D01*
X88885825Y-80101618D01*
X89148382Y-80364175D01*
X89457118Y-80570466D01*
X89800166Y-80712561D01*
X90164344Y-80785000D01*
X90535656Y-80785000D01*
X90899834Y-80712561D01*
X91242882Y-80570466D01*
X91551618Y-80364175D01*
X91814175Y-80101618D01*
X92020466Y-79792882D01*
X92162561Y-79449834D01*
X92235000Y-79085656D01*
X92235000Y-78714344D01*
X92162561Y-78350166D01*
X92020466Y-78007118D01*
X91814175Y-77698382D01*
X91551618Y-77435825D01*
X91242882Y-77229534D01*
X91075012Y-77160000D01*
X102827962Y-77160000D01*
X102920273Y-77221680D01*
X103181426Y-77329853D01*
X103458665Y-77385000D01*
X103741335Y-77385000D01*
X104018574Y-77329853D01*
X104279727Y-77221680D01*
X104514759Y-77064637D01*
X104714637Y-76864759D01*
X104871680Y-76629727D01*
X104979853Y-76368574D01*
X105035000Y-76091335D01*
X105035000Y-75808665D01*
X104979853Y-75531426D01*
X104871680Y-75270273D01*
X104714637Y-75035241D01*
X104689396Y-75010000D01*
X107510604Y-75010000D01*
X107485363Y-75035241D01*
X107328320Y-75270273D01*
X107220147Y-75531426D01*
X107165000Y-75808665D01*
X107165000Y-76091335D01*
X107220147Y-76368574D01*
X107328320Y-76629727D01*
X107485363Y-76864759D01*
X107685241Y-77064637D01*
X107920273Y-77221680D01*
X108181426Y-77329853D01*
X108458665Y-77385000D01*
X108741335Y-77385000D01*
X109018574Y-77329853D01*
X109279727Y-77221680D01*
X109514759Y-77064637D01*
X109714637Y-76864759D01*
X109871680Y-76629727D01*
X109979853Y-76368574D01*
X110035000Y-76091335D01*
X110035000Y-75808665D01*
X109979853Y-75531426D01*
X109871680Y-75270273D01*
X109714637Y-75035241D01*
X109689396Y-75010000D01*
X127984868Y-75010000D01*
X127136860Y-75858009D01*
X127093552Y-75893551D01*
X126951717Y-76066377D01*
X126929601Y-76107754D01*
X126846324Y-76263554D01*
X126781423Y-76477502D01*
X126759509Y-76700000D01*
X126765001Y-76755761D01*
X126765000Y-79400997D01*
X126701068Y-79478899D01*
X126567818Y-79728192D01*
X126485764Y-79998691D01*
X126458057Y-80280000D01*
X126485764Y-80561309D01*
X126567818Y-80831808D01*
X126701068Y-81081101D01*
X126880392Y-81299608D01*
X127051460Y-81440000D01*
X124426801Y-81440000D01*
X124464759Y-81414637D01*
X124664637Y-81214759D01*
X124821680Y-80979727D01*
X124929853Y-80718574D01*
X124985000Y-80441335D01*
X124985000Y-80158665D01*
X124929853Y-79881426D01*
X124821680Y-79620273D01*
X124664637Y-79385241D01*
X124464759Y-79185363D01*
X124229727Y-79028320D01*
X123968574Y-78920147D01*
X123691335Y-78865000D01*
X123408665Y-78865000D01*
X123131426Y-78920147D01*
X122870273Y-79028320D01*
X122635241Y-79185363D01*
X122435363Y-79385241D01*
X122278320Y-79620273D01*
X122170147Y-79881426D01*
X122115000Y-80158665D01*
X122115000Y-80441335D01*
X122170147Y-80718574D01*
X122278320Y-80979727D01*
X122435363Y-81214759D01*
X122635241Y-81414637D01*
X122673199Y-81440000D01*
X111968540Y-81440000D01*
X112139608Y-81299608D01*
X112318932Y-81081101D01*
X112340901Y-81040000D01*
X118626289Y-81040000D01*
X118690226Y-81103937D01*
X118859744Y-81217205D01*
X119048102Y-81295226D01*
X119248061Y-81335000D01*
X119451939Y-81335000D01*
X119651898Y-81295226D01*
X119840256Y-81217205D01*
X120009774Y-81103937D01*
X120153937Y-80959774D01*
X120267205Y-80790256D01*
X120345226Y-80601898D01*
X120385000Y-80401939D01*
X120385000Y-80198061D01*
X120345226Y-79998102D01*
X120267205Y-79809744D01*
X120153937Y-79640226D01*
X120009774Y-79496063D01*
X119840256Y-79382795D01*
X119651898Y-79304774D01*
X119451939Y-79265000D01*
X119248061Y-79265000D01*
X119048102Y-79304774D01*
X118859744Y-79382795D01*
X118690226Y-79496063D01*
X118666289Y-79520000D01*
X112340901Y-79520000D01*
X112318932Y-79478899D01*
X112139608Y-79260392D01*
X111921101Y-79081068D01*
X111671808Y-78947818D01*
X111401309Y-78865764D01*
X111190492Y-78845000D01*
X111049508Y-78845000D01*
X110838691Y-78865764D01*
X110568192Y-78947818D01*
X110318899Y-79081068D01*
X110100392Y-79260392D01*
X109921068Y-79478899D01*
X109850000Y-79611858D01*
X109778932Y-79478899D01*
X109599608Y-79260392D01*
X109381101Y-79081068D01*
X109131808Y-78947818D01*
X108861309Y-78865764D01*
X108650492Y-78845000D01*
X108509508Y-78845000D01*
X108298691Y-78865764D01*
X108028192Y-78947818D01*
X107778899Y-79081068D01*
X107560392Y-79260392D01*
X107381068Y-79478899D01*
X107310000Y-79611858D01*
X107238932Y-79478899D01*
X107059608Y-79260392D01*
X106841101Y-79081068D01*
X106591808Y-78947818D01*
X106321309Y-78865764D01*
X106110492Y-78845000D01*
X105969508Y-78845000D01*
X105758691Y-78865764D01*
X105488192Y-78947818D01*
X105238899Y-79081068D01*
X105020392Y-79260392D01*
X104841068Y-79478899D01*
X104770000Y-79611858D01*
X104698932Y-79478899D01*
X104519608Y-79260392D01*
X104301101Y-79081068D01*
X104051808Y-78947818D01*
X103781309Y-78865764D01*
X103570492Y-78845000D01*
X103429508Y-78845000D01*
X103218691Y-78865764D01*
X102948192Y-78947818D01*
X102698899Y-79081068D01*
X102480392Y-79260392D01*
X102301068Y-79478899D01*
X102167818Y-79728192D01*
X102085764Y-79998691D01*
X102058057Y-80280000D01*
X102085764Y-80561309D01*
X102167818Y-80831808D01*
X102301068Y-81081101D01*
X102480392Y-81299608D01*
X102651460Y-81440000D01*
X100626801Y-81440000D01*
X100664759Y-81414637D01*
X100864637Y-81214759D01*
X101021680Y-80979727D01*
X101129853Y-80718574D01*
X101185000Y-80441335D01*
X101185000Y-80158665D01*
X101129853Y-79881426D01*
X101021680Y-79620273D01*
X100864637Y-79385241D01*
X100664759Y-79185363D01*
X100429727Y-79028320D01*
X100168574Y-78920147D01*
X99891335Y-78865000D01*
X99608665Y-78865000D01*
X99331426Y-78920147D01*
X99070273Y-79028320D01*
X98835241Y-79185363D01*
X98635363Y-79385241D01*
X98478320Y-79620273D01*
X98370147Y-79881426D01*
X98315000Y-80158665D01*
X98315000Y-80441335D01*
X98370147Y-80718574D01*
X98478320Y-80979727D01*
X98635363Y-81214759D01*
X98835241Y-81414637D01*
X98873199Y-81440000D01*
X98053711Y-81440000D01*
X98009774Y-81396063D01*
X97840256Y-81282795D01*
X97651898Y-81204774D01*
X97451939Y-81165000D01*
X97248061Y-81165000D01*
X97048102Y-81204774D01*
X96859744Y-81282795D01*
X96690226Y-81396063D01*
X96546063Y-81540226D01*
X96432795Y-81709744D01*
X96354774Y-81898102D01*
X96315000Y-82098061D01*
X96315000Y-82301939D01*
X96354774Y-82501898D01*
X96432795Y-82690256D01*
X96546063Y-82859774D01*
X96690226Y-83003937D01*
X96859744Y-83117205D01*
X97048102Y-83195226D01*
X97248061Y-83235000D01*
X97451939Y-83235000D01*
X97651898Y-83195226D01*
X97840256Y-83117205D01*
X98009774Y-83003937D01*
X98053711Y-82960000D01*
X105276289Y-82960000D01*
X105246063Y-82990226D01*
X105132795Y-83159744D01*
X105054774Y-83348102D01*
X105015000Y-83548061D01*
X105015000Y-83751939D01*
X105054774Y-83951898D01*
X105132795Y-84140256D01*
X105246063Y-84309774D01*
X105390226Y-84453937D01*
X105559744Y-84567205D01*
X105748102Y-84645226D01*
X105948061Y-84685000D01*
X106151939Y-84685000D01*
X106351898Y-84645226D01*
X106540256Y-84567205D01*
X106709774Y-84453937D01*
X106753711Y-84410000D01*
X120146289Y-84410000D01*
X120190226Y-84453937D01*
X120359744Y-84567205D01*
X120548102Y-84645226D01*
X120748061Y-84685000D01*
X120951939Y-84685000D01*
X121151898Y-84645226D01*
X121340256Y-84567205D01*
X121509774Y-84453937D01*
X121653937Y-84309774D01*
X121655591Y-84307298D01*
X122736903Y-84307298D01*
X123550000Y-85120395D01*
X124363097Y-84307298D01*
X124291514Y-84063329D01*
X124036004Y-83942429D01*
X123761816Y-83873700D01*
X123479488Y-83859783D01*
X123199870Y-83901213D01*
X122933708Y-83996397D01*
X122808486Y-84063329D01*
X122736903Y-84307298D01*
X121655591Y-84307298D01*
X121767205Y-84140256D01*
X121845226Y-83951898D01*
X121885000Y-83751939D01*
X121885000Y-83548061D01*
X121845226Y-83348102D01*
X121767205Y-83159744D01*
X121653937Y-82990226D01*
X121623711Y-82960000D01*
X169796289Y-82960000D01*
X169840226Y-83003937D01*
X170009744Y-83117205D01*
X170198102Y-83195226D01*
X170398061Y-83235000D01*
X170601939Y-83235000D01*
X170801898Y-83195226D01*
X170990256Y-83117205D01*
X171159774Y-83003937D01*
X171303937Y-82859774D01*
X171417205Y-82690256D01*
X171495226Y-82501898D01*
X171535000Y-82301939D01*
X171535000Y-82098061D01*
X171495226Y-81898102D01*
X171417205Y-81709744D01*
X171303937Y-81540226D01*
X171159774Y-81396063D01*
X170990256Y-81282795D01*
X170801898Y-81204774D01*
X170601939Y-81165000D01*
X170398061Y-81165000D01*
X170198102Y-81204774D01*
X170009744Y-81282795D01*
X169840226Y-81396063D01*
X169796289Y-81440000D01*
X146528540Y-81440000D01*
X146699608Y-81299608D01*
X146878932Y-81081101D01*
X146900901Y-81040000D01*
X153476289Y-81040000D01*
X153540226Y-81103937D01*
X153709744Y-81217205D01*
X153898102Y-81295226D01*
X154098061Y-81335000D01*
X154301939Y-81335000D01*
X154501898Y-81295226D01*
X154690256Y-81217205D01*
X154859774Y-81103937D01*
X155003937Y-80959774D01*
X155117205Y-80790256D01*
X155195226Y-80601898D01*
X155235000Y-80401939D01*
X155235000Y-80198061D01*
X155195226Y-79998102D01*
X155117205Y-79809744D01*
X155003937Y-79640226D01*
X154859774Y-79496063D01*
X154690256Y-79382795D01*
X154501898Y-79304774D01*
X154301939Y-79265000D01*
X154098061Y-79265000D01*
X153898102Y-79304774D01*
X153709744Y-79382795D01*
X153540226Y-79496063D01*
X153516289Y-79520000D01*
X146900901Y-79520000D01*
X146878932Y-79478899D01*
X146699608Y-79260392D01*
X146504170Y-79100000D01*
X167661928Y-79100000D01*
X167674188Y-79224482D01*
X167710498Y-79344180D01*
X167769463Y-79454494D01*
X167848815Y-79551185D01*
X167945506Y-79630537D01*
X168055820Y-79689502D01*
X168175518Y-79725812D01*
X168300000Y-79738072D01*
X168864250Y-79735000D01*
X169023000Y-79576250D01*
X169023000Y-78377000D01*
X169277000Y-78377000D01*
X169277000Y-79576250D01*
X169435750Y-79735000D01*
X170000000Y-79738072D01*
X170124482Y-79725812D01*
X170244180Y-79689502D01*
X170354494Y-79630537D01*
X170451185Y-79551185D01*
X170530537Y-79454494D01*
X170589502Y-79344180D01*
X170612498Y-79268374D01*
X170808645Y-79445178D01*
X171058748Y-79594157D01*
X171333109Y-79691481D01*
X171563000Y-79570814D01*
X171563000Y-78377000D01*
X171817000Y-78377000D01*
X171817000Y-79570814D01*
X172046891Y-79691481D01*
X172321252Y-79594157D01*
X172571355Y-79445178D01*
X172787588Y-79250269D01*
X172961641Y-79016920D01*
X173086825Y-78754099D01*
X173131476Y-78606890D01*
X173010155Y-78377000D01*
X171817000Y-78377000D01*
X171563000Y-78377000D01*
X169277000Y-78377000D01*
X169023000Y-78377000D01*
X167823750Y-78377000D01*
X167665000Y-78535750D01*
X167661928Y-79100000D01*
X146504170Y-79100000D01*
X146481101Y-79081068D01*
X146231808Y-78947818D01*
X145961309Y-78865764D01*
X145750492Y-78845000D01*
X145609508Y-78845000D01*
X145398691Y-78865764D01*
X145128192Y-78947818D01*
X144878899Y-79081068D01*
X144660392Y-79260392D01*
X144481068Y-79478899D01*
X144410000Y-79611858D01*
X144338932Y-79478899D01*
X144159608Y-79260392D01*
X143941101Y-79081068D01*
X143691808Y-78947818D01*
X143421309Y-78865764D01*
X143210492Y-78845000D01*
X143069508Y-78845000D01*
X142858691Y-78865764D01*
X142588192Y-78947818D01*
X142338899Y-79081068D01*
X142120392Y-79260392D01*
X141941068Y-79478899D01*
X141870000Y-79611858D01*
X141798932Y-79478899D01*
X141619608Y-79260392D01*
X141401101Y-79081068D01*
X141151808Y-78947818D01*
X140881309Y-78865764D01*
X140670492Y-78845000D01*
X140529508Y-78845000D01*
X140318691Y-78865764D01*
X140048192Y-78947818D01*
X139798899Y-79081068D01*
X139580392Y-79260392D01*
X139401068Y-79478899D01*
X139327421Y-79616682D01*
X139212385Y-79424869D01*
X139023414Y-79216481D01*
X138797420Y-79048963D01*
X138543087Y-78928754D01*
X138409039Y-78888096D01*
X138187000Y-79010085D01*
X138187000Y-80153000D01*
X138207000Y-80153000D01*
X138207000Y-80407000D01*
X138187000Y-80407000D01*
X138187000Y-80427000D01*
X137933000Y-80427000D01*
X137933000Y-80407000D01*
X137913000Y-80407000D01*
X137913000Y-80153000D01*
X137933000Y-80153000D01*
X137933000Y-79010085D01*
X137710961Y-78888096D01*
X137576913Y-78928754D01*
X137322580Y-79048963D01*
X137096586Y-79216481D01*
X136907615Y-79424869D01*
X136792579Y-79616682D01*
X136718932Y-79478899D01*
X136539608Y-79260392D01*
X136321101Y-79081068D01*
X136071808Y-78947818D01*
X135801309Y-78865764D01*
X135590492Y-78845000D01*
X135449508Y-78845000D01*
X135238691Y-78865764D01*
X134968192Y-78947818D01*
X134718899Y-79081068D01*
X134500392Y-79260392D01*
X134321068Y-79478899D01*
X134250000Y-79611858D01*
X134178932Y-79478899D01*
X133999608Y-79260392D01*
X133781101Y-79081068D01*
X133531808Y-78947818D01*
X133261309Y-78865764D01*
X133050492Y-78845000D01*
X132909508Y-78845000D01*
X132698691Y-78865764D01*
X132428192Y-78947818D01*
X132178899Y-79081068D01*
X131960392Y-79260392D01*
X131781068Y-79478899D01*
X131710000Y-79611858D01*
X131638932Y-79478899D01*
X131459608Y-79260392D01*
X131241101Y-79081068D01*
X130991808Y-78947818D01*
X130721309Y-78865764D01*
X130510492Y-78845000D01*
X130369508Y-78845000D01*
X130158691Y-78865764D01*
X129888192Y-78947818D01*
X129638899Y-79081068D01*
X129420392Y-79260392D01*
X129241068Y-79478899D01*
X129170000Y-79611858D01*
X129098932Y-79478899D01*
X129035000Y-79400998D01*
X129035000Y-77170132D01*
X129670132Y-76535000D01*
X143751447Y-76535000D01*
X143774662Y-76569744D01*
X144030256Y-76825338D01*
X144330801Y-77026156D01*
X144664750Y-77164482D01*
X145019268Y-77235000D01*
X145380732Y-77235000D01*
X145735250Y-77164482D01*
X146069199Y-77026156D01*
X146069381Y-77026034D01*
X146065000Y-77048061D01*
X146065000Y-77251939D01*
X146104774Y-77451898D01*
X146182795Y-77640256D01*
X146296063Y-77809774D01*
X146440226Y-77953937D01*
X146609744Y-78067205D01*
X146798102Y-78145226D01*
X146998061Y-78185000D01*
X147201939Y-78185000D01*
X147401898Y-78145226D01*
X147590256Y-78067205D01*
X147759774Y-77953937D01*
X147803711Y-77910000D01*
X160909680Y-77910000D01*
X160947002Y-77913676D01*
X160984324Y-77910000D01*
X160984335Y-77910000D01*
X161095988Y-77899003D01*
X161239249Y-77855546D01*
X161371278Y-77784974D01*
X161487003Y-77690001D01*
X161510806Y-77660997D01*
X161526802Y-77645001D01*
X167663262Y-77645001D01*
X167665000Y-77964250D01*
X167823750Y-78123000D01*
X169023000Y-78123000D01*
X169023000Y-78103000D01*
X169277000Y-78103000D01*
X169277000Y-78123000D01*
X171563000Y-78123000D01*
X171563000Y-78103000D01*
X171817000Y-78103000D01*
X171817000Y-78123000D01*
X173010155Y-78123000D01*
X173131476Y-77893110D01*
X173086825Y-77745901D01*
X172961641Y-77483080D01*
X172787588Y-77249731D01*
X172571355Y-77054822D01*
X172454477Y-76985201D01*
X172519014Y-76950706D01*
X172745134Y-76765134D01*
X172930706Y-76539014D01*
X173068599Y-76281034D01*
X173153513Y-76001111D01*
X173182185Y-75710000D01*
X173153513Y-75418889D01*
X173068599Y-75138966D01*
X172930706Y-74880986D01*
X172745134Y-74654866D01*
X172519014Y-74469294D01*
X172464209Y-74440000D01*
X172519014Y-74410706D01*
X172745134Y-74225134D01*
X172930706Y-73999014D01*
X173068599Y-73741034D01*
X173153513Y-73461111D01*
X173182185Y-73170000D01*
X173153513Y-72878889D01*
X173152625Y-72875962D01*
X173198061Y-72885000D01*
X173401939Y-72885000D01*
X173601898Y-72845226D01*
X173790256Y-72767205D01*
X173959774Y-72653937D01*
X174103937Y-72509774D01*
X174140000Y-72455802D01*
X174140001Y-84544620D01*
X173904177Y-84473084D01*
X173684019Y-84451400D01*
X172215981Y-84451400D01*
X171995823Y-84473084D01*
X171713336Y-84558775D01*
X171452994Y-84697931D01*
X171224803Y-84885203D01*
X171037531Y-85113394D01*
X170996584Y-85190000D01*
X162403416Y-85190000D01*
X162362469Y-85113394D01*
X162175197Y-84885203D01*
X161947006Y-84697931D01*
X161686664Y-84558775D01*
X161404177Y-84473084D01*
X161184019Y-84451400D01*
X159715981Y-84451400D01*
X159495823Y-84473084D01*
X159213336Y-84558775D01*
X158952994Y-84697931D01*
X158724803Y-84885203D01*
X158537531Y-85113394D01*
X158398375Y-85373736D01*
X158312684Y-85656223D01*
X158283749Y-85950000D01*
X158312684Y-86243777D01*
X158398375Y-86526264D01*
X158537531Y-86786606D01*
X158724803Y-87014797D01*
X158952994Y-87202069D01*
X159213336Y-87341225D01*
X159495823Y-87426916D01*
X159715981Y-87448600D01*
X161184019Y-87448600D01*
X161404177Y-87426916D01*
X161686664Y-87341225D01*
X161947006Y-87202069D01*
X162175197Y-87014797D01*
X162362469Y-86786606D01*
X162403416Y-86710000D01*
X170996584Y-86710000D01*
X171037531Y-86786606D01*
X171224803Y-87014797D01*
X171452994Y-87202069D01*
X171713336Y-87341225D01*
X171995823Y-87426916D01*
X172215981Y-87448600D01*
X173684019Y-87448600D01*
X173904177Y-87426916D01*
X174111030Y-87364168D01*
X173835199Y-87640000D01*
X152553711Y-87640000D01*
X152509774Y-87596063D01*
X152340256Y-87482795D01*
X152151898Y-87404774D01*
X151951939Y-87365000D01*
X151748061Y-87365000D01*
X151548102Y-87404774D01*
X151359744Y-87482795D01*
X151190226Y-87596063D01*
X151046063Y-87740226D01*
X150932795Y-87909744D01*
X150854774Y-88098102D01*
X150815000Y-88298061D01*
X150815000Y-88501939D01*
X150854774Y-88701898D01*
X150932795Y-88890256D01*
X151046063Y-89059774D01*
X151190226Y-89203937D01*
X151359744Y-89317205D01*
X151548102Y-89395226D01*
X151748061Y-89435000D01*
X151951939Y-89435000D01*
X152136579Y-89398273D01*
X151990226Y-89496063D01*
X151946289Y-89540000D01*
X143803711Y-89540000D01*
X143759774Y-89496063D01*
X143590256Y-89382795D01*
X143423290Y-89313635D01*
X143691808Y-89232182D01*
X143941101Y-89098932D01*
X144159608Y-88919608D01*
X144338932Y-88701101D01*
X144412579Y-88563318D01*
X144527615Y-88755131D01*
X144716586Y-88963519D01*
X144942580Y-89131037D01*
X145196913Y-89251246D01*
X145330961Y-89291904D01*
X145553000Y-89169915D01*
X145553000Y-88027000D01*
X145807000Y-88027000D01*
X145807000Y-89169915D01*
X146029039Y-89291904D01*
X146163087Y-89251246D01*
X146417420Y-89131037D01*
X146643414Y-88963519D01*
X146832385Y-88755131D01*
X146977070Y-88513881D01*
X147071909Y-88249040D01*
X146950624Y-88027000D01*
X145807000Y-88027000D01*
X145553000Y-88027000D01*
X145533000Y-88027000D01*
X145533000Y-87773000D01*
X145553000Y-87773000D01*
X145553000Y-86630085D01*
X145807000Y-86630085D01*
X145807000Y-87773000D01*
X146950624Y-87773000D01*
X147071909Y-87550960D01*
X146977070Y-87286119D01*
X146832385Y-87044869D01*
X146643414Y-86836481D01*
X146417420Y-86668963D01*
X146163087Y-86548754D01*
X146029039Y-86508096D01*
X145807000Y-86630085D01*
X145553000Y-86630085D01*
X145330961Y-86508096D01*
X145196913Y-86548754D01*
X144942580Y-86668963D01*
X144716586Y-86836481D01*
X144527615Y-87044869D01*
X144412579Y-87236682D01*
X144338932Y-87098899D01*
X144159608Y-86880392D01*
X143941101Y-86701068D01*
X143691808Y-86567818D01*
X143421309Y-86485764D01*
X143210492Y-86465000D01*
X143069508Y-86465000D01*
X142858691Y-86485764D01*
X142588192Y-86567818D01*
X142338899Y-86701068D01*
X142120392Y-86880392D01*
X141941068Y-87098899D01*
X141870000Y-87231858D01*
X141798932Y-87098899D01*
X141619608Y-86880392D01*
X141401101Y-86701068D01*
X141151808Y-86567818D01*
X140881309Y-86485764D01*
X140670492Y-86465000D01*
X140529508Y-86465000D01*
X140318691Y-86485764D01*
X140048192Y-86567818D01*
X139798899Y-86701068D01*
X139580392Y-86880392D01*
X139401068Y-87098899D01*
X139330000Y-87231858D01*
X139258932Y-87098899D01*
X139079608Y-86880392D01*
X138861101Y-86701068D01*
X138611808Y-86567818D01*
X138341309Y-86485764D01*
X138130492Y-86465000D01*
X137989508Y-86465000D01*
X137778691Y-86485764D01*
X137508192Y-86567818D01*
X137258899Y-86701068D01*
X137040392Y-86880392D01*
X136861068Y-87098899D01*
X136790000Y-87231858D01*
X136718932Y-87098899D01*
X136539608Y-86880392D01*
X136321101Y-86701068D01*
X136071808Y-86567818D01*
X135801309Y-86485764D01*
X135590492Y-86465000D01*
X135449508Y-86465000D01*
X135238691Y-86485764D01*
X134968192Y-86567818D01*
X134718899Y-86701068D01*
X134500392Y-86880392D01*
X134321068Y-87098899D01*
X134250000Y-87231858D01*
X134178932Y-87098899D01*
X133999608Y-86880392D01*
X133781101Y-86701068D01*
X133531808Y-86567818D01*
X133261309Y-86485764D01*
X133050492Y-86465000D01*
X132909508Y-86465000D01*
X132698691Y-86485764D01*
X132428192Y-86567818D01*
X132178899Y-86701068D01*
X131960392Y-86880392D01*
X131781068Y-87098899D01*
X131710000Y-87231858D01*
X131638932Y-87098899D01*
X131459608Y-86880392D01*
X131241101Y-86701068D01*
X130991808Y-86567818D01*
X130721309Y-86485764D01*
X130510492Y-86465000D01*
X130369508Y-86465000D01*
X130158691Y-86485764D01*
X129888192Y-86567818D01*
X129638899Y-86701068D01*
X129420392Y-86880392D01*
X129327581Y-86993482D01*
X129325812Y-86975518D01*
X129289502Y-86855820D01*
X129230537Y-86745506D01*
X129151185Y-86648815D01*
X129054494Y-86569463D01*
X128944180Y-86510498D01*
X128824482Y-86474188D01*
X128700000Y-86461928D01*
X127100000Y-86461928D01*
X126975518Y-86474188D01*
X126855820Y-86510498D01*
X126745506Y-86569463D01*
X126648815Y-86648815D01*
X126569463Y-86745506D01*
X126510498Y-86855820D01*
X126474188Y-86975518D01*
X126461928Y-87100000D01*
X126461928Y-88700000D01*
X126474188Y-88824482D01*
X126510498Y-88944180D01*
X126569463Y-89054494D01*
X126648815Y-89151185D01*
X126745506Y-89230537D01*
X126855820Y-89289502D01*
X126975518Y-89325812D01*
X127100000Y-89338072D01*
X128700000Y-89338072D01*
X128824482Y-89325812D01*
X128944180Y-89289502D01*
X129054494Y-89230537D01*
X129151185Y-89151185D01*
X129230537Y-89054494D01*
X129289502Y-88944180D01*
X129325812Y-88824482D01*
X129327581Y-88806518D01*
X129420392Y-88919608D01*
X129638899Y-89098932D01*
X129888192Y-89232182D01*
X130158691Y-89314236D01*
X130369508Y-89335000D01*
X130510492Y-89335000D01*
X130721309Y-89314236D01*
X130991808Y-89232182D01*
X131241101Y-89098932D01*
X131459608Y-88919608D01*
X131638932Y-88701101D01*
X131710000Y-88568142D01*
X131781068Y-88701101D01*
X131960392Y-88919608D01*
X132178899Y-89098932D01*
X132428192Y-89232182D01*
X132698691Y-89314236D01*
X132909508Y-89335000D01*
X133050492Y-89335000D01*
X133261309Y-89314236D01*
X133531808Y-89232182D01*
X133781101Y-89098932D01*
X133999608Y-88919608D01*
X134178932Y-88701101D01*
X134250000Y-88568142D01*
X134321068Y-88701101D01*
X134500392Y-88919608D01*
X134718899Y-89098932D01*
X134968192Y-89232182D01*
X135238691Y-89314236D01*
X135449508Y-89335000D01*
X135590492Y-89335000D01*
X135801309Y-89314236D01*
X136071808Y-89232182D01*
X136321101Y-89098932D01*
X136539608Y-88919608D01*
X136718932Y-88701101D01*
X136790000Y-88568142D01*
X136861068Y-88701101D01*
X137040392Y-88919608D01*
X137258899Y-89098932D01*
X137508192Y-89232182D01*
X137778691Y-89314236D01*
X137989508Y-89335000D01*
X138130492Y-89335000D01*
X138341309Y-89314236D01*
X138611808Y-89232182D01*
X138861101Y-89098932D01*
X139079608Y-88919608D01*
X139258932Y-88701101D01*
X139330000Y-88568142D01*
X139401068Y-88701101D01*
X139580392Y-88919608D01*
X139798899Y-89098932D01*
X140048192Y-89232182D01*
X140318691Y-89314236D01*
X140529508Y-89335000D01*
X140670492Y-89335000D01*
X140881309Y-89314236D01*
X141151808Y-89232182D01*
X141401101Y-89098932D01*
X141619608Y-88919608D01*
X141798932Y-88701101D01*
X141870000Y-88568142D01*
X141941068Y-88701101D01*
X142120392Y-88919608D01*
X142338899Y-89098932D01*
X142588192Y-89232182D01*
X142815856Y-89301242D01*
X142798102Y-89304774D01*
X142609744Y-89382795D01*
X142440226Y-89496063D01*
X142396289Y-89540000D01*
X123501039Y-89540000D01*
X123490256Y-89532795D01*
X123301898Y-89454774D01*
X123101939Y-89415000D01*
X122898061Y-89415000D01*
X122698102Y-89454774D01*
X122509744Y-89532795D01*
X122340226Y-89646063D01*
X122196063Y-89790226D01*
X122082795Y-89959744D01*
X122004774Y-90148102D01*
X121965000Y-90348061D01*
X121965000Y-90551939D01*
X122004774Y-90751898D01*
X122082795Y-90940256D01*
X122196063Y-91109774D01*
X122340226Y-91253937D01*
X122509744Y-91367205D01*
X122698102Y-91445226D01*
X122898061Y-91485000D01*
X123101939Y-91485000D01*
X123301898Y-91445226D01*
X123490256Y-91367205D01*
X123659774Y-91253937D01*
X123803937Y-91109774D01*
X123837195Y-91060000D01*
X142396289Y-91060000D01*
X142440226Y-91103937D01*
X142609744Y-91217205D01*
X142798102Y-91295226D01*
X142998061Y-91335000D01*
X143201939Y-91335000D01*
X143401898Y-91295226D01*
X143590256Y-91217205D01*
X143759774Y-91103937D01*
X143803711Y-91060000D01*
X151946289Y-91060000D01*
X151990226Y-91103937D01*
X152159744Y-91217205D01*
X152348102Y-91295226D01*
X152548061Y-91335000D01*
X152751939Y-91335000D01*
X152951898Y-91295226D01*
X153140256Y-91217205D01*
X153309774Y-91103937D01*
X153453937Y-90959774D01*
X153567205Y-90790256D01*
X153645226Y-90601898D01*
X153685000Y-90401939D01*
X153685000Y-90198061D01*
X153645226Y-89998102D01*
X153567205Y-89809744D01*
X153453937Y-89640226D01*
X153309774Y-89496063D01*
X153140256Y-89382795D01*
X152951898Y-89304774D01*
X152751939Y-89265000D01*
X152548061Y-89265000D01*
X152363421Y-89301727D01*
X152509774Y-89203937D01*
X152553711Y-89160000D01*
X174112678Y-89160000D01*
X174150000Y-89163676D01*
X174187322Y-89160000D01*
X174187333Y-89160000D01*
X174298986Y-89149003D01*
X174442247Y-89105546D01*
X174574276Y-89034974D01*
X174690001Y-88940001D01*
X174713803Y-88910998D01*
X174890001Y-88734801D01*
X174890001Y-90164902D01*
X174862469Y-90113394D01*
X174675197Y-89885203D01*
X174447006Y-89697931D01*
X174186664Y-89558775D01*
X173904177Y-89473084D01*
X173684019Y-89451400D01*
X172215981Y-89451400D01*
X171995823Y-89473084D01*
X171713336Y-89558775D01*
X171452994Y-89697931D01*
X171224803Y-89885203D01*
X171037531Y-90113394D01*
X170996584Y-90190000D01*
X162403416Y-90190000D01*
X162362469Y-90113394D01*
X162175197Y-89885203D01*
X161947006Y-89697931D01*
X161686664Y-89558775D01*
X161404177Y-89473084D01*
X161184019Y-89451400D01*
X159715981Y-89451400D01*
X159495823Y-89473084D01*
X159213336Y-89558775D01*
X158952994Y-89697931D01*
X158724803Y-89885203D01*
X158537531Y-90113394D01*
X158398375Y-90373736D01*
X158312684Y-90656223D01*
X158283749Y-90950000D01*
X158312684Y-91243777D01*
X158398375Y-91526264D01*
X158537531Y-91786606D01*
X158724803Y-92014797D01*
X158952994Y-92202069D01*
X159213336Y-92341225D01*
X159495823Y-92426916D01*
X159715981Y-92448600D01*
X161184019Y-92448600D01*
X161404177Y-92426916D01*
X161686664Y-92341225D01*
X161947006Y-92202069D01*
X162175197Y-92014797D01*
X162362469Y-91786606D01*
X162403416Y-91710000D01*
X170996584Y-91710000D01*
X171037531Y-91786606D01*
X171224803Y-92014797D01*
X171452994Y-92202069D01*
X171713336Y-92341225D01*
X171995823Y-92426916D01*
X172215981Y-92448600D01*
X173684019Y-92448600D01*
X173904177Y-92426916D01*
X174186664Y-92341225D01*
X174447006Y-92202069D01*
X174675197Y-92014797D01*
X174862469Y-91786606D01*
X174890001Y-91735098D01*
X174890001Y-97836016D01*
X174725197Y-97635203D01*
X174497006Y-97447931D01*
X174236664Y-97308775D01*
X173954177Y-97223084D01*
X173734019Y-97201400D01*
X172265981Y-97201400D01*
X172045823Y-97223084D01*
X171763336Y-97308775D01*
X171502994Y-97447931D01*
X171274803Y-97635203D01*
X171087531Y-97863394D01*
X171046584Y-97940000D01*
X162453416Y-97940000D01*
X162412469Y-97863394D01*
X162225197Y-97635203D01*
X161997006Y-97447931D01*
X161736664Y-97308775D01*
X161454177Y-97223084D01*
X161234019Y-97201400D01*
X161155968Y-97201400D01*
X161134974Y-97162123D01*
X161063799Y-97075397D01*
X161040001Y-97046399D01*
X161011004Y-97022602D01*
X159877404Y-95889003D01*
X159853601Y-95859999D01*
X159737876Y-95765026D01*
X159605847Y-95694454D01*
X159462586Y-95650997D01*
X159350933Y-95640000D01*
X159350922Y-95640000D01*
X159313600Y-95636324D01*
X159276278Y-95640000D01*
X145267484Y-95640000D01*
X145285000Y-95551939D01*
X145285000Y-95348061D01*
X145245226Y-95148102D01*
X145167205Y-94959744D01*
X145100558Y-94860000D01*
X165946289Y-94860000D01*
X165990226Y-94903937D01*
X166159744Y-95017205D01*
X166348102Y-95095226D01*
X166548061Y-95135000D01*
X166751939Y-95135000D01*
X166951898Y-95095226D01*
X167140256Y-95017205D01*
X167309774Y-94903937D01*
X167453937Y-94759774D01*
X167567205Y-94590256D01*
X167645226Y-94401898D01*
X167685000Y-94201939D01*
X167685000Y-93998061D01*
X167645226Y-93798102D01*
X167567205Y-93609744D01*
X167453937Y-93440226D01*
X167309774Y-93296063D01*
X167140256Y-93182795D01*
X166951898Y-93104774D01*
X166751939Y-93065000D01*
X166548061Y-93065000D01*
X166348102Y-93104774D01*
X166159744Y-93182795D01*
X165990226Y-93296063D01*
X165946289Y-93340000D01*
X115921977Y-93340000D01*
X116200130Y-93298787D01*
X116466292Y-93203603D01*
X116591514Y-93136671D01*
X116663097Y-92892702D01*
X115850000Y-92079605D01*
X115036903Y-92892702D01*
X115108486Y-93136671D01*
X115363996Y-93257571D01*
X115638184Y-93326300D01*
X115916110Y-93340000D01*
X111121977Y-93340000D01*
X111400130Y-93298787D01*
X111666292Y-93203603D01*
X111791514Y-93136671D01*
X111863097Y-92892702D01*
X111050000Y-92079605D01*
X110236903Y-92892702D01*
X110308486Y-93136671D01*
X110563996Y-93257571D01*
X110838184Y-93326300D01*
X111116110Y-93340000D01*
X104414802Y-93340000D01*
X104210000Y-93135199D01*
X104210000Y-91758665D01*
X104615000Y-91758665D01*
X104615000Y-92041335D01*
X104670147Y-92318574D01*
X104778320Y-92579727D01*
X104935363Y-92814759D01*
X105135241Y-93014637D01*
X105370273Y-93171680D01*
X105631426Y-93279853D01*
X105908665Y-93335000D01*
X106191335Y-93335000D01*
X106468574Y-93279853D01*
X106729727Y-93171680D01*
X106964759Y-93014637D01*
X107164637Y-92814759D01*
X107321680Y-92579727D01*
X107429853Y-92318574D01*
X107485000Y-92041335D01*
X107485000Y-91970512D01*
X109609783Y-91970512D01*
X109651213Y-92250130D01*
X109746397Y-92516292D01*
X109813329Y-92641514D01*
X110057298Y-92713097D01*
X110870395Y-91900000D01*
X111229605Y-91900000D01*
X112042702Y-92713097D01*
X112286671Y-92641514D01*
X112407571Y-92386004D01*
X112476300Y-92111816D01*
X112483265Y-91970512D01*
X114409783Y-91970512D01*
X114451213Y-92250130D01*
X114546397Y-92516292D01*
X114613329Y-92641514D01*
X114857298Y-92713097D01*
X115670395Y-91900000D01*
X116029605Y-91900000D01*
X116842702Y-92713097D01*
X117086671Y-92641514D01*
X117207571Y-92386004D01*
X117276300Y-92111816D01*
X117290217Y-91829488D01*
X117248787Y-91549870D01*
X117153603Y-91283708D01*
X117086671Y-91158486D01*
X116842702Y-91086903D01*
X116029605Y-91900000D01*
X115670395Y-91900000D01*
X114857298Y-91086903D01*
X114613329Y-91158486D01*
X114492429Y-91413996D01*
X114423700Y-91688184D01*
X114409783Y-91970512D01*
X112483265Y-91970512D01*
X112490217Y-91829488D01*
X112448787Y-91549870D01*
X112353603Y-91283708D01*
X112286671Y-91158486D01*
X112042702Y-91086903D01*
X111229605Y-91900000D01*
X110870395Y-91900000D01*
X110057298Y-91086903D01*
X109813329Y-91158486D01*
X109692429Y-91413996D01*
X109623700Y-91688184D01*
X109609783Y-91970512D01*
X107485000Y-91970512D01*
X107485000Y-91758665D01*
X107429853Y-91481426D01*
X107321680Y-91220273D01*
X107164637Y-90985241D01*
X107086694Y-90907298D01*
X110236903Y-90907298D01*
X111050000Y-91720395D01*
X111863097Y-90907298D01*
X115036903Y-90907298D01*
X115850000Y-91720395D01*
X116663097Y-90907298D01*
X116591514Y-90663329D01*
X116336004Y-90542429D01*
X116061816Y-90473700D01*
X115779488Y-90459783D01*
X115499870Y-90501213D01*
X115233708Y-90596397D01*
X115108486Y-90663329D01*
X115036903Y-90907298D01*
X111863097Y-90907298D01*
X111791514Y-90663329D01*
X111536004Y-90542429D01*
X111261816Y-90473700D01*
X110979488Y-90459783D01*
X110699870Y-90501213D01*
X110433708Y-90596397D01*
X110308486Y-90663329D01*
X110236903Y-90907298D01*
X107086694Y-90907298D01*
X106964759Y-90785363D01*
X106729727Y-90628320D01*
X106468574Y-90520147D01*
X106191335Y-90465000D01*
X105908665Y-90465000D01*
X105631426Y-90520147D01*
X105370273Y-90628320D01*
X105135241Y-90785363D01*
X104935363Y-90985241D01*
X104778320Y-91220273D01*
X104670147Y-91481426D01*
X104615000Y-91758665D01*
X104210000Y-91758665D01*
X104210000Y-89338072D01*
X104300000Y-89338072D01*
X104424482Y-89325812D01*
X104544180Y-89289502D01*
X104654494Y-89230537D01*
X104751185Y-89151185D01*
X104830537Y-89054494D01*
X104889502Y-88944180D01*
X104925812Y-88824482D01*
X104927581Y-88806518D01*
X105020392Y-88919608D01*
X105238899Y-89098932D01*
X105488192Y-89232182D01*
X105758691Y-89314236D01*
X105969508Y-89335000D01*
X106110492Y-89335000D01*
X106321309Y-89314236D01*
X106591808Y-89232182D01*
X106841101Y-89098932D01*
X107059608Y-88919608D01*
X107238932Y-88701101D01*
X107310000Y-88568142D01*
X107381068Y-88701101D01*
X107560392Y-88919608D01*
X107778899Y-89098932D01*
X108028192Y-89232182D01*
X108298691Y-89314236D01*
X108509508Y-89335000D01*
X108650492Y-89335000D01*
X108861309Y-89314236D01*
X109131808Y-89232182D01*
X109381101Y-89098932D01*
X109599608Y-88919608D01*
X109778932Y-88701101D01*
X109852579Y-88563318D01*
X109967615Y-88755131D01*
X110156586Y-88963519D01*
X110382580Y-89131037D01*
X110636913Y-89251246D01*
X110770961Y-89291904D01*
X110993000Y-89169915D01*
X110993000Y-88027000D01*
X111247000Y-88027000D01*
X111247000Y-89169915D01*
X111469039Y-89291904D01*
X111603087Y-89251246D01*
X111857420Y-89131037D01*
X112083414Y-88963519D01*
X112272385Y-88755131D01*
X112417070Y-88513881D01*
X112511909Y-88249040D01*
X112390624Y-88027000D01*
X111247000Y-88027000D01*
X110993000Y-88027000D01*
X110973000Y-88027000D01*
X110973000Y-87773000D01*
X110993000Y-87773000D01*
X110993000Y-87753000D01*
X111247000Y-87753000D01*
X111247000Y-87773000D01*
X112390624Y-87773000D01*
X112511909Y-87550960D01*
X112417070Y-87286119D01*
X112356426Y-87185001D01*
X113928830Y-87185001D01*
X114154826Y-87410997D01*
X114178629Y-87440001D01*
X114230774Y-87482795D01*
X114294353Y-87534974D01*
X114408642Y-87596063D01*
X114426383Y-87605546D01*
X114569644Y-87649003D01*
X114628481Y-87654798D01*
X114735363Y-87814759D01*
X114935241Y-88014637D01*
X115170273Y-88171680D01*
X115431426Y-88279853D01*
X115708665Y-88335000D01*
X115991335Y-88335000D01*
X116268574Y-88279853D01*
X116529727Y-88171680D01*
X116764759Y-88014637D01*
X116964637Y-87814759D01*
X117121680Y-87579727D01*
X117229853Y-87318574D01*
X117285000Y-87041335D01*
X117285000Y-86758665D01*
X117229853Y-86481426D01*
X117151682Y-86292702D01*
X122736903Y-86292702D01*
X122808486Y-86536671D01*
X123063996Y-86657571D01*
X123338184Y-86726300D01*
X123620512Y-86740217D01*
X123900130Y-86698787D01*
X124166292Y-86603603D01*
X124291514Y-86536671D01*
X124363097Y-86292702D01*
X123550000Y-85479605D01*
X122736903Y-86292702D01*
X117151682Y-86292702D01*
X117121680Y-86220273D01*
X116964637Y-85985241D01*
X116764759Y-85785363D01*
X116529727Y-85628320D01*
X116268574Y-85520147D01*
X115991335Y-85465000D01*
X115708665Y-85465000D01*
X115431426Y-85520147D01*
X115170273Y-85628320D01*
X114935241Y-85785363D01*
X114807059Y-85913545D01*
X114783632Y-85885000D01*
X114667907Y-85790027D01*
X114535878Y-85719455D01*
X114392617Y-85675998D01*
X114280964Y-85665001D01*
X114280953Y-85665001D01*
X114243631Y-85661325D01*
X114206309Y-85665001D01*
X101137902Y-85665001D01*
X101176300Y-85511816D01*
X101183265Y-85370512D01*
X122109783Y-85370512D01*
X122151213Y-85650130D01*
X122246397Y-85916292D01*
X122313329Y-86041514D01*
X122557298Y-86113097D01*
X123370395Y-85300000D01*
X123729605Y-85300000D01*
X124542702Y-86113097D01*
X124786671Y-86041514D01*
X124907571Y-85786004D01*
X124976300Y-85511816D01*
X124990217Y-85229488D01*
X124948787Y-84949870D01*
X124853603Y-84683708D01*
X124786671Y-84558486D01*
X124542702Y-84486903D01*
X123729605Y-85300000D01*
X123370395Y-85300000D01*
X122557298Y-84486903D01*
X122313329Y-84558486D01*
X122192429Y-84813996D01*
X122123700Y-85088184D01*
X122109783Y-85370512D01*
X101183265Y-85370512D01*
X101190217Y-85229488D01*
X101148787Y-84949870D01*
X101053603Y-84683708D01*
X100986671Y-84558486D01*
X100742702Y-84486903D01*
X99929605Y-85300000D01*
X99943748Y-85314143D01*
X99764143Y-85493748D01*
X99750000Y-85479605D01*
X99735858Y-85493748D01*
X99556253Y-85314143D01*
X99570395Y-85300000D01*
X98757298Y-84486903D01*
X98513329Y-84558486D01*
X98392429Y-84813996D01*
X98323700Y-85088184D01*
X98309783Y-85370512D01*
X98351213Y-85650130D01*
X98356531Y-85665001D01*
X95530087Y-85665001D01*
X95492764Y-85661325D01*
X95455441Y-85665001D01*
X95455432Y-85665001D01*
X95343779Y-85675998D01*
X95200518Y-85719455D01*
X95068488Y-85790027D01*
X94984848Y-85858669D01*
X94952764Y-85885000D01*
X94928966Y-85913998D01*
X92217351Y-88625614D01*
X92162561Y-88350166D01*
X92020466Y-88007118D01*
X91814175Y-87698382D01*
X91551618Y-87435825D01*
X91242882Y-87229534D01*
X90899834Y-87087439D01*
X90535656Y-87015000D01*
X90164344Y-87015000D01*
X89800166Y-87087439D01*
X89457118Y-87229534D01*
X89148382Y-87435825D01*
X88885825Y-87698382D01*
X88679534Y-88007118D01*
X88537439Y-88350166D01*
X88465000Y-88714344D01*
X88465000Y-89085656D01*
X88537439Y-89449834D01*
X88634740Y-89684740D01*
X88399834Y-89587439D01*
X88035656Y-89515000D01*
X87664344Y-89515000D01*
X87300166Y-89587439D01*
X86957118Y-89729534D01*
X86648382Y-89935825D01*
X86385825Y-90198382D01*
X86179534Y-90507118D01*
X86037439Y-90850166D01*
X85965000Y-91214344D01*
X85965000Y-91585656D01*
X86037439Y-91949834D01*
X86179534Y-92292882D01*
X86385825Y-92601618D01*
X86648382Y-92864175D01*
X86761862Y-92940000D01*
X83803711Y-92940000D01*
X83759774Y-92896063D01*
X83590256Y-92782795D01*
X83401898Y-92704774D01*
X83201939Y-92665000D01*
X82998061Y-92665000D01*
X82798102Y-92704774D01*
X82609744Y-92782795D01*
X82440226Y-92896063D01*
X82296063Y-93040226D01*
X82182795Y-93209744D01*
X82104774Y-93398102D01*
X82065000Y-93598061D01*
X82065000Y-93801939D01*
X82104774Y-94001898D01*
X82182795Y-94190256D01*
X82296063Y-94359774D01*
X82440226Y-94503937D01*
X82609744Y-94617205D01*
X82798102Y-94695226D01*
X82998061Y-94735000D01*
X83201939Y-94735000D01*
X83401898Y-94695226D01*
X83590256Y-94617205D01*
X83759774Y-94503937D01*
X83803711Y-94460000D01*
X98946289Y-94460000D01*
X98990226Y-94503937D01*
X99159744Y-94617205D01*
X99348102Y-94695226D01*
X99548061Y-94735000D01*
X99751939Y-94735000D01*
X99951898Y-94695226D01*
X100140256Y-94617205D01*
X100309774Y-94503937D01*
X100453937Y-94359774D01*
X100567205Y-94190256D01*
X100645226Y-94001898D01*
X100685000Y-93801939D01*
X100685000Y-93598061D01*
X100645226Y-93398102D01*
X100567205Y-93209744D01*
X100453937Y-93040226D01*
X100309774Y-92896063D01*
X100140256Y-92782795D01*
X99951898Y-92704774D01*
X99751939Y-92665000D01*
X99548061Y-92665000D01*
X99348102Y-92704774D01*
X99159744Y-92782795D01*
X98990226Y-92896063D01*
X98946289Y-92940000D01*
X88938138Y-92940000D01*
X89051618Y-92864175D01*
X89314175Y-92601618D01*
X89520466Y-92292882D01*
X89575507Y-92160000D01*
X90480444Y-92160000D01*
X90517766Y-92163676D01*
X90555088Y-92160000D01*
X90555099Y-92160000D01*
X90666752Y-92149003D01*
X90810013Y-92105546D01*
X90942042Y-92034974D01*
X91057767Y-91940001D01*
X91081570Y-91910997D01*
X91299865Y-91692702D01*
X96336903Y-91692702D01*
X96408486Y-91936671D01*
X96663996Y-92057571D01*
X96938184Y-92126300D01*
X97220512Y-92140217D01*
X97500130Y-92098787D01*
X97766292Y-92003603D01*
X97891514Y-91936671D01*
X97963097Y-91692702D01*
X97150000Y-90879605D01*
X96336903Y-91692702D01*
X91299865Y-91692702D01*
X92222055Y-90770512D01*
X95709783Y-90770512D01*
X95751213Y-91050130D01*
X95846397Y-91316292D01*
X95913329Y-91441514D01*
X96157298Y-91513097D01*
X96970395Y-90700000D01*
X97329605Y-90700000D01*
X98142702Y-91513097D01*
X98211928Y-91492785D01*
X98211928Y-91500000D01*
X98224188Y-91624482D01*
X98260498Y-91744180D01*
X98319463Y-91854494D01*
X98398815Y-91951185D01*
X98495506Y-92030537D01*
X98605820Y-92089502D01*
X98725518Y-92125812D01*
X98850000Y-92138072D01*
X100450000Y-92138072D01*
X100574482Y-92125812D01*
X100694180Y-92089502D01*
X100804494Y-92030537D01*
X100901185Y-91951185D01*
X100980537Y-91854494D01*
X101039502Y-91744180D01*
X101075812Y-91624482D01*
X101088072Y-91500000D01*
X101088072Y-89900000D01*
X101075812Y-89775518D01*
X101039502Y-89655820D01*
X100980537Y-89545506D01*
X100901185Y-89448815D01*
X100804494Y-89369463D01*
X100694180Y-89310498D01*
X100574482Y-89274188D01*
X100450000Y-89261928D01*
X98850000Y-89261928D01*
X98725518Y-89274188D01*
X98605820Y-89310498D01*
X98495506Y-89369463D01*
X98398815Y-89448815D01*
X98319463Y-89545506D01*
X98260498Y-89655820D01*
X98224188Y-89775518D01*
X98211928Y-89900000D01*
X98211928Y-89907215D01*
X98142702Y-89886903D01*
X97329605Y-90700000D01*
X96970395Y-90700000D01*
X96157298Y-89886903D01*
X95913329Y-89958486D01*
X95792429Y-90213996D01*
X95723700Y-90488184D01*
X95709783Y-90770512D01*
X92222055Y-90770512D01*
X93285269Y-89707298D01*
X96336903Y-89707298D01*
X97150000Y-90520395D01*
X97963097Y-89707298D01*
X97891514Y-89463329D01*
X97636004Y-89342429D01*
X97361816Y-89273700D01*
X97079488Y-89259783D01*
X96799870Y-89301213D01*
X96533708Y-89396397D01*
X96408486Y-89463329D01*
X96336903Y-89707298D01*
X93285269Y-89707298D01*
X95807567Y-87185001D01*
X102061928Y-87185001D01*
X102061928Y-88700000D01*
X102074188Y-88824482D01*
X102110498Y-88944180D01*
X102169463Y-89054494D01*
X102248815Y-89151185D01*
X102345506Y-89230537D01*
X102455820Y-89289502D01*
X102575518Y-89325812D01*
X102690000Y-89337087D01*
X102690001Y-93412668D01*
X102686324Y-93450000D01*
X102690001Y-93487333D01*
X102700998Y-93598986D01*
X102714180Y-93642442D01*
X102744454Y-93742246D01*
X102815026Y-93874276D01*
X102878004Y-93951014D01*
X102910000Y-93990001D01*
X102938998Y-94013799D01*
X103536200Y-94611002D01*
X103559999Y-94640001D01*
X103675724Y-94734974D01*
X103807753Y-94805546D01*
X103951014Y-94849003D01*
X104062667Y-94860000D01*
X104062677Y-94860000D01*
X104100000Y-94863676D01*
X104137323Y-94860000D01*
X127016033Y-94860000D01*
X126982795Y-94909744D01*
X126904774Y-95098102D01*
X126865000Y-95298061D01*
X126865000Y-95501939D01*
X126892462Y-95640000D01*
X93397722Y-95640000D01*
X93360399Y-95636324D01*
X93323076Y-95640000D01*
X93323067Y-95640000D01*
X93211414Y-95650997D01*
X93068153Y-95694454D01*
X92936124Y-95765026D01*
X92820399Y-95859999D01*
X92796601Y-95888997D01*
X91437300Y-97248299D01*
X91354177Y-97223084D01*
X91134019Y-97201400D01*
X89665981Y-97201400D01*
X89445823Y-97223084D01*
X89163336Y-97308775D01*
X88902994Y-97447931D01*
X88674803Y-97635203D01*
X88487531Y-97863394D01*
X88446584Y-97940000D01*
X82153711Y-97940000D01*
X82109774Y-97896063D01*
X81940256Y-97782795D01*
X81751898Y-97704774D01*
X81551939Y-97665000D01*
X81348061Y-97665000D01*
X81148102Y-97704774D01*
X80959744Y-97782795D01*
X80790226Y-97896063D01*
X80746289Y-97940000D01*
X79853416Y-97940000D01*
X79812469Y-97863394D01*
X79625197Y-97635203D01*
X79397006Y-97447931D01*
X79136664Y-97308775D01*
X78854177Y-97223084D01*
X78634019Y-97201400D01*
X77165981Y-97201400D01*
X76945823Y-97223084D01*
X76663336Y-97308775D01*
X76402994Y-97447931D01*
X76360000Y-97483215D01*
X76360000Y-90062968D01*
X76385825Y-90101618D01*
X76648382Y-90364175D01*
X76957118Y-90570466D01*
X77300166Y-90712561D01*
X77664344Y-90785000D01*
X78035656Y-90785000D01*
X78399834Y-90712561D01*
X78742882Y-90570466D01*
X79051618Y-90364175D01*
X79314175Y-90101618D01*
X79520466Y-89792882D01*
X79662561Y-89449834D01*
X79735000Y-89085656D01*
X79735000Y-88714344D01*
X79662561Y-88350166D01*
X79520466Y-88007118D01*
X79314175Y-87698382D01*
X79051618Y-87435825D01*
X78742882Y-87229534D01*
X78399834Y-87087439D01*
X78035656Y-87015000D01*
X77664344Y-87015000D01*
X77300166Y-87087439D01*
X76957118Y-87229534D01*
X76648382Y-87435825D01*
X76385825Y-87698382D01*
X76360000Y-87737032D01*
X76360000Y-85213605D01*
X86716000Y-85213605D01*
X86841914Y-85503577D01*
X87174126Y-85669433D01*
X87532312Y-85767290D01*
X87902706Y-85793389D01*
X88271075Y-85746725D01*
X88623262Y-85629094D01*
X88858086Y-85503577D01*
X88984000Y-85213605D01*
X87850000Y-84079605D01*
X86716000Y-85213605D01*
X76360000Y-85213605D01*
X76360000Y-83952706D01*
X85956611Y-83952706D01*
X86003275Y-84321075D01*
X86120906Y-84673262D01*
X86246423Y-84908086D01*
X86536395Y-85034000D01*
X87670395Y-83900000D01*
X88029605Y-83900000D01*
X89163605Y-85034000D01*
X89453577Y-84908086D01*
X89619433Y-84575874D01*
X89692808Y-84307298D01*
X98936903Y-84307298D01*
X99750000Y-85120395D01*
X100563097Y-84307298D01*
X100491514Y-84063329D01*
X100236004Y-83942429D01*
X99961816Y-83873700D01*
X99679488Y-83859783D01*
X99399870Y-83901213D01*
X99133708Y-83996397D01*
X99008486Y-84063329D01*
X98936903Y-84307298D01*
X89692808Y-84307298D01*
X89717290Y-84217688D01*
X89743389Y-83847294D01*
X89696725Y-83478925D01*
X89579094Y-83126738D01*
X89453577Y-82891914D01*
X89163605Y-82766000D01*
X88029605Y-83900000D01*
X87670395Y-83900000D01*
X86536395Y-82766000D01*
X86246423Y-82891914D01*
X86080567Y-83224126D01*
X85982710Y-83582312D01*
X85956611Y-83952706D01*
X76360000Y-83952706D01*
X76360000Y-82586395D01*
X86716000Y-82586395D01*
X87850000Y-83720395D01*
X88984000Y-82586395D01*
X88858086Y-82296423D01*
X88525874Y-82130567D01*
X88167688Y-82032710D01*
X87797294Y-82006611D01*
X87428925Y-82053275D01*
X87076738Y-82170906D01*
X86841914Y-82296423D01*
X86716000Y-82586395D01*
X76360000Y-82586395D01*
X76360000Y-80062968D01*
X76385825Y-80101618D01*
X76648382Y-80364175D01*
X76957118Y-80570466D01*
X77300166Y-80712561D01*
X77664344Y-80785000D01*
X78035656Y-80785000D01*
X78399834Y-80712561D01*
X78742882Y-80570466D01*
X79051618Y-80364175D01*
X79314175Y-80101618D01*
X79520466Y-79792882D01*
X79662561Y-79449834D01*
X79735000Y-79085656D01*
X79735000Y-78714344D01*
X79662561Y-78350166D01*
X79520466Y-78007118D01*
X79314175Y-77698382D01*
X79051618Y-77435825D01*
X78742882Y-77229534D01*
X78399834Y-77087439D01*
X78035656Y-77015000D01*
X77664344Y-77015000D01*
X77300166Y-77087439D01*
X76957118Y-77229534D01*
X76648382Y-77435825D01*
X76385825Y-77698382D01*
X76360000Y-77737032D01*
X76360000Y-66569268D01*
X78815000Y-66569268D01*
X78815000Y-66930732D01*
X78885518Y-67285250D01*
X79023844Y-67619199D01*
X79224662Y-67919744D01*
X79480256Y-68175338D01*
X79780801Y-68376156D01*
X80114750Y-68514482D01*
X80469268Y-68585000D01*
X80830732Y-68585000D01*
X81185250Y-68514482D01*
X81519199Y-68376156D01*
X81819744Y-68175338D01*
X82075338Y-67919744D01*
X82276156Y-67619199D01*
X82321388Y-67510000D01*
X85846289Y-67510000D01*
X85890226Y-67553937D01*
X86059744Y-67667205D01*
X86248102Y-67745226D01*
X86448061Y-67785000D01*
X86651939Y-67785000D01*
X86851898Y-67745226D01*
X87040256Y-67667205D01*
X87209774Y-67553937D01*
X87353937Y-67409774D01*
X87467205Y-67240256D01*
X87545226Y-67051898D01*
X87585000Y-66851939D01*
X87585000Y-66648061D01*
X87545226Y-66448102D01*
X87467205Y-66259744D01*
X87353937Y-66090226D01*
X87209774Y-65946063D01*
X87040256Y-65832795D01*
X86851898Y-65754774D01*
X86651939Y-65715000D01*
X86448061Y-65715000D01*
X86248102Y-65754774D01*
X86059744Y-65832795D01*
X85890226Y-65946063D01*
X85846289Y-65990000D01*
X82321388Y-65990000D01*
X82276156Y-65880801D01*
X82075338Y-65580256D01*
X81819744Y-65324662D01*
X81519199Y-65123844D01*
X81185250Y-64985518D01*
X80830732Y-64915000D01*
X80469268Y-64915000D01*
X80114750Y-64985518D01*
X79780801Y-65123844D01*
X79480256Y-65324662D01*
X79224662Y-65580256D01*
X79023844Y-65880801D01*
X78885518Y-66214750D01*
X78815000Y-66569268D01*
X76360000Y-66569268D01*
X76360000Y-62319268D01*
X78815000Y-62319268D01*
X78815000Y-62680732D01*
X78885518Y-63035250D01*
X79023844Y-63369199D01*
X79224662Y-63669744D01*
X79480256Y-63925338D01*
X79780801Y-64126156D01*
X80114750Y-64264482D01*
X80469268Y-64335000D01*
X80830732Y-64335000D01*
X81185250Y-64264482D01*
X81519199Y-64126156D01*
X81819744Y-63925338D01*
X82075338Y-63669744D01*
X82276156Y-63369199D01*
X82414482Y-63035250D01*
X82485000Y-62680732D01*
X82485000Y-62319268D01*
X82414482Y-61964750D01*
X82276156Y-61630801D01*
X82075338Y-61330256D01*
X81819744Y-61074662D01*
X81519199Y-60873844D01*
X81185250Y-60735518D01*
X80830732Y-60665000D01*
X80469268Y-60665000D01*
X80114750Y-60735518D01*
X79780801Y-60873844D01*
X79480256Y-61074662D01*
X79224662Y-61330256D01*
X79023844Y-61630801D01*
X78885518Y-61964750D01*
X78815000Y-62319268D01*
X76360000Y-62319268D01*
X76360000Y-52160000D01*
X97894198Y-52160000D01*
X97840226Y-52196063D01*
M02*
