M48
; DRILL file {KiCad (5.1.2-1)-1} date Sunday, 13 December 2020 at 23:00:32
; FORMAT={-:-/ absolute / metric / decimal}
; #@! TF.CreationDate,2020-12-13T23:00:32+01:00
; #@! TF.GenerationSoftware,Kicad,Pcbnew,(5.1.2-1)-1
; #@! TF.FileFunction,Plated,1,2,PTH
FMAT,2
METRIC
T1C0.400
T2C0.800
T3C1.000
T4C1.200
T5C1.400
%
G90
G05
T1
X81.35Y-124.45
X81.45Y-98.7
X82.0Y-129.45
X82.0Y-142.35
X83.1Y-56.4
X83.1Y-93.7
X84.15Y-137.35
X84.2Y-111.55
X86.4Y-103.7
X86.4Y-116.55
X86.55Y-61.0
X86.55Y-66.75
X95.89Y-58.25
X95.95Y-72.3
X97.35Y-82.2
X98.45Y-73.35
X98.5Y-53.0
X99.65Y-93.7
X100.4Y-111.55
X100.4Y-137.35
X101.0Y-60.35
X101.0Y-74.25
X103.65Y-98.7
X103.65Y-124.45
X105.1Y-65.5
X106.05Y-83.65
X106.1Y-52.225
X107.5Y-66.7
X108.6Y-64.55
X116.6Y-111.55
X116.6Y-122.35
X116.6Y-137.35
X119.1Y-98.7
X119.15Y-124.45
X119.35Y-80.3
X120.85Y-83.65
X120.9Y-59.4
X123.0Y-90.45
X126.75Y-60.35
X127.9Y-95.4
X129.3Y-56.3
X129.3Y-109.45
X130.3Y-58.25
X130.35Y-124.45
X130.35Y-135.2
X130.4Y-64.75
X130.4Y-98.7
X131.85Y-70.25
X132.15Y-113.05
X133.2Y-137.35
X133.25Y-111.55
X134.65Y-61.75
X135.6Y-59.7
X138.1Y-96.4
X139.15Y-55.05
X141.45Y-101.35
X141.75Y-60.5
X142.75Y-58.4
X143.1Y-90.3
X144.25Y-95.45
X144.45Y-65.475
X146.85Y-72.4
X147.1Y-77.15
X149.45Y-73.35
X150.0Y-56.7
X150.6Y-107.65
X150.7Y-98.7
X150.7Y-111.55
X150.9Y-64.0
X151.85Y-88.4
X151.925Y-74.95
X152.0Y-60.5
X152.1Y-62.65
X152.1Y-67.4
X152.65Y-90.3
X154.2Y-80.3
X154.2Y-100.5
X157.0Y-58.35
X157.0Y-65.5
X159.25Y-73.3
X165.55Y-69.9
X165.55Y-72.575
X166.65Y-94.1
X166.7Y-101.35
X166.8Y-111.55
X169.0Y-142.35
X169.05Y-103.7
X169.05Y-116.55
X169.05Y-129.45
X170.5Y-82.2
X173.3Y-71.85
T2
X103.6Y-75.95
X108.6Y-75.95
X97.15Y-90.7
X99.65Y-90.7
X99.75Y-80.3
X99.75Y-85.3
X127.9Y-80.28
X127.9Y-87.9
X130.44Y-80.28
X130.44Y-87.9
X132.98Y-80.28
X132.98Y-87.9
X135.52Y-80.28
X135.52Y-87.9
X138.06Y-80.28
X138.06Y-87.9
X140.6Y-80.28
X140.6Y-87.9
X143.14Y-80.28
X143.14Y-87.9
X145.68Y-80.28
X145.68Y-87.9
X103.5Y-80.28
X103.5Y-87.9
X106.04Y-80.28
X106.04Y-87.9
X108.58Y-80.28
X108.58Y-87.9
X111.12Y-80.28
X111.12Y-87.9
X106.05Y-91.9
X111.05Y-91.9
X123.55Y-80.3
X123.55Y-85.3
X115.85Y-86.9
X115.85Y-91.9
T3
X160.45Y-85.95
X160.45Y-90.95
X172.95Y-85.95
X172.95Y-90.95
X144.3Y-98.7
X144.3Y-103.7
X156.8Y-98.7
X156.8Y-103.7
X160.5Y-111.55
X160.5Y-116.55
X173.0Y-111.55
X173.0Y-116.55
X110.5Y-111.55
X110.5Y-116.55
X123.0Y-111.55
X123.0Y-116.55
X93.4Y-55.01
X93.4Y-70.25
X95.94Y-55.01
X95.94Y-70.25
X98.48Y-55.01
X98.48Y-70.25
X101.02Y-55.01
X101.02Y-70.25
X103.56Y-55.01
X103.56Y-70.25
X106.1Y-55.01
X106.1Y-70.25
X110.5Y-124.45
X110.5Y-129.45
X123.0Y-124.45
X123.0Y-129.45
X126.8Y-98.7
X126.8Y-103.7
X139.3Y-98.7
X139.3Y-103.7
X110.55Y-98.7
X110.55Y-103.7
X123.05Y-98.7
X123.05Y-103.7
X160.5Y-98.7
X160.5Y-103.7
X173.0Y-98.7
X173.0Y-103.7
X94.15Y-111.55
X94.15Y-116.55
X106.65Y-111.55
X106.65Y-116.55
X94.2Y-98.7
X94.2Y-103.7
X106.7Y-98.7
X106.7Y-103.7
X169.15Y-55.39
X169.15Y-57.93
X169.15Y-60.47
X169.15Y-63.01
X169.15Y-65.55
X169.15Y-68.09
X169.15Y-70.63
X169.15Y-73.17
X169.15Y-75.71
X169.15Y-78.25
X171.69Y-55.39
X171.69Y-57.93
X171.69Y-60.47
X171.69Y-63.01
X171.69Y-65.55
X171.69Y-68.09
X171.69Y-70.63
X171.69Y-73.17
X171.69Y-75.71
X171.69Y-78.25
X77.9Y-98.7
X77.9Y-103.7
X90.4Y-98.7
X90.4Y-103.7
X94.15Y-124.45
X94.15Y-129.45
X106.65Y-124.45
X106.65Y-129.45
X126.8Y-124.45
X126.8Y-129.45
X139.3Y-124.45
X139.3Y-129.45
X94.15Y-137.35
X94.15Y-142.35
X106.65Y-137.35
X106.65Y-142.35
X144.4Y-55.01
X144.4Y-70.25
X146.94Y-55.01
X146.94Y-70.25
X149.48Y-55.01
X149.48Y-70.25
X152.02Y-55.01
X152.02Y-70.25
X154.56Y-55.01
X154.56Y-70.25
X157.1Y-55.01
X157.1Y-70.25
X77.9Y-111.55
X77.9Y-116.55
X90.4Y-111.55
X90.4Y-116.55
X126.8Y-111.55
X126.8Y-116.55
X139.3Y-111.55
X139.3Y-116.55
X144.3Y-124.45
X144.3Y-129.45
X156.8Y-124.45
X156.8Y-129.45
X126.8Y-137.35
X126.8Y-142.35
X139.3Y-137.35
X139.3Y-142.35
X77.9Y-137.35
X77.9Y-142.35
X90.4Y-137.35
X90.4Y-142.35
X144.3Y-137.35
X144.3Y-142.35
X156.8Y-137.35
X156.8Y-142.35
X77.9Y-124.45
X77.9Y-129.45
X90.4Y-124.45
X90.4Y-129.45
X110.5Y-137.35
X110.5Y-142.35
X123.0Y-137.35
X123.0Y-142.35
X160.5Y-137.35
X160.5Y-142.35
X173.0Y-137.35
X173.0Y-142.35
X162.95Y-53.9
X160.5Y-124.45
X160.5Y-129.45
X173.0Y-124.45
X173.0Y-129.45
X144.3Y-111.55
X144.3Y-116.55
X156.8Y-111.55
X156.8Y-116.55
T4
X80.65Y-66.75
X95.89Y-66.75
X148.16Y-62.65
X163.4Y-62.65
X80.65Y-62.5
X95.89Y-62.5
X98.95Y-58.25
X114.19Y-58.25
X117.36Y-62.5
X132.6Y-62.5
X117.35Y-58.25
X132.59Y-58.25
X80.65Y-58.25
X95.89Y-58.25
X98.95Y-62.5
X114.19Y-62.5
X117.35Y-66.75
X132.59Y-66.75
X148.16Y-66.9
X163.4Y-66.9
X98.96Y-66.75
X114.2Y-66.75
X148.16Y-58.35
X163.4Y-58.35
X145.2Y-75.4
X160.44Y-75.4
T5
X77.85Y-78.9
X77.85Y-88.9
X87.85Y-76.4
X87.85Y-83.9
X87.85Y-91.4
X90.35Y-78.9
X90.35Y-88.9
T0
M30
