G04 #@! TF.GenerationSoftware,KiCad,Pcbnew,(5.1.2-1)-1*
G04 #@! TF.CreationDate,2020-12-13T23:00:28+01:00*
G04 #@! TF.ProjectId,s1clone,7331636c-6f6e-4652-9e6b-696361645f70,rev?*
G04 #@! TF.SameCoordinates,Original*
G04 #@! TF.FileFunction,Legend,Bot*
G04 #@! TF.FilePolarity,Positive*
%FSLAX46Y46*%
G04 Gerber Fmt 4.6, Leading zero omitted, Abs format (unit mm)*
G04 Created by KiCad (PCBNEW (5.1.2-1)-1) date 2020-12-13 23:00:28*
%MOMM*%
%LPD*%
G04 APERTURE LIST*
%ADD10C,0.150000*%
%ADD11C,0.120000*%
G04 APERTURE END LIST*
D10*
X174502380Y-54342857D02*
X173502380Y-54342857D01*
X174216666Y-54676190D01*
X173502380Y-55009523D01*
X174502380Y-55009523D01*
X174502380Y-55628571D02*
X174454761Y-55533333D01*
X174407142Y-55485714D01*
X174311904Y-55438095D01*
X174026190Y-55438095D01*
X173930952Y-55485714D01*
X173883333Y-55533333D01*
X173835714Y-55628571D01*
X173835714Y-55771428D01*
X173883333Y-55866666D01*
X173930952Y-55914285D01*
X174026190Y-55961904D01*
X174311904Y-55961904D01*
X174407142Y-55914285D01*
X174454761Y-55866666D01*
X174502380Y-55771428D01*
X174502380Y-55628571D01*
X173835714Y-56819047D02*
X174502380Y-56819047D01*
X173835714Y-56390476D02*
X174359523Y-56390476D01*
X174454761Y-56438095D01*
X174502380Y-56533333D01*
X174502380Y-56676190D01*
X174454761Y-56771428D01*
X174407142Y-56819047D01*
X173835714Y-57295238D02*
X174502380Y-57295238D01*
X173930952Y-57295238D02*
X173883333Y-57342857D01*
X173835714Y-57438095D01*
X173835714Y-57580952D01*
X173883333Y-57676190D01*
X173978571Y-57723809D01*
X174502380Y-57723809D01*
X173835714Y-58057142D02*
X173835714Y-58438095D01*
X173502380Y-58200000D02*
X174359523Y-58200000D01*
X174454761Y-58247619D01*
X174502380Y-58342857D01*
X174502380Y-58438095D01*
X174502380Y-59676190D02*
X174454761Y-59580952D01*
X174407142Y-59533333D01*
X174311904Y-59485714D01*
X174026190Y-59485714D01*
X173930952Y-59533333D01*
X173883333Y-59580952D01*
X173835714Y-59676190D01*
X173835714Y-59819047D01*
X173883333Y-59914285D01*
X173930952Y-59961904D01*
X174026190Y-60009523D01*
X174311904Y-60009523D01*
X174407142Y-59961904D01*
X174454761Y-59914285D01*
X174502380Y-59819047D01*
X174502380Y-59676190D01*
X173835714Y-60438095D02*
X174502380Y-60438095D01*
X173930952Y-60438095D02*
X173883333Y-60485714D01*
X173835714Y-60580952D01*
X173835714Y-60723809D01*
X173883333Y-60819047D01*
X173978571Y-60866666D01*
X174502380Y-60866666D01*
X174454761Y-62057142D02*
X174502380Y-62152380D01*
X174502380Y-62342857D01*
X174454761Y-62438095D01*
X174359523Y-62485714D01*
X174311904Y-62485714D01*
X174216666Y-62438095D01*
X174169047Y-62342857D01*
X174169047Y-62200000D01*
X174121428Y-62104761D01*
X174026190Y-62057142D01*
X173978571Y-62057142D01*
X173883333Y-62104761D01*
X173835714Y-62200000D01*
X173835714Y-62342857D01*
X173883333Y-62438095D01*
X174502380Y-63057142D02*
X174454761Y-62961904D01*
X174407142Y-62914285D01*
X174311904Y-62866666D01*
X174026190Y-62866666D01*
X173930952Y-62914285D01*
X173883333Y-62961904D01*
X173835714Y-63057142D01*
X173835714Y-63200000D01*
X173883333Y-63295238D01*
X173930952Y-63342857D01*
X174026190Y-63390476D01*
X174311904Y-63390476D01*
X174407142Y-63342857D01*
X174454761Y-63295238D01*
X174502380Y-63200000D01*
X174502380Y-63057142D01*
X174502380Y-63961904D02*
X174454761Y-63866666D01*
X174359523Y-63819047D01*
X173502380Y-63819047D01*
X174502380Y-64771428D02*
X173502380Y-64771428D01*
X174454761Y-64771428D02*
X174502380Y-64676190D01*
X174502380Y-64485714D01*
X174454761Y-64390476D01*
X174407142Y-64342857D01*
X174311904Y-64295238D01*
X174026190Y-64295238D01*
X173930952Y-64342857D01*
X173883333Y-64390476D01*
X173835714Y-64485714D01*
X173835714Y-64676190D01*
X173883333Y-64771428D01*
X174454761Y-65628571D02*
X174502380Y-65533333D01*
X174502380Y-65342857D01*
X174454761Y-65247619D01*
X174359523Y-65200000D01*
X173978571Y-65200000D01*
X173883333Y-65247619D01*
X173835714Y-65342857D01*
X173835714Y-65533333D01*
X173883333Y-65628571D01*
X173978571Y-65676190D01*
X174073809Y-65676190D01*
X174169047Y-65200000D01*
X174502380Y-66104761D02*
X173835714Y-66104761D01*
X174026190Y-66104761D02*
X173930952Y-66152380D01*
X173883333Y-66200000D01*
X173835714Y-66295238D01*
X173835714Y-66390476D01*
X174454761Y-67438095D02*
X174502380Y-67533333D01*
X174502380Y-67723809D01*
X174454761Y-67819047D01*
X174359523Y-67866666D01*
X174311904Y-67866666D01*
X174216666Y-67819047D01*
X174169047Y-67723809D01*
X174169047Y-67580952D01*
X174121428Y-67485714D01*
X174026190Y-67438095D01*
X173978571Y-67438095D01*
X173883333Y-67485714D01*
X173835714Y-67580952D01*
X173835714Y-67723809D01*
X173883333Y-67819047D01*
X174502380Y-68295238D02*
X173835714Y-68295238D01*
X173502380Y-68295238D02*
X173550000Y-68247619D01*
X173597619Y-68295238D01*
X173550000Y-68342857D01*
X173502380Y-68295238D01*
X173597619Y-68295238D01*
X174502380Y-69200000D02*
X173502380Y-69200000D01*
X174454761Y-69200000D02*
X174502380Y-69104761D01*
X174502380Y-68914285D01*
X174454761Y-68819047D01*
X174407142Y-68771428D01*
X174311904Y-68723809D01*
X174026190Y-68723809D01*
X173930952Y-68771428D01*
X173883333Y-68819047D01*
X173835714Y-68914285D01*
X173835714Y-69104761D01*
X173883333Y-69200000D01*
X174454761Y-70057142D02*
X174502380Y-69961904D01*
X174502380Y-69771428D01*
X174454761Y-69676190D01*
X174359523Y-69628571D01*
X173978571Y-69628571D01*
X173883333Y-69676190D01*
X173835714Y-69771428D01*
X173835714Y-69961904D01*
X173883333Y-70057142D01*
X173978571Y-70104761D01*
X174073809Y-70104761D01*
X174169047Y-69628571D01*
D11*
X167820000Y-79580000D02*
X169150000Y-79580000D01*
X167820000Y-78250000D02*
X167820000Y-79580000D01*
X170420000Y-79580000D02*
X173020000Y-79580000D01*
X170420000Y-76980000D02*
X170420000Y-79580000D01*
X167820000Y-76980000D02*
X170420000Y-76980000D01*
X173020000Y-79580000D02*
X173020000Y-54060000D01*
X167820000Y-76980000D02*
X167820000Y-54060000D01*
X167820000Y-54060000D02*
X173020000Y-54060000D01*
D10*
X170753333Y-80032380D02*
X170753333Y-80746666D01*
X170800952Y-80889523D01*
X170896190Y-80984761D01*
X171039047Y-81032380D01*
X171134285Y-81032380D01*
X169753333Y-81032380D02*
X170324761Y-81032380D01*
X170039047Y-81032380D02*
X170039047Y-80032380D01*
X170134285Y-80175238D01*
X170229523Y-80270476D01*
X170324761Y-80318095D01*
M02*
